SplineFontDB: 3.2
FontName: ing15m
FullName: ing15m
FamilyName: ing15m
Weight: Regular
Copyright: Copyright 2022 The Noto Project Authors (https://github.com/notofonts/latin-greek-cyrillic)
Version: 2.013
ItalicAngle: 0
UnderlinePosition: -125
UnderlineWidth: 50
Ascent: 800
Descent: 200
InvalidEm: 0
sfntRevision: 0x00020354
LayerCount: 2
Layer: 0 1 "Back" 1
Layer: 1 1 "Fore" 0
XUID: [1021 426 849761687 13685114]
StyleMap: 0x0040
FSType: 0
OS2Version: 4
OS2_WeightWidthSlopeOnly: 0
OS2_UseTypoMetrics: 1
CreationTime: 1633362791
ModificationTime: 1741115940
PfmFamily: 17
TTFWeight: 400
TTFWidth: 5
LineGap: 0
VLineGap: 0
Panose: 2 11 5 2 4 5 4 2 2 4
OS2TypoAscent: 1069
OS2TypoAOffset: 0
OS2TypoDescent: -293
OS2TypoDOffset: 0
OS2TypoLinegap: 0
OS2WinAscent: 1124
OS2WinAOffset: 0
OS2WinDescent: 395
OS2WinDOffset: 0
HheadAscent: 1069
HheadAOffset: 0
HheadDescent: -293
HheadDOffset: 0
OS2SubXSize: 650
OS2SubYSize: 600
OS2SubXOff: 0
OS2SubYOff: 75
OS2SupXSize: 650
OS2SupYSize: 600
OS2SupXOff: 0
OS2SupYOff: 350
OS2StrikeYSize: 50
OS2StrikeYPos: 322
OS2CapHeight: 714
OS2XHeight: 536
OS2Vendor: 'GOOG'
OS2CodePages: 0000019f.00000000
OS2UnicodeRanges: e00002ff.4000201f.08000029.00100000
Lookup: 1 0 0 "'aalt' Access All Alternates lookup 0" { "'aalt' Access All Alternates lookup 0 subtable"  } ['aalt' ('DFLT' <'dflt' > 'cyrl' <'MKD ' 'SRB ' 'dflt' > 'dev2' <'MAR ' 'NEP ' 'dflt' > 'grek' <'APPH' 'IPPH' 'dflt' > 'latn' <'APPH' 'CAT ' 'IPPH' 'MAH ' 'MOL ' 'NAV ' 'ROM ' 'dflt' > ) ]
Lookup: 3 0 0 "'aalt' Access All Alternates lookup 1" { "'aalt' Access All Alternates lookup 1 subtable"  } ['aalt' ('DFLT' <'dflt' > 'cyrl' <'MKD ' 'SRB ' 'dflt' > 'dev2' <'MAR ' 'NEP ' 'dflt' > 'grek' <'APPH' 'IPPH' 'dflt' > 'latn' <'APPH' 'CAT ' 'IPPH' 'MAH ' 'MOL ' 'NAV ' 'ROM ' 'dflt' > ) ]

StartChar: exclam
Encoding: 33 33 3
Width: 600
Flags: W
LayerCount: 2
Fore
SplineSet
295 112 m 0,0,1
 279 112 279 112 270 123 c 128,-1,2
 261 134 261 134 256.5 161 c 128,-1,3
 252 188 252 188 251 233.5 c 128,-1,4
 250 279 250 279 250 348 c 0,5,6
 250 445 250 445 251 499 c 128,-1,7
 252 553 252 553 258 579 c 128,-1,8
 264 605 264 605 276.5 610.5 c 128,-1,9
 289 616 289 616 312 616 c 0,10,11
 324 616 324 616 331 609 c 128,-1,12
 338 602 338 602 342.5 579 c 128,-1,13
 347 556 347 556 348.5 511 c 128,-1,14
 350 466 350 466 350 389 c 0,15,16
 350 249 350 249 340 180.5 c 128,-1,17
 330 112 330 112 295 112 c 0,0,1
282 593 m 0,18,19
 278 593 278 593 272 581 c 128,-1,20
 266 569 266 569 266 544 c 0,21,22
 266 531 266 531 267.5 518.5 c 128,-1,23
 269 506 269 506 276 506 c 0,24,25
 282 506 282 506 284 510 c 128,-1,26
 286 514 286 514 286 519.5 c 128,-1,27
 286 525 286 525 285.5 532 c 128,-1,28
 285 539 285 539 285 545 c 0,29,30
 286 562 286 562 288 577.5 c 128,-1,31
 290 593 290 593 282 593 c 0,18,19
296 -8 m 0,32,33
 277 -8 277 -8 265.5 4.5 c 128,-1,34
 254 17 254 17 254 38 c 0,35,36
 254 57 254 57 264 73.5 c 128,-1,37
 274 90 274 90 296 90 c 0,38,39
 319 90 319 90 331 74.5 c 128,-1,40
 343 59 343 59 343 38 c 0,41,42
 343 15 343 15 329.5 3.5 c 128,-1,43
 316 -8 316 -8 296 -8 c 0,32,33
278 44 m 0,44,45
 279 55 279 55 283 64 c 128,-1,46
 287 73 287 73 282 73 c 0,47,48
 275 73 275 73 270.5 58.5 c 128,-1,49
 266 44 266 44 266 33 c 0,50,51
 266 23 266 23 271 23 c 0,52,53
 275 23 275 23 276 30.5 c 128,-1,54
 277 38 277 38 278 44 c 0,44,45
EndSplineSet
Substitution2: "'smcp' Lowercase to Small Capitals lookup 39 subtable" exclam.sc
Substitution2: "'c2sc' Capitals to Small Capitals lookup 38 subtable" exclam.sc
Substitution2: "'aalt' Access All Alternates lookup 0 subtable" exclam.sc
EndChar

StartChar: quotedbl
Encoding: 34 34 4
Width: 600
Flags: W
LayerCount: 2
Fore
SplineSet
256 714 m 1,0,-1
 236 456 l 1,1,-1
 181 456 l 1,2,-1
 161 714 l 1,3,-1
 256 714 l 1,0,-1
439 714 m 1,4,-1
 419 456 l 1,5,-1
 364 456 l 1,6,-1
 344 714 l 1,7,-1
 439 714 l 1,4,-1
EndSplineSet
EndChar

StartChar: numbersign
Encoding: 35 35 5
Width: 600
Flags: W
LayerCount: 2
Fore
SplineSet
313.954101562 108 m 0,0,1
 295.954101562 108 295.954101562 108 289.454101562 120 c 128,-1,2
 282.954101562 132 282.954101562 132 281.954101562 147 c 0,3,4
 280.954101562 164 280.954101562 164 287.454101562 181 c 128,-1,5
 293.954101562 198 293.954101562 198 292.954101562 211 c 0,6,7
 292.954101562 214 292.954101562 214 285.454101562 215 c 128,-1,8
 277.954101562 216 277.954101562 216 275.954101562 216 c 2,9,-1
 244.954101562 216 l 1,10,11
 241.954101562 207 241.954101562 207 235.954101562 192 c 128,-1,12
 229.954101562 177 229.954101562 177 221.954101562 162 c 128,-1,13
 213.954101562 147 213.954101562 147 203.454101562 136.5 c 128,-1,14
 192.954101562 126 192.954101562 126 179.954101562 126 c 0,15,16
 163.954101562 126 163.954101562 126 157.454101562 136 c 128,-1,17
 150.954101562 146 150.954101562 146 149.954101562 160 c 0,18,19
 148.954101562 177 148.954101562 177 153.454101562 187.5 c 128,-1,20
 157.954101562 198 157.954101562 198 156.954101562 214 c 0,21,22
 156.954101562 222 156.954101562 222 147.454101562 222.5 c 128,-1,23
 137.954101562 223 137.954101562 223 125.954101562 225 c 128,-1,24
 113.954101562 227 113.954101562 227 103.954101562 234.5 c 128,-1,25
 93.9541015625 242 93.9541015625 242 92.9541015625 264 c 0,26,27
 92.9541015625 276 92.9541015625 276 98.9541015625 283.5 c 128,-1,28
 104.954101562 291 104.954101562 291 113.954101562 295 c 128,-1,29
 122.954101562 299 122.954101562 299 133.954101562 300.5 c 128,-1,30
 144.954101562 302 144.954101562 302 154.954101562 302 c 0,31,32
 166.954101562 302 166.954101562 302 174.454101562 309.5 c 128,-1,33
 181.954101562 317 181.954101562 317 185.954101562 328 c 128,-1,34
 189.954101562 339 189.954101562 339 192.454101562 351 c 128,-1,35
 194.954101562 363 194.954101562 363 196.954101562 372 c 1,36,37
 188.954101562 372 188.954101562 372 176.954101562 373.5 c 128,-1,38
 164.954101562 375 164.954101562 375 153.454101562 378.5 c 128,-1,39
 141.954101562 382 141.954101562 382 133.954101562 389.5 c 128,-1,40
 125.954101562 397 125.954101562 397 125.954101562 409 c 0,41,42
 124.954101562 435 124.954101562 435 139.454101562 442 c 128,-1,43
 153.954101562 449 153.954101562 449 191.954101562 449 c 0,44,45
 207.954101562 449 207.954101562 449 213.954101562 452.5 c 128,-1,46
 219.954101562 456 219.954101562 456 224.954101562 472 c 0,47,48
 227.954101562 479 227.954101562 479 230.954101562 489.5 c 128,-1,49
 233.954101562 500 233.954101562 500 239.454101562 510 c 128,-1,50
 244.954101562 520 244.954101562 520 253.954101562 527 c 128,-1,51
 262.954101562 534 262.954101562 534 277.954101562 534 c 0,52,53
 297.954101562 534 297.954101562 534 305.454101562 522 c 128,-1,54
 312.954101562 510 312.954101562 510 313.954101562 499 c 0,55,56
 313.954101562 489 313.954101562 489 310.454101562 480.5 c 128,-1,57
 306.954101562 472 306.954101562 472 307.954101562 462 c 0,58,59
 307.954101562 457 307.954101562 457 312.454101562 454.5 c 128,-1,60
 316.954101562 452 316.954101562 452 322.454101562 450.5 c 128,-1,61
 327.954101562 449 327.954101562 449 333.954101562 449 c 128,-1,62
 339.954101562 449 339.954101562 449 342.954101562 449 c 0,63,64
 352.954101562 449 352.954101562 449 358.954101562 461 c 128,-1,65
 364.954101562 473 364.954101562 473 370.954101562 488 c 128,-1,66
 376.954101562 503 376.954101562 503 384.954101562 515 c 128,-1,67
 392.954101562 527 392.954101562 527 407.954101562 527 c 0,68,69
 427.954101562 527 427.954101562 527 436.954101562 511 c 128,-1,70
 445.954101562 495 445.954101562 495 446.954101562 483 c 0,71,72
 446.954101562 475 446.954101562 475 443.954101562 467.5 c 128,-1,73
 440.954101562 460 440.954101562 460 440.954101562 451 c 0,74,75
 440.954101562 444 440.954101562 444 451.454101562 443.5 c 128,-1,76
 461.954101562 443 461.954101562 443 473.954101562 441.5 c 128,-1,77
 485.954101562 440 485.954101562 440 495.954101562 434.5 c 128,-1,78
 505.954101562 429 505.954101562 429 506.954101562 412 c 0,79,80
 507.954101562 398 507.954101562 398 497.954101562 390 c 128,-1,81
 487.954101562 382 487.954101562 382 474.454101562 377.5 c 128,-1,82
 460.954101562 373 460.954101562 373 445.954101562 371.5 c 128,-1,83
 430.954101562 370 430.954101562 370 421.954101562 370 c 1,84,85
 414.954101562 351 414.954101562 351 410.454101562 335 c 128,-1,86
 405.954101562 319 405.954101562 319 398.954101562 299 c 1,87,88
 409.954101562 299 409.954101562 299 421.954101562 299.5 c 128,-1,89
 433.954101562 300 433.954101562 300 443.954101562 297.5 c 128,-1,90
 453.954101562 295 453.954101562 295 460.454101562 288 c 128,-1,91
 466.954101562 281 466.954101562 281 467.954101562 265 c 0,92,93
 468.954101562 251 468.954101562 251 462.954101562 241.5 c 128,-1,94
 456.954101562 232 456.954101562 232 446.954101562 226 c 128,-1,95
 436.954101562 220 436.954101562 220 425.454101562 217.5 c 128,-1,96
 413.954101562 215 413.954101562 215 402.954101562 215 c 2,97,-1
 397.954101562 215 l 1,98,-1
 386.954101562 216 l 1,99,-1
 381.954101562 216 l 1,100,101
 378.954101562 204 378.954101562 204 375.454101562 186 c 128,-1,102
 371.954101562 168 371.954101562 168 365.454101562 150.5 c 128,-1,103
 358.954101562 133 358.954101562 133 346.954101562 120.5 c 128,-1,104
 334.954101562 108 334.954101562 108 313.954101562 108 c 0,0,1
245.954101562 457 m 0,105,106
 248.954101562 457 248.954101562 457 252.954101562 463 c 128,-1,107
 256.954101562 469 256.954101562 469 260.454101562 476.5 c 128,-1,108
 263.954101562 484 263.954101562 484 266.954101562 492 c 128,-1,109
 269.954101562 500 269.954101562 500 269.954101562 503 c 0,110,111
 269.954101562 508 269.954101562 508 264.954101562 508 c 0,112,113
 260.954101562 509 260.954101562 509 256.454101562 504 c 128,-1,114
 251.954101562 499 251.954101562 499 248.454101562 492 c 128,-1,115
 244.954101562 485 244.954101562 485 242.454101562 477.5 c 128,-1,116
 239.954101562 470 239.954101562 470 239.954101562 466 c 0,117,118
 239.954101562 463 239.954101562 463 241.954101562 460 c 128,-1,119
 243.954101562 457 243.954101562 457 245.954101562 457 c 0,105,106
143.954101562 404 m 0,120,121
 148.954101562 404 148.954101562 404 151.954101562 415 c 128,-1,122
 154.954101562 426 154.954101562 426 153.954101562 430 c 0,123,124
 153.954101562 434 153.954101562 434 150.954101562 434 c 0,125,126
 145.954101562 436 145.954101562 436 141.454101562 429 c 128,-1,127
 136.954101562 422 136.954101562 422 137.954101562 416 c 0,128,129
 137.954101562 404 137.954101562 404 143.954101562 404 c 0,120,121
290.954101562 298 m 0,130,131
 301.954101562 298 301.954101562 298 309.954101562 305.5 c 128,-1,132
 317.954101562 313 317.954101562 313 322.954101562 323.5 c 128,-1,133
 327.954101562 334 327.954101562 334 329.954101562 345.5 c 128,-1,134
 331.954101562 357 331.954101562 357 331.954101562 366 c 0,135,136
 331.954101562 369 331.954101562 369 330.954101562 372 c 128,-1,137
 329.954101562 375 329.954101562 375 325.954101562 375 c 0,138,139
 302.954101562 375 302.954101562 375 293.954101562 369 c 128,-1,140
 284.954101562 363 284.954101562 363 276.954101562 342 c 0,141,142
 274.954101562 336 274.954101562 336 270.454101562 323 c 128,-1,143
 265.954101562 310 265.954101562 310 266.954101562 304 c 2,144,-1
 266.954101562 303 l 1,145,146
 271.954101562 300 271.954101562 300 278.454101562 299 c 128,-1,147
 284.954101562 298 284.954101562 298 290.954101562 298 c 0,130,131
125.954101562 279 m 0,148,149
 125.954101562 285 125.954101562 285 118.954101562 285 c 0,150,151
 109.954101562 285 109.954101562 285 106.954101562 273 c 128,-1,152
 103.954101562 261 103.954101562 261 105.954101562 256 c 256,153,154
 107.954101562 251 107.954101562 251 109.954101562 250 c 0,155,156
 111.954101562 250 111.954101562 250 114.954101562 253.5 c 128,-1,157
 117.954101562 257 117.954101562 257 120.454101562 262 c 128,-1,158
 122.954101562 267 122.954101562 267 124.454101562 272 c 128,-1,159
 125.954101562 277 125.954101562 277 125.954101562 279 c 0,148,149
EndSplineSet
EndChar

StartChar: dollar
Encoding: 36 36 6
Width: 600
Flags: W
LayerCount: 2
Fore
SplineSet
291.5 -41 m 256,0,1
 280.5 -41 280.5 -41 274.5 -32.5 c 128,-1,2
 268.5 -24 268.5 -24 266 -12 c 128,-1,3
 263.5 0 263.5 0 263.5 13.5 c 128,-1,4
 263.5 27 263.5 27 263.5 37 c 2,5,-1
 263.5 95 l 1,6,7
 219.5 95 219.5 95 189.5 114.5 c 128,-1,8
 159.5 134 159.5 134 159.5 163 c 0,9,10
 159.5 181 159.5 181 170 187.5 c 128,-1,11
 180.5 194 180.5 194 191.5 194 c 0,12,13
 213.5 194 213.5 194 235.5 186 c 128,-1,14
 257.5 178 257.5 178 287.5 178 c 0,15,16
 296.5 178 296.5 178 308 181 c 128,-1,17
 319.5 184 319.5 184 329.5 190 c 128,-1,18
 339.5 196 339.5 196 346.5 204.5 c 128,-1,19
 353.5 213 353.5 213 353.5 225 c 0,20,21
 353.5 248 353.5 248 334.5 260 c 128,-1,22
 315.5 272 315.5 272 285.5 272 c 0,23,24
 225.5 272 225.5 272 191 303.5 c 128,-1,25
 156.5 335 156.5 335 156.5 401 c 0,26,27
 156.5 460 156.5 460 186 497 c 128,-1,28
 215.5 534 215.5 534 263.5 542 c 1,29,-1
 263.5 587 l 2,30,31
 263.5 594 263.5 594 263 608.5 c 128,-1,32
 262.5 623 262.5 623 264.5 637.5 c 128,-1,33
 266.5 652 266.5 652 273 663 c 128,-1,34
 279.5 674 279.5 674 292.5 674 c 256,35,36
 305.5 674 305.5 674 311.5 647 c 128,-1,37
 317.5 620 317.5 620 317.5 572 c 0,38,39
 317.5 552 317.5 552 319.5 547 c 128,-1,40
 321.5 542 321.5 542 333.5 542 c 256,41,42
 345.5 542 345.5 542 358 538 c 128,-1,43
 370.5 534 370.5 534 381 526.5 c 128,-1,44
 391.5 519 391.5 519 398 508.5 c 128,-1,45
 404.5 498 404.5 498 404.5 485 c 256,46,47
 404.5 472 404.5 472 398.5 467.5 c 128,-1,48
 392.5 463 392.5 463 382 462 c 128,-1,49
 371.5 461 371.5 461 356.5 462.5 c 128,-1,50
 341.5 464 341.5 464 323.5 464 c 0,51,52
 285.5 464 285.5 464 271.5 447.5 c 128,-1,53
 257.5 431 257.5 431 257.5 404 c 0,54,55
 257.5 391 257.5 391 263.5 382.5 c 128,-1,56
 269.5 374 269.5 374 278.5 369.5 c 128,-1,57
 287.5 365 287.5 365 297 362.5 c 128,-1,58
 306.5 360 306.5 360 313.5 359 c 0,59,60
 342.5 355 342.5 355 366.5 346.5 c 128,-1,61
 390.5 338 390.5 338 407.5 323 c 128,-1,62
 424.5 308 424.5 308 434 285 c 128,-1,63
 443.5 262 443.5 262 443.5 230 c 0,64,65
 443.5 172 443.5 172 408.5 137 c 128,-1,66
 373.5 102 373.5 102 317.5 97 c 1,67,-1
 317.5 37 l 2,68,69
 317.5 28 317.5 28 317.5 14.5 c 128,-1,70
 317.5 1 317.5 1 315.5 -11.5 c 128,-1,71
 313.5 -24 313.5 -24 308 -32.5 c 128,-1,72
 302.5 -41 302.5 -41 291.5 -41 c 256,0,1
219.5 476 m 0,73,74
 225.5 485 225.5 485 234.5 490 c 128,-1,75
 243.5 495 243.5 495 243.5 503 c 0,76,77
 243.5 509 243.5 509 236.5 509 c 0,78,79
 228.5 509 228.5 509 220.5 503 c 128,-1,80
 212.5 497 212.5 497 206.5 488.5 c 128,-1,81
 200.5 480 200.5 480 196.5 470.5 c 128,-1,82
 192.5 461 192.5 461 192.5 453 c 0,83,84
 192.5 446 192.5 446 196.5 446 c 0,85,86
 203.5 446 203.5 446 209 457 c 128,-1,87
 214.5 468 214.5 468 219.5 476 c 0,73,74
201.5 425 m 0,88,89
 201.5 434 201.5 434 192.5 434 c 0,90,91
 187.5 434 187.5 434 186 429.5 c 128,-1,92
 184.5 425 184.5 425 186.5 419 c 256,93,94
 188.5 413 188.5 413 193.5 413 c 256,95,96
 198.5 413 198.5 413 200 416.5 c 128,-1,97
 201.5 420 201.5 420 201.5 425 c 0,88,89
EndSplineSet
EndChar

StartChar: percent
Encoding: 37 37 7
Width: 600
Flags: W
LayerCount: 2
Fore
SplineSet
300 453 m 0,0,1
 275 453 275 453 257.5 470.5 c 128,-1,2
 240 488 240 488 240 513 c 0,3,4
 240 539 240 539 258 556 c 128,-1,5
 276 573 276 573 300 573 c 0,6,7
 325 573 325 573 342.5 555.5 c 128,-1,8
 360 538 360 538 360 513 c 0,9,10
 360 489 360 489 343 471 c 128,-1,11
 326 453 326 453 300 453 c 0,0,1
65 287 m 1,12,-1
 65 365 l 1,13,14
 113 418 113 418 184 418 c 0,15,16
 243 418 243 418 310 389 c 0,17,18
 343 375 343 375 370.5 367 c 128,-1,19
 398 359 398 359 420 359 c 0,20,21
 446 359 446 359 477.5 374.5 c 128,-1,22
 509 390 509 390 535 418 c 1,23,-1
 535 341 l 1,24,25
 486 287 486 287 415 287 c 0,26,27
 353 287 353 287 288 317 c 0,28,29
 224 346 224 346 178 346 c 0,30,31
 152 346 152 346 122 330.5 c 128,-1,32
 92 315 92 315 65 287 c 1,12,-1
300 132 m 0,33,34
 276 132 276 132 258 149.5 c 128,-1,35
 240 167 240 167 240 192 c 256,36,37
 240 217 240 217 257.5 234.5 c 128,-1,38
 275 252 275 252 300 252 c 0,39,40
 326 252 326 252 343 233.5 c 128,-1,41
 360 215 360 215 360 192 c 0,42,43
 360 167 360 167 342.5 149.5 c 128,-1,44
 325 132 325 132 300 132 c 0,33,34
EndSplineSet
EndChar

StartChar: ampersand
Encoding: 38 38 8
Width: 600
Flags: W
LayerCount: 2
Fore
SplineSet
262.5 -6 m 0,0,1
 165.5 -6 165.5 -6 113.5 46.5 c 128,-1,2
 61.5 99 61.5 99 61.5 193 c 0,3,4
 61.5 254 61.5 254 80.5 291 c 128,-1,5
 99.5 328 99.5 328 122 349 c 128,-1,6
 144.5 370 144.5 370 163 379 c 128,-1,7
 181.5 388 181.5 388 181.5 393 c 0,8,9
 181.5 397 181.5 397 176.5 407 c 128,-1,10
 171.5 417 171.5 417 166 430.5 c 128,-1,11
 160.5 444 160.5 444 155.5 460.5 c 128,-1,12
 150.5 477 150.5 477 150.5 495 c 0,13,14
 150.5 552 150.5 552 189 587 c 128,-1,15
 227.5 622 227.5 622 290.5 622 c 0,16,17
 332.5 622 332.5 622 363.5 604.5 c 128,-1,18
 394.5 587 394.5 587 404.5 567 c 0,19,20
 407.5 562 407.5 562 406 552 c 128,-1,21
 404.5 542 404.5 542 400 532.5 c 128,-1,22
 395.5 523 395.5 523 387.5 515.5 c 128,-1,23
 379.5 508 379.5 508 367.5 508 c 256,24,25
 355.5 508 355.5 508 347.5 512.5 c 128,-1,26
 339.5 517 339.5 517 332.5 522.5 c 128,-1,27
 325.5 528 325.5 528 318 532.5 c 128,-1,28
 310.5 537 310.5 537 301.5 537 c 0,29,30
 282.5 537 282.5 537 270 523.5 c 128,-1,31
 257.5 510 257.5 510 257.5 481 c 0,32,33
 257.5 463 257.5 463 272 434 c 128,-1,34
 286.5 405 286.5 405 310 369 c 128,-1,35
 333.5 333 333.5 333 362.5 293 c 128,-1,36
 391.5 253 391.5 253 420.5 214 c 1,37,38
 432.5 238 432.5 238 441.5 265 c 0,39,40
 446.5 282 446.5 282 458.5 290.5 c 128,-1,41
 470.5 299 470.5 299 483.5 299 c 256,42,43
 496.5 299 496.5 299 506.5 289.5 c 128,-1,44
 516.5 280 516.5 280 516.5 260 c 0,45,46
 516.5 248 516.5 248 511.5 232.5 c 128,-1,47
 506.5 217 506.5 217 499 201 c 128,-1,48
 491.5 185 491.5 185 483.5 170 c 128,-1,49
 475.5 155 475.5 155 469.5 146 c 1,50,51
 499.5 104 499.5 104 519 71.5 c 128,-1,52
 538.5 39 538.5 39 538.5 23 c 0,53,54
 538.5 13 538.5 13 533 6 c 128,-1,55
 527.5 -1 527.5 -1 519.5 -5 c 128,-1,56
 511.5 -9 511.5 -9 501.5 -10.5 c 128,-1,57
 491.5 -12 491.5 -12 483.5 -12 c 0,58,59
 474.5 -12 474.5 -12 454.5 10.5 c 128,-1,60
 434.5 33 434.5 33 408.5 67 c 1,61,62
 376.5 35 376.5 35 340 14.5 c 128,-1,63
 303.5 -6 303.5 -6 262.5 -6 c 0,0,1
184.5 499 m 0,64,65
 191.5 499 191.5 499 195 509.5 c 128,-1,66
 198.5 520 198.5 520 200.5 525 c 0,67,68
 205.5 537 205.5 537 211.5 548.5 c 128,-1,69
 217.5 560 217.5 560 226.5 570 c 0,70,71
 227.5 572 227.5 572 234.5 579 c 128,-1,72
 241.5 586 241.5 586 241.5 588 c 256,73,74
 241.5 590 241.5 590 240.5 590 c 0,75,76
 230.5 590 230.5 590 219.5 580 c 128,-1,77
 208.5 570 208.5 570 200 556 c 128,-1,78
 191.5 542 191.5 542 186 528.5 c 128,-1,79
 180.5 515 180.5 515 180.5 507 c 0,80,81
 180.5 505 180.5 505 181.5 502 c 128,-1,82
 182.5 499 182.5 499 184.5 499 c 0,64,65
194.5 472 m 256,83,84
 194.5 474 194.5 474 194 477 c 128,-1,85
 193.5 480 193.5 480 188.5 480 c 0,86,87
 184.5 480 184.5 480 182.5 477 c 128,-1,88
 180.5 474 180.5 474 180.5 472 c 0,89,90
 180.5 464 180.5 464 187.5 464 c 0,91,92
 191.5 464 191.5 464 193 467 c 128,-1,93
 194.5 470 194.5 470 194.5 472 c 256,83,84
359.5 134 m 1,94,95
 336.5 166 336.5 166 313.5 198 c 128,-1,96
 290.5 230 290.5 230 272 255 c 128,-1,97
 253.5 280 253.5 280 240 295.5 c 128,-1,98
 226.5 311 226.5 311 221.5 311 c 0,99,100
 208.5 311 208.5 311 196 301 c 128,-1,101
 183.5 291 183.5 291 174.5 275.5 c 128,-1,102
 165.5 260 165.5 260 160 241 c 128,-1,103
 154.5 222 154.5 222 154.5 204 c 0,104,105
 154.5 183 154.5 183 162.5 162.5 c 128,-1,106
 170.5 142 170.5 142 185 126 c 128,-1,107
 199.5 110 199.5 110 220.5 100.5 c 128,-1,108
 241.5 91 241.5 91 266.5 91 c 0,109,110
 311.5 91 311.5 91 359.5 134 c 1,94,95
105.5 126 m 0,111,112
 110.5 130 110.5 130 108 140.5 c 128,-1,113
 105.5 151 105.5 151 103.5 156 c 0,114,115
 99.5 169 99.5 169 97.5 183.5 c 128,-1,116
 95.5 198 95.5 198 101.5 218 c 0,117,118
 106.5 232 106.5 232 103.5 236 c 128,-1,119
 100.5 240 100.5 240 98.5 238 c 0,120,121
 89.5 232 89.5 232 86 217.5 c 128,-1,122
 82.5 203 82.5 203 82.5 186.5 c 128,-1,123
 82.5 170 82.5 170 86.5 154.5 c 128,-1,124
 90.5 139 90.5 139 97.5 130 c 0,125,126
 98.5 128 98.5 128 101 126 c 128,-1,127
 103.5 124 103.5 124 105.5 126 c 0,111,112
EndSplineSet
Substitution2: "'smcp' Lowercase to Small Capitals lookup 39 subtable" ampersand.sc
Substitution2: "'c2sc' Capitals to Small Capitals lookup 38 subtable" ampersand.sc
Substitution2: "'aalt' Access All Alternates lookup 0 subtable" ampersand.sc
EndChar

StartChar: quotesingle
Encoding: 39 39 9
Width: 600
Flags: W
LayerCount: 2
Fore
SplineSet
347.5 714 m 1,0,-1
 327.5 456 l 1,1,-1
 272.5 456 l 1,2,-1
 252.5 714 l 1,3,-1
 347.5 714 l 1,0,-1
EndSplineSet
EndChar

StartChar: parenleft
Encoding: 40 40 10
Width: 600
Flags: W
LayerCount: 2
Fore
SplineSet
364.5 -72 m 0,0,1
 310.5 -51 310.5 -51 274 -13 c 128,-1,2
 237.5 25 237.5 25 215 71.5 c 128,-1,3
 192.5 118 192.5 118 182.5 169.5 c 128,-1,4
 172.5 221 172.5 221 172.5 269 c 0,5,6
 172.5 315 172.5 315 181 363 c 128,-1,7
 189.5 411 189.5 411 205 456 c 128,-1,8
 220.5 501 220.5 501 243.5 540.5 c 128,-1,9
 266.5 580 266.5 580 294.5 609 c 0,10,11
 321.5 636 321.5 636 346.5 654 c 128,-1,12
 371.5 672 371.5 672 391.5 672 c 0,13,14
 406.5 672 406.5 672 415.5 660 c 128,-1,15
 424.5 648 424.5 648 424.5 636 c 0,16,17
 424.5 628 424.5 628 412 617 c 128,-1,18
 399.5 606 399.5 606 376.5 582 c 0,19,20
 346.5 550 346.5 550 326.5 512 c 128,-1,21
 306.5 474 306.5 474 294.5 433.5 c 128,-1,22
 282.5 393 282.5 393 278 351.5 c 128,-1,23
 273.5 310 273.5 310 273.5 272 c 256,24,25
 273.5 234 273.5 234 279.5 192.5 c 128,-1,26
 285.5 151 285.5 151 299.5 113 c 128,-1,27
 313.5 75 313.5 75 336.5 43.5 c 128,-1,28
 359.5 12 359.5 12 393.5 -7 c 0,29,30
 410.5 -16 410.5 -16 419 -22.5 c 128,-1,31
 427.5 -29 427.5 -29 427.5 -43 c 0,32,33
 427.5 -56 427.5 -56 414.5 -66 c 128,-1,34
 401.5 -76 401.5 -76 384.5 -76 c 0,35,36
 373.5 -76 373.5 -76 364.5 -72 c 0,0,1
350.5 620 m 0,37,38
 355.5 625 355.5 625 361.5 630.5 c 128,-1,39
 367.5 636 367.5 636 360.5 636 c 0,40,41
 352.5 636 352.5 636 342 628.5 c 128,-1,42
 331.5 621 331.5 621 321.5 611 c 128,-1,43
 311.5 601 311.5 601 305 590.5 c 128,-1,44
 298.5 580 298.5 580 298.5 574 c 0,45,46
 298.5 569 298.5 569 302.5 569 c 0,47,48
 307.5 569 307.5 569 312 575.5 c 128,-1,49
 316.5 582 316.5 582 319.5 587 c 0,50,51
 323.5 594 323.5 594 330.5 601.5 c 128,-1,52
 337.5 609 337.5 609 350.5 620 c 0,37,38
292.5 547 m 0,53,54
 292.5 555 292.5 555 286.5 555 c 0,55,56
 274.5 555 274.5 555 274.5 547 c 0,57,58
 274.5 541 274.5 541 277.5 539.5 c 128,-1,59
 280.5 538 280.5 538 282.5 538 c 256,60,61
 284.5 538 284.5 538 288.5 539.5 c 128,-1,62
 292.5 541 292.5 541 292.5 547 c 0,53,54
EndSplineSet
Substitution2: "'smcp' Lowercase to Small Capitals lookup 39 subtable" parenleft.sc
Substitution2: "'c2sc' Capitals to Small Capitals lookup 38 subtable" parenleft.sc
Substitution2: "'sups' Superscript lookup 25 subtable" uni207D
Substitution2: "'sinf' Scientific Inferiors lookup 24 subtable" uni208D
Substitution2: "'subs' Subscript lookup 23 subtable" uni208D
AlternateSubs2: "'aalt' Access All Alternates lookup 1 subtable" uni208D uni207D parenleft.sc
EndChar

StartChar: parenright
Encoding: 41 41 11
Width: 600
Flags: W
LayerCount: 2
Fore
SplineSet
229 -93 m 0,0,1
 215 -93 215 -93 202.5 -84.5 c 128,-1,2
 190 -76 190 -76 190 -66 c 0,3,4
 190 -57 190 -57 200 -43 c 128,-1,5
 210 -29 210 -29 224.5 -8.5 c 128,-1,6
 239 12 239 12 256.5 41 c 128,-1,7
 274 70 274 70 288.5 108 c 128,-1,8
 303 146 303 146 313 195 c 128,-1,9
 323 244 323 244 323 305 c 0,10,11
 323 352 323 352 315.5 398.5 c 128,-1,12
 308 445 308 445 294 484 c 128,-1,13
 280 523 280 523 260.5 552 c 128,-1,14
 241 581 241 581 217 594 c 0,15,16
 205 601 205 601 191 610.5 c 128,-1,17
 177 620 177 620 177 638 c 0,18,19
 177 653 177 653 190 662.5 c 128,-1,20
 203 672 203 672 224 672 c 0,21,22
 261 672 261 672 297 646 c 128,-1,23
 333 620 333 620 361 572 c 128,-1,24
 389 524 389 524 406 455.5 c 128,-1,25
 423 387 423 387 423 302 c 0,26,27
 423 227 423 227 414.5 175 c 128,-1,28
 406 123 406 123 390.5 85 c 128,-1,29
 375 47 375 47 354 17 c 128,-1,30
 333 -13 333 -13 308 -44 c 0,31,32
 285 -73 285 -73 265.5 -83 c 128,-1,33
 246 -93 246 -93 229 -93 c 0,0,1
197 621 m 0,34,35
 201 621 201 621 204.5 628.5 c 128,-1,36
 208 636 208 636 208 644 c 0,37,38
 208 657 208 657 201 657 c 0,39,40
 197 657 197 657 193.5 649.5 c 128,-1,41
 190 642 190 642 190 634 c 0,42,43
 190 621 190 621 197 621 c 0,34,35
224 -60 m 256,44,45
 229 -50 229 -50 229.5 -40 c 128,-1,46
 230 -30 230 -30 226 -29 c 0,47,48
 224 -29 224 -29 220.5 -33 c 128,-1,49
 217 -37 217 -37 213.5 -43 c 128,-1,50
 210 -49 210 -49 207.5 -55 c 128,-1,51
 205 -61 205 -61 205 -64 c 0,52,53
 205 -72 205 -72 209 -73 c 0,54,55
 212 -74 212 -74 215.5 -72 c 128,-1,56
 219 -70 219 -70 224 -60 c 256,44,45
EndSplineSet
Substitution2: "'smcp' Lowercase to Small Capitals lookup 39 subtable" parenright.sc
Substitution2: "'c2sc' Capitals to Small Capitals lookup 38 subtable" parenright.sc
Substitution2: "'sups' Superscript lookup 25 subtable" uni207E
Substitution2: "'sinf' Scientific Inferiors lookup 24 subtable" uni208E
Substitution2: "'subs' Subscript lookup 23 subtable" uni208E
AlternateSubs2: "'aalt' Access All Alternates lookup 1 subtable" uni208E uni207E parenright.sc
EndChar

StartChar: asterisk
Encoding: 42 42 12
Width: 600
Flags: W
LayerCount: 2
Fore
SplineSet
347.5 760 m 1,0,-1
 327.5 568 l 1,1,-1
 519.5 622 l 1,2,-1
 533.5 530 l 1,3,-1
 349.5 515 l 1,4,-1
 468.5 357 l 1,5,-1
 382.5 310 l 1,6,-1
 297.5 485 l 1,7,-1
 220.5 310 l 1,8,-1
 131.5 357 l 1,9,-1
 248.5 515 l 1,10,-1
 66.5 530 l 1,11,-1
 80.5 622 l 1,12,-1
 270.5 568 l 1,13,-1
 249.5 760 l 1,14,-1
 347.5 760 l 1,0,-1
EndSplineSet
EndChar

StartChar: plus
Encoding: 43 43 13
Width: 600
Flags: W
LayerCount: 2
Fore
SplineSet
336 388 m 1,0,-1
 535 388 l 1,1,-1
 535 317 l 1,2,-1
 336 317 l 1,3,-1
 336 111 l 1,4,-1
 264 111 l 1,5,-1
 264 317 l 1,6,-1
 65 317 l 1,7,-1
 65 388 l 1,8,-1
 264 388 l 1,9,-1
 264 595 l 1,10,-1
 336 595 l 1,11,-1
 336 388 l 1,0,-1
EndSplineSet
Substitution2: "'sups' Superscript lookup 25 subtable" uni207A
Substitution2: "'sinf' Scientific Inferiors lookup 24 subtable" uni208A
Substitution2: "'subs' Subscript lookup 23 subtable" uni208A
AlternateSubs2: "'aalt' Access All Alternates lookup 1 subtable" uni208A uni207A
EndChar

StartChar: comma
Encoding: 44 44 14
Width: 600
Flags: W
LayerCount: 2
Fore
SplineSet
375.5 105 m 1,0,1
 366.5 70 366.5 70 352.5 29 c 128,-1,2
 338.5 -12 338.5 -12 322 -52.5 c 128,-1,3
 305.5 -93 305.5 -93 289.5 -129 c 1,4,-1
 224.5 -129 l 1,5,6
 234.5 -91 234.5 -91 244 -47.5 c 128,-1,7
 253.5 -4 253.5 -4 261.5 38.5 c 128,-1,8
 269.5 81 269.5 81 274.5 116 c 1,9,-1
 368.5 116 l 1,10,-1
 375.5 105 l 1,0,1
EndSplineSet
EndChar

StartChar: hyphen
Encoding: 45 45 15
Width: 600
Flags: W
LayerCount: 2
Fore
SplineSet
179 229 m 1,0,-1
 179 307 l 1,1,-1
 421 307 l 1,2,-1
 421 229 l 1,3,-1
 179 229 l 1,0,-1
EndSplineSet
EndChar

StartChar: period
Encoding: 46 46 16
Width: 600
Flags: W
LayerCount: 2
Fore
SplineSet
294.5 -8 m 0,0,1
 254.5 -8 254.5 -8 226 20 c 128,-1,2
 197.5 48 197.5 48 197.5 92 c 0,3,4
 197.5 116 197.5 116 206 137.5 c 128,-1,5
 214.5 159 214.5 159 229.5 174.5 c 128,-1,6
 244.5 190 244.5 190 265.5 199.5 c 128,-1,7
 286.5 209 286.5 209 311.5 209 c 0,8,9
 331.5 209 331.5 209 348.5 200.5 c 128,-1,10
 365.5 192 365.5 192 377.5 177 c 128,-1,11
 389.5 162 389.5 162 396 143 c 128,-1,12
 402.5 124 402.5 124 402.5 103 c 0,13,14
 402.5 76 402.5 76 394 55.5 c 128,-1,15
 385.5 35 385.5 35 370.5 21 c 128,-1,16
 355.5 7 355.5 7 336 -0.5 c 128,-1,17
 316.5 -8 316.5 -8 294.5 -8 c 0,0,1
257.5 165 m 0,18,19
 264.5 172 264.5 172 266 177 c 128,-1,20
 267.5 182 267.5 182 265.5 182 c 0,21,22
 257.5 182 257.5 182 248.5 174.5 c 128,-1,23
 239.5 167 239.5 167 232 156.5 c 128,-1,24
 224.5 146 224.5 146 219.5 134 c 128,-1,25
 214.5 122 214.5 122 214.5 112 c 0,26,27
 214.5 110 214.5 110 216 104 c 128,-1,28
 217.5 98 217.5 98 220.5 98 c 0,29,30
 224.5 98 224.5 98 230.5 120 c 0,31,32
 233.5 134 233.5 134 241.5 145.5 c 128,-1,33
 249.5 157 249.5 157 257.5 165 c 0,18,19
298.5 49 m 0,34,35
 310.5 49 310.5 49 327 63 c 128,-1,36
 343.5 77 343.5 77 343.5 103 c 0,37,38
 343.5 123 343.5 123 333 136.5 c 128,-1,39
 322.5 150 322.5 150 305.5 150 c 256,40,41
 288.5 150 288.5 150 274.5 136.5 c 128,-1,42
 260.5 123 260.5 123 260.5 99 c 256,43,44
 260.5 75 260.5 75 271.5 62 c 128,-1,45
 282.5 49 282.5 49 298.5 49 c 0,34,35
EndSplineSet
EndChar

StartChar: slash
Encoding: 47 47 17
Width: 600
Flags: W
LayerCount: 2
Fore
SplineSet
186.5 -77 m 0,0,1
 182.5 -77 182.5 -77 171 -75 c 128,-1,2
 159.5 -73 159.5 -73 147.5 -68.5 c 128,-1,3
 135.5 -64 135.5 -64 126.5 -57 c 128,-1,4
 117.5 -50 117.5 -50 117.5 -41 c 0,5,6
 117.5 -38 117.5 -38 128 -9.5 c 128,-1,7
 138.5 19 138.5 19 155.5 64 c 128,-1,8
 172.5 109 172.5 109 195 166 c 128,-1,9
 217.5 223 217.5 223 241.5 283 c 128,-1,10
 265.5 343 265.5 343 289.5 402 c 128,-1,11
 313.5 461 313.5 461 333.5 509.5 c 128,-1,12
 353.5 558 353.5 558 368.5 592 c 128,-1,13
 383.5 626 383.5 626 389.5 636 c 0,14,15
 396.5 647 396.5 647 408 656.5 c 128,-1,16
 419.5 666 419.5 666 433.5 666 c 0,17,18
 440.5 666 440.5 666 449 663.5 c 128,-1,19
 457.5 661 457.5 661 465 656.5 c 128,-1,20
 472.5 652 472.5 652 477.5 646 c 128,-1,21
 482.5 640 482.5 640 482.5 633 c 0,22,23
 482.5 625 482.5 625 474 599.5 c 128,-1,24
 465.5 574 465.5 574 454 544.5 c 128,-1,25
 442.5 515 442.5 515 431 487.5 c 128,-1,26
 419.5 460 419.5 460 413.5 447 c 0,27,28
 409.5 438 409.5 438 398.5 410.5 c 128,-1,29
 387.5 383 387.5 383 372.5 344.5 c 128,-1,30
 357.5 306 357.5 306 339.5 259.5 c 128,-1,31
 321.5 213 321.5 213 302.5 166.5 c 128,-1,32
 283.5 120 283.5 120 265 76 c 128,-1,33
 246.5 32 246.5 32 231 -2 c 128,-1,34
 215.5 -36 215.5 -36 203.5 -56.5 c 128,-1,35
 191.5 -77 191.5 -77 186.5 -77 c 0,0,1
161.5 -37 m 4,36,37
 165.5 -25 165.5 -25 173.5 -7 c 132,-1,38
 181.5 11 181.5 11 188.5 27.5 c 132,-1,39
 195.5 44 195.5 44 199 56.5 c 132,-1,40
 202.5 69 202.5 69 197.5 70 c 4,41,42
 195.5 71 195.5 71 190.5 71 c 132,-1,43
 185.5 71 185.5 71 182.5 66 c 4,44,45
 180.5 62 180.5 62 174 48.5 c 132,-1,46
 167.5 35 167.5 35 161 19.5 c 132,-1,47
 154.5 4 154.5 4 149.5 -10.5 c 132,-1,48
 144.5 -25 144.5 -25 144.5 -31 c 4,49,50
 144.5 -38 144.5 -38 152 -40 c 132,-1,51
 159.5 -42 159.5 -42 161.5 -37 c 4,36,37
EndSplineSet
Substitution2: "'frac' Diagonal Fractions lookup 28 subtable" fraction
Substitution2: "'aalt' Access All Alternates lookup 0 subtable" fraction
EndChar

StartChar: zero
Encoding: 48 48 18
Width: 600
Flags: W
LayerCount: 2
Fore
SplineSet
305 -17 m 0,0,1
 253 -17 253 -17 218.5 11.5 c 128,-1,2
 184 40 184 40 163 86 c 128,-1,3
 142 132 142 132 133.5 190 c 128,-1,4
 125 248 125 248 125 307 c 256,5,6
 125 366 125 366 135 422.5 c 128,-1,7
 145 479 145 479 167.5 523 c 128,-1,8
 190 567 190 567 226 594 c 128,-1,9
 262 621 262 621 313 621 c 0,10,11
 347 621 347 621 372 604 c 128,-1,12
 397 587 397 587 415 560 c 128,-1,13
 433 533 433 533 445 499 c 128,-1,14
 457 465 457 465 463.5 430 c 128,-1,15
 470 395 470 395 472.5 362.5 c 128,-1,16
 475 330 475 330 475 307 c 0,17,18
 475 258 475 258 466 201 c 128,-1,19
 457 144 457 144 437 95.5 c 128,-1,20
 417 47 417 47 384.5 15 c 128,-1,21
 352 -17 352 -17 305 -17 c 0,0,1
198 512 m 0,22,23
 207 531 207 531 212 540.5 c 128,-1,24
 217 550 217 550 217 553 c 0,25,26
 217 555 217 555 213 555.5 c 128,-1,27
 209 556 209 556 204 549 c 0,28,29
 200 543 200 543 193 530.5 c 128,-1,30
 186 518 186 518 179 504 c 128,-1,31
 172 490 172 490 167.5 476.5 c 128,-1,32
 163 463 163 463 163 456 c 256,33,34
 163 449 163 449 168 451 c 128,-1,35
 173 453 173 453 176 460 c 0,36,37
 179 468 179 468 184 481 c 128,-1,38
 189 494 189 494 198 512 c 0,22,23
306 59 m 0,39,40
 337 59 337 59 355 85 c 128,-1,41
 373 111 373 111 382.5 150 c 128,-1,42
 392 189 392 189 394.5 234 c 128,-1,43
 397 279 397 279 397 316 c 0,44,45
 397 339 397 339 394 377 c 128,-1,46
 391 415 391 415 382 451.5 c 128,-1,47
 373 488 373 488 356.5 514.5 c 128,-1,48
 340 541 340 541 313 541 c 0,49,50
 291 541 291 541 275 514 c 128,-1,51
 259 487 259 487 248.5 449.5 c 128,-1,52
 238 412 238 412 233 371 c 128,-1,53
 228 330 228 330 228 301 c 0,54,55
 228 286 228 286 228 262.5 c 128,-1,56
 228 239 228 239 230 212 c 128,-1,57
 232 185 232 185 236.5 158 c 128,-1,58
 241 131 241 131 249.5 109 c 128,-1,59
 258 87 258 87 272 73 c 128,-1,60
 286 59 286 59 306 59 c 0,39,40
EndSplineSet
Substitution2: "'zero' Slashed Zero lookup 43 subtable" zero.slash
Substitution2: "'case' Case-Sensitive Forms lookup 40 subtable" zero.lf
Substitution2: "'onum' Oldstyle Figures lookup 37 subtable" zero.tosf
Substitution2: "'pnum' Proportional Numbers lookup 35 subtable" zero.lf
Substitution2: "'frac' Diagonal Fractions lookup 29 subtable" zero.numr
Substitution2: "'dnom' Denominators lookup 27 subtable" zero.dnom
Substitution2: "'numr' Numerators lookup 26 subtable" zero.numr
Substitution2: "'sups' Superscript lookup 25 subtable" uni2070
Substitution2: "'sinf' Scientific Inferiors lookup 24 subtable" uni2080
Substitution2: "'subs' Subscript lookup 23 subtable" uni2080
AlternateSubs2: "'aalt' Access All Alternates lookup 1 subtable" uni2070 zero.tosf zero.lf zero.slash uni2080 zero.dnom zero.numr
EndChar

StartChar: one
Encoding: 49 49 19
Width: 600
Flags: W
LayerCount: 2
Fore
SplineSet
349.5 0 m 0,0,1
 304.5 0 304.5 0 304.5 47 c 2,2,-1
 304.5 450 l 2,3,4
 304.5 459 304.5 459 304 466 c 128,-1,5
 303.5 473 303.5 473 301.5 473 c 0,6,7
 298.5 473 298.5 473 292.5 465.5 c 128,-1,8
 286.5 458 286.5 458 279 448.5 c 128,-1,9
 271.5 439 271.5 439 263 429.5 c 128,-1,10
 254.5 420 254.5 420 246.5 416 c 0,11,12
 237.5 411 237.5 411 227.5 411 c 0,13,14
 213.5 411 213.5 411 204.5 421 c 128,-1,15
 195.5 431 195.5 431 195.5 445 c 0,16,17
 195.5 450 195.5 450 205 463 c 128,-1,18
 214.5 476 214.5 476 221.5 486 c 0,19,20
 230.5 499 230.5 499 248.5 521 c 128,-1,21
 266.5 543 266.5 543 287 564 c 128,-1,22
 307.5 585 307.5 585 326.5 600.5 c 128,-1,23
 345.5 616 345.5 616 357.5 616 c 0,24,25
 363.5 616 363.5 616 371.5 615 c 128,-1,26
 379.5 614 379.5 614 387 611 c 128,-1,27
 394.5 608 394.5 608 399.5 602.5 c 128,-1,28
 404.5 597 404.5 597 404.5 587 c 2,29,-1
 404.5 48 l 2,30,31
 404.5 30 404.5 30 388 15 c 128,-1,32
 371.5 0 371.5 0 349.5 0 c 0,0,1
348.5 592 m 0,33,34
 353.5 600 353.5 600 356.5 602.5 c 128,-1,35
 359.5 605 359.5 605 356.5 606 c 0,36,37
 354.5 606 354.5 606 347.5 603.5 c 128,-1,38
 340.5 601 340.5 601 334.5 595 c 0,39,40
 329.5 590 329.5 590 321.5 583 c 128,-1,41
 313.5 576 313.5 576 313.5 572 c 0,42,43
 313.5 569 313.5 569 317.5 568 c 0,44,45
 324.5 567 324.5 567 334.5 577 c 128,-1,46
 344.5 587 344.5 587 348.5 592 c 0,33,34
337.5 45 m 0,47,48
 337.5 53 337.5 53 335 58 c 128,-1,49
 332.5 63 332.5 63 332.5 74 c 0,50,51
 332.5 79 332.5 79 332 83 c 128,-1,52
 331.5 87 331.5 87 326.5 87 c 0,53,54
 322.5 87 322.5 87 320.5 77.5 c 128,-1,55
 318.5 68 318.5 68 318.5 57 c 128,-1,56
 318.5 46 318.5 46 320.5 36.5 c 128,-1,57
 322.5 27 322.5 27 326.5 27 c 0,58,59
 337.5 27 337.5 27 337.5 45 c 0,47,48
EndSplineSet
Substitution2: "'case' Case-Sensitive Forms lookup 40 subtable" one.lf
Substitution2: "'onum' Oldstyle Figures lookup 37 subtable" one.tosf
Substitution2: "'pnum' Proportional Numbers lookup 35 subtable" one.lf
Substitution2: "'frac' Diagonal Fractions lookup 29 subtable" one.numr
Substitution2: "'dnom' Denominators lookup 27 subtable" one.dnom
Substitution2: "'numr' Numerators lookup 26 subtable" one.numr
Substitution2: "'sups' Superscript lookup 25 subtable" uni00B9
Substitution2: "'sinf' Scientific Inferiors lookup 24 subtable" uni2081
Substitution2: "'subs' Subscript lookup 23 subtable" uni2081
AlternateSubs2: "'aalt' Access All Alternates lookup 1 subtable" uni00B9 one.tosf one.lf uni2081 one.dnom one.numr
EndChar

StartChar: two
Encoding: 50 50 20
Width: 600
Flags: W
LayerCount: 2
Fore
SplineSet
169.2109375 0 m 2,0,1
 160.2109375 0 160.2109375 0 152.7109375 13 c 128,-1,2
 145.2109375 26 145.2109375 26 147.2109375 38 c 256,3,4
 149.2109375 50 149.2109375 50 163.2109375 68 c 128,-1,5
 177.2109375 86 177.2109375 86 193.2109375 106 c 0,6,7
 229.2109375 151 229.2109375 151 258.2109375 198.5 c 128,-1,8
 287.2109375 246 287.2109375 246 307.7109375 292.5 c 128,-1,9
 328.2109375 339 328.2109375 339 339.2109375 383 c 128,-1,10
 350.2109375 427 350.2109375 427 350.2109375 465 c 0,11,12
 350.2109375 506 350.2109375 506 332.7109375 520 c 128,-1,13
 315.2109375 534 315.2109375 534 295.2109375 534 c 256,14,15
 275.2109375 534 275.2109375 534 260.2109375 517.5 c 128,-1,16
 245.2109375 501 245.2109375 501 245.2109375 464 c 0,17,18
 245.2109375 442 245.2109375 442 250.2109375 430.5 c 128,-1,19
 255.2109375 419 255.2109375 419 255.2109375 403 c 0,20,21
 255.2109375 389 255.2109375 389 239.7109375 383 c 128,-1,22
 224.2109375 377 224.2109375 377 213.2109375 377 c 0,23,24
 187.2109375 377 187.2109375 377 169.7109375 403.5 c 128,-1,25
 152.2109375 430 152.2109375 430 152.2109375 470 c 0,26,27
 152.2109375 502 152.2109375 502 162.7109375 529.5 c 128,-1,28
 173.2109375 557 173.2109375 557 192.7109375 577.5 c 128,-1,29
 212.2109375 598 212.2109375 598 238.7109375 610 c 128,-1,30
 265.2109375 622 265.2109375 622 296.2109375 622 c 0,31,32
 326.2109375 622 326.2109375 622 354.7109375 610.5 c 128,-1,33
 383.2109375 599 383.2109375 599 405.2109375 577.5 c 128,-1,34
 427.2109375 556 427.2109375 556 440.2109375 525.5 c 128,-1,35
 453.2109375 495 453.2109375 495 453.2109375 457 c 0,36,37
 453.2109375 410 453.2109375 410 441.2109375 364 c 128,-1,38
 429.2109375 318 429.2109375 318 410.7109375 277 c 128,-1,39
 392.2109375 236 392.2109375 236 371.2109375 201 c 128,-1,40
 350.2109375 166 350.2109375 166 331.7109375 140 c 128,-1,41
 313.2109375 114 313.2109375 114 301.2109375 98 c 128,-1,42
 289.2109375 82 289.2109375 82 289.2109375 79 c 1,43,44
 292.2109375 79 292.2109375 79 297.2109375 79 c 2,45,-1
 321.2109375 79 l 1,46,-1
 408.2109375 82 l 2,47,48
 426.2109375 83 426.2109375 83 435.2109375 79 c 128,-1,49
 444.2109375 75 444.2109375 75 448.2109375 67.5 c 128,-1,50
 452.2109375 60 452.2109375 60 452.2109375 50 c 128,-1,51
 452.2109375 40 452.2109375 40 452.2109375 29 c 0,52,53
 452.2109375 11 452.2109375 11 441.7109375 5.5 c 128,-1,54
 431.2109375 0 431.2109375 0 399.2109375 0 c 2,55,-1
 169.2109375 0 l 2,0,1
185.2109375 488 m 0,56,57
 186.2109375 500 186.2109375 500 184.2109375 507 c 128,-1,58
 182.2109375 514 182.2109375 514 179.2109375 513 c 0,59,60
 175.2109375 513 175.2109375 513 172.7109375 506.5 c 128,-1,61
 170.2109375 500 170.2109375 500 169.7109375 491.5 c 128,-1,62
 169.2109375 483 169.2109375 483 169.2109375 475.5 c 128,-1,63
 169.2109375 468 169.2109375 468 169.2109375 465 c 0,64,65
 171.2109375 452 171.2109375 452 174.2109375 450 c 0,66,67
 179.2109375 445 179.2109375 445 181.2109375 452 c 128,-1,68
 183.2109375 459 183.2109375 459 185.2109375 488 c 0,56,57
187.2109375 424 m 0,69,70
 187.2109375 431 187.2109375 431 180.2109375 431 c 256,71,72
 173.2109375 431 173.2109375 431 173.2109375 423 c 0,73,74
 173.2109375 421 173.2109375 421 175.2109375 418 c 128,-1,75
 177.2109375 415 177.2109375 415 179.2109375 415 c 0,76,77
 183.2109375 415 183.2109375 415 185.2109375 418 c 128,-1,78
 187.2109375 421 187.2109375 421 187.2109375 424 c 0,69,70
186.2109375 50 m 0,79,80
 194.2109375 69 194.2109375 69 191.2109375 69 c 0,81,82
 184.2109375 69 184.2109375 69 176.7109375 60 c 128,-1,83
 169.2109375 51 169.2109375 51 169.2109375 40 c 0,84,85
 169.2109375 32 169.2109375 32 173.2109375 32 c 0,86,87
 178.2109375 32 178.2109375 32 186.2109375 50 c 0,79,80
EndSplineSet
Substitution2: "'case' Case-Sensitive Forms lookup 40 subtable" two.lf
Substitution2: "'onum' Oldstyle Figures lookup 37 subtable" two.tosf
Substitution2: "'pnum' Proportional Numbers lookup 35 subtable" two.lf
Substitution2: "'frac' Diagonal Fractions lookup 29 subtable" two.numr
Substitution2: "'dnom' Denominators lookup 27 subtable" two.dnom
Substitution2: "'numr' Numerators lookup 26 subtable" two.numr
Substitution2: "'sups' Superscript lookup 25 subtable" uni00B2
Substitution2: "'sinf' Scientific Inferiors lookup 24 subtable" uni2082
Substitution2: "'subs' Subscript lookup 23 subtable" uni2082
AlternateSubs2: "'aalt' Access All Alternates lookup 1 subtable" uni00B2 two.tosf two.lf uni2082 two.dnom two.numr
EndChar

StartChar: three
Encoding: 51 51 21
Width: 600
Flags: W
LayerCount: 2
Fore
SplineSet
352 486 m 0,0,1
 352 515 352 515 338 527.5 c 128,-1,2
 324 540 324 540 296 540 c 0,3,4
 263 540 263 540 247 514.5 c 128,-1,5
 231 489 231 489 231 430 c 0,6,7
 231 416 231 416 220.5 410 c 128,-1,8
 210 404 210 404 199 404 c 0,9,10
 138 404 138 404 138 493 c 0,11,12
 138 520 138 520 151.5 543.5 c 128,-1,13
 165 567 165 567 186.5 584.5 c 128,-1,14
 208 602 208 602 236 612 c 128,-1,15
 264 622 264 622 292 622 c 0,16,17
 336 622 336 622 367.5 611 c 128,-1,18
 399 600 399 600 419 581 c 128,-1,19
 439 562 439 562 449 537.5 c 128,-1,20
 459 513 459 513 459 487 c 0,21,22
 459 447 459 447 441.5 418 c 128,-1,23
 424 389 424 389 402.5 368.5 c 128,-1,24
 381 348 381 348 363.5 336 c 128,-1,25
 346 324 346 324 346 318 c 256,26,27
 346 312 346 312 364 305.5 c 128,-1,28
 382 299 382 299 404 284 c 128,-1,29
 426 269 426 269 444 241.5 c 128,-1,30
 462 214 462 214 462 167 c 0,31,32
 462 121 462 121 444.5 88.5 c 128,-1,33
 427 56 427 56 398.5 35 c 128,-1,34
 370 14 370 14 334 4 c 128,-1,35
 298 -6 298 -6 261 -6 c 0,36,37
 245 -6 245 -6 225 -1.5 c 128,-1,38
 205 3 205 3 187.5 12.5 c 128,-1,39
 170 22 170 22 158 36.5 c 128,-1,40
 146 51 146 51 146 71 c 0,41,42
 146 86 146 86 152 95.5 c 128,-1,43
 158 105 158 105 169 105 c 0,44,45
 182 105 182 105 192.5 100.5 c 128,-1,46
 203 96 203 96 213.5 90.5 c 128,-1,47
 224 85 224 85 236 80.5 c 128,-1,48
 248 76 248 76 263 76 c 0,49,50
 290 76 290 76 308 84 c 128,-1,51
 326 92 326 92 336.5 105 c 128,-1,52
 347 118 347 118 351 134 c 128,-1,53
 355 150 355 150 355 166 c 0,54,55
 355 198 355 198 337 220 c 128,-1,56
 319 242 319 242 290 242 c 0,57,58
 248 242 248 242 231 257 c 128,-1,59
 214 272 214 272 214 292 c 0,60,61
 214 311 214 311 235.5 334.5 c 128,-1,62
 257 358 257 358 283 383 c 128,-1,63
 309 408 309 408 330.5 434.5 c 128,-1,64
 352 461 352 461 352 486 c 0,0,1
179 515 m 0,65,66
 180 527 180 527 178 534 c 128,-1,67
 176 541 176 541 173 540 c 0,68,69
 169 540 169 540 165.5 534 c 128,-1,70
 162 528 162 528 159.5 520 c 128,-1,71
 157 512 157 512 155.5 504 c 128,-1,72
 154 496 154 496 155 492 c 0,73,74
 157 479 157 479 160 477 c 0,75,76
 165 472 165 472 171 479 c 128,-1,77
 177 486 177 486 179 515 c 0,65,66
173 451 m 0,78,79
 173 458 173 458 166 458 c 256,80,81
 159 458 159 458 159 450 c 0,82,83
 159 448 159 448 161 445 c 128,-1,84
 163 442 163 442 165 442 c 0,85,86
 169 442 169 442 171 445 c 128,-1,87
 173 448 173 448 173 451 c 0,78,79
247 291 m 0,88,89
 249 296 249 296 253 304 c 128,-1,90
 257 312 257 312 262 319 c 0,91,92
 266 325 266 325 267 330 c 128,-1,93
 268 335 268 335 266 335 c 0,94,95
 262 335 262 335 256 329 c 128,-1,96
 250 323 250 323 244.5 315 c 128,-1,97
 239 307 239 307 235 298.5 c 128,-1,98
 231 290 231 290 231 284 c 0,99,100
 231 275 231 275 236 275 c 256,101,102
 241 275 241 275 247 291 c 0,88,89
177 80 m 0,103,104
 177 101 177 101 168 92 c 0,105,106
 163 87 163 87 161 78 c 128,-1,107
 159 69 159 69 160 62 c 0,108,109
 161 58 161 58 163 56.5 c 128,-1,110
 165 55 165 55 167 55 c 256,111,112
 169 55 169 55 173 63.5 c 128,-1,113
 177 72 177 72 177 80 c 0,103,104
EndSplineSet
Substitution2: "'case' Case-Sensitive Forms lookup 40 subtable" three.lf
Substitution2: "'onum' Oldstyle Figures lookup 37 subtable" three.tosf
Substitution2: "'pnum' Proportional Numbers lookup 35 subtable" three.lf
Substitution2: "'frac' Diagonal Fractions lookup 29 subtable" three.numr
Substitution2: "'dnom' Denominators lookup 27 subtable" three.dnom
Substitution2: "'numr' Numerators lookup 26 subtable" three.numr
Substitution2: "'sups' Superscript lookup 25 subtable" uni00B3
Substitution2: "'sinf' Scientific Inferiors lookup 24 subtable" uni2083
Substitution2: "'subs' Subscript lookup 23 subtable" uni2083
AlternateSubs2: "'aalt' Access All Alternates lookup 1 subtable" uni00B3 three.tosf three.lf uni2083 three.dnom three.numr
EndChar

StartChar: four
Encoding: 52 52 22
Width: 600
Flags: W
LayerCount: 2
Fore
SplineSet
407.5 0 m 0,0,1
 383.5 0 383.5 0 375 19.5 c 128,-1,2
 366.5 39 366.5 39 366.5 62 c 2,3,-1
 366.5 130 l 2,4,5
 366.5 142 366.5 142 353.5 142 c 2,6,-1
 172.5 142 l 2,7,8
 150.5 142 150.5 142 140 152 c 128,-1,9
 129.5 162 129.5 162 129.5 173 c 0,10,11
 129.5 178 129.5 178 138 209.5 c 128,-1,12
 146.5 241 146.5 241 159 286 c 128,-1,13
 171.5 331 171.5 331 186.5 382 c 128,-1,14
 201.5 433 201.5 433 215 478 c 128,-1,15
 228.5 523 228.5 523 238.5 555 c 128,-1,16
 248.5 587 248.5 587 251.5 592 c 0,17,18
 259.5 607 259.5 607 269.5 610.5 c 128,-1,19
 279.5 614 279.5 614 289.5 614 c 0,20,21
 294.5 614 294.5 614 303.5 612 c 128,-1,22
 312.5 610 312.5 610 321 606.5 c 128,-1,23
 329.5 603 329.5 603 336 598 c 128,-1,24
 342.5 593 342.5 593 342.5 587 c 256,25,26
 342.5 581 342.5 581 337.5 558.5 c 128,-1,27
 332.5 536 332.5 536 324.5 503.5 c 128,-1,28
 316.5 471 316.5 471 306.5 433 c 128,-1,29
 296.5 395 296.5 395 286.5 358.5 c 128,-1,30
 276.5 322 276.5 322 267.5 291.5 c 128,-1,31
 258.5 261 258.5 261 252.5 243 c 0,32,33
 250.5 238 250.5 238 249.5 235 c 128,-1,34
 248.5 232 248.5 232 248.5 229 c 0,35,36
 248.5 224 248.5 224 256.5 224 c 2,37,-1
 353.5 224 l 2,38,39
 361.5 224 361.5 224 364 226.5 c 128,-1,40
 366.5 229 366.5 229 366.5 235 c 2,41,-1
 366.5 536 l 2,42,43
 366.5 561 366.5 561 371 576.5 c 128,-1,44
 375.5 592 375.5 592 382.5 601 c 128,-1,45
 389.5 610 389.5 610 398.5 613 c 128,-1,46
 407.5 616 407.5 616 417.5 616 c 0,47,48
 444.5 616 444.5 616 457.5 597 c 128,-1,49
 470.5 578 470.5 578 470.5 550 c 2,50,-1
 470.5 70 l 2,51,52
 470.5 49 470.5 49 465.5 35 c 128,-1,53
 460.5 21 460.5 21 451.5 13.5 c 128,-1,54
 442.5 6 442.5 6 431 3 c 128,-1,55
 419.5 0 419.5 0 407.5 0 c 0,0,1
386.5 541 m 256,56,57
 390.5 541 390.5 541 394 547 c 128,-1,58
 397.5 553 397.5 553 400 561 c 128,-1,59
 402.5 569 402.5 569 404 577.5 c 128,-1,60
 405.5 586 405.5 586 405.5 591 c 0,61,62
 405.5 598 405.5 598 398.5 598 c 0,63,64
 395.5 598 395.5 598 392.5 593.5 c 128,-1,65
 389.5 589 389.5 589 387 582.5 c 128,-1,66
 384.5 576 384.5 576 382.5 569.5 c 128,-1,67
 380.5 563 380.5 563 380.5 558 c 0,68,69
 380.5 552 380.5 552 381.5 546.5 c 128,-1,70
 382.5 541 382.5 541 386.5 541 c 256,56,57
173.5 215 m 0,71,72
 177.5 228 177.5 228 180 235 c 128,-1,73
 182.5 242 182.5 242 181.5 251 c 0,74,75
 181.5 259 181.5 259 176.5 259 c 0,76,77
 173.5 259 173.5 259 170 251.5 c 128,-1,78
 166.5 244 166.5 244 163 234 c 128,-1,79
 159.5 224 159.5 224 157.5 214 c 128,-1,80
 155.5 204 155.5 204 155.5 199 c 0,81,82
 155.5 188 155.5 188 160.5 188 c 0,83,84
 167.5 189 167.5 189 173.5 215 c 0,71,72
163.5 169 m 0,85,86
 163.5 179 163.5 179 155.5 179 c 256,87,88
 147.5 179 147.5 179 147.5 169 c 0,89,90
 147.5 167 147.5 167 148.5 166 c 0,91,92
 152.5 162 152.5 162 155.5 162 c 0,93,94
 157.5 162 157.5 162 160.5 164 c 128,-1,95
 163.5 166 163.5 166 163.5 169 c 0,85,86
399.5 29 m 0,96,97
 396.5 35 396.5 35 393.5 37.5 c 128,-1,98
 390.5 40 390.5 40 390.5 45 c 0,99,100
 390.5 49 390.5 49 389.5 53 c 0,101,102
 389.5 61 389.5 61 384.5 61 c 0,103,104
 378.5 61 378.5 61 378.5 50 c 0,105,106
 378.5 42 378.5 42 383 28.5 c 128,-1,107
 387.5 15 387.5 15 393.5 15 c 0,108,109
 396.5 15 396.5 15 399.5 19.5 c 128,-1,110
 402.5 24 402.5 24 399.5 29 c 0,96,97
EndSplineSet
Substitution2: "'case' Case-Sensitive Forms lookup 40 subtable" four.lf
Substitution2: "'onum' Oldstyle Figures lookup 37 subtable" four.tosf
Substitution2: "'pnum' Proportional Numbers lookup 35 subtable" four.lf
Substitution2: "'frac' Diagonal Fractions lookup 29 subtable" four.numr
Substitution2: "'dnom' Denominators lookup 27 subtable" four.dnom
Substitution2: "'numr' Numerators lookup 26 subtable" four.numr
Substitution2: "'sups' Superscript lookup 25 subtable" uni2074
Substitution2: "'sinf' Scientific Inferiors lookup 24 subtable" uni2084
Substitution2: "'subs' Subscript lookup 23 subtable" uni2084
AlternateSubs2: "'aalt' Access All Alternates lookup 1 subtable" uni2074 four.tosf four.lf uni2084 four.dnom four.numr
EndChar

StartChar: five
Encoding: 53 53 23
Width: 600
Flags: W
LayerCount: 2
Fore
SplineSet
200 -8 m 0,0,1
 178 -8 178 -8 165.5 -1.5 c 128,-1,2
 153 5 153 5 147 14 c 128,-1,3
 141 23 141 23 139.5 32.5 c 128,-1,4
 138 42 138 42 138 48 c 0,5,6
 138 62 138 62 143.5 70 c 128,-1,7
 149 78 149 78 158 81.5 c 128,-1,8
 167 85 167 85 178 85.5 c 128,-1,9
 189 86 189 86 200 86 c 0,10,11
 287 86 287 86 323.5 112.5 c 128,-1,12
 360 139 360 139 360 196 c 0,13,14
 360 251 360 251 334 277 c 128,-1,15
 308 303 308 303 259 303 c 0,16,17
 240 303 240 303 228 300 c 128,-1,18
 216 297 216 297 207 293.5 c 128,-1,19
 198 290 198 290 190 287 c 128,-1,20
 182 284 182 284 172 284 c 256,21,22
 162 284 162 284 156 293 c 128,-1,23
 150 302 150 302 147 314.5 c 128,-1,24
 144 327 144 327 143.5 341.5 c 128,-1,25
 143 356 143 356 143 366 c 2,26,-1
 143 568 l 2,27,28
 143 595 143 595 156.5 605.5 c 128,-1,29
 170 616 170 616 189 616 c 2,30,-1
 422 616 l 2,31,32
 430 616 430 616 437 608.5 c 128,-1,33
 444 601 444 601 444 587 c 0,34,35
 444 569 444 569 436.5 552.5 c 128,-1,36
 429 536 429 536 420 536 c 2,37,-1
 252 535 l 2,38,39
 247 535 247 535 245 530.5 c 128,-1,40
 243 526 243 526 243 521 c 2,41,-1
 243 399 l 2,42,43
 243 383 243 383 246 381 c 128,-1,44
 249 379 249 379 256 379 c 2,45,-1
 280 380 l 2,46,47
 320 382 320 382 353.5 371.5 c 128,-1,48
 387 361 387 361 411 338 c 128,-1,49
 435 315 435 315 448.5 280 c 128,-1,50
 462 245 462 245 462 197 c 0,51,52
 462 158 462 158 446 121.5 c 128,-1,53
 430 85 430 85 397.5 56 c 128,-1,54
 365 27 365 27 316 9.5 c 128,-1,55
 267 -8 267 -8 200 -8 c 0,0,1
171 403 m 0,56,57
 171 422 171 422 170 432 c 128,-1,58
 169 442 169 442 163 436 c 0,59,60
 160 433 160 433 158 421 c 128,-1,61
 156 409 156 409 156 395 c 128,-1,62
 156 381 156 381 158 369 c 128,-1,63
 160 357 160 357 163 354 c 256,64,65
 166 351 166 351 167 351 c 0,66,67
 171 351 171 351 171 403 c 0,56,57
179 326 m 0,68,69
 179 336 179 336 174 336 c 0,70,71
 163 336 163 336 163 322 c 0,72,73
 163 315 163 315 171 315 c 0,74,75
 176 315 176 315 177.5 319.5 c 128,-1,76
 179 324 179 324 179 326 c 0,68,69
170 48 m 0,77,78
 169 50 169 50 169.5 54 c 128,-1,79
 170 58 170 58 170.5 61.5 c 128,-1,80
 171 65 171 65 170 67.5 c 128,-1,81
 169 70 169 70 165 70 c 0,82,83
 160 70 160 70 158 61.5 c 128,-1,84
 156 53 156 53 157 42 c 256,85,86
 158 31 158 31 161 21.5 c 128,-1,87
 164 12 164 12 170 12 c 0,88,89
 172 12 172 12 173.5 23 c 128,-1,90
 175 34 175 34 170 48 c 0,77,78
EndSplineSet
Substitution2: "'case' Case-Sensitive Forms lookup 40 subtable" five.lf
Substitution2: "'onum' Oldstyle Figures lookup 37 subtable" five.tosf
Substitution2: "'pnum' Proportional Numbers lookup 35 subtable" five.lf
Substitution2: "'frac' Diagonal Fractions lookup 29 subtable" five.numr
Substitution2: "'dnom' Denominators lookup 27 subtable" five.dnom
Substitution2: "'numr' Numerators lookup 26 subtable" five.numr
Substitution2: "'sups' Superscript lookup 25 subtable" uni2075
Substitution2: "'sinf' Scientific Inferiors lookup 24 subtable" uni2085
Substitution2: "'subs' Subscript lookup 23 subtable" uni2085
AlternateSubs2: "'aalt' Access All Alternates lookup 1 subtable" uni2075 five.tosf five.lf uni2085 five.dnom five.numr
EndChar

StartChar: six
Encoding: 54 54 24
Width: 600
Flags: W
LayerCount: 2
Fore
SplineSet
301.5 -11 m 0,0,1
 249.5 -11 249.5 -11 213 8.5 c 128,-1,2
 176.5 28 176.5 28 153.5 61 c 128,-1,3
 130.5 94 130.5 94 120 136.5 c 128,-1,4
 109.5 179 109.5 179 109.5 225 c 0,5,6
 109.5 276 109.5 276 117.5 328.5 c 128,-1,7
 125.5 381 125.5 381 142.5 429 c 128,-1,8
 159.5 477 159.5 477 187 518 c 128,-1,9
 214.5 559 214.5 559 253.5 587 c 0,10,11
 281.5 607 281.5 607 309.5 613.5 c 128,-1,12
 337.5 620 337.5 620 359.5 620 c 0,13,14
 364.5 620 364.5 620 372 618.5 c 128,-1,15
 379.5 617 379.5 617 386.5 614 c 128,-1,16
 393.5 611 393.5 611 399 606 c 128,-1,17
 404.5 601 404.5 601 404.5 593 c 0,18,19
 404.5 579 404.5 579 399.5 567.5 c 128,-1,20
 394.5 556 394.5 556 367.5 547 c 0,21,22
 341.5 538 341.5 538 320.5 521 c 128,-1,23
 299.5 504 299.5 504 283 482.5 c 128,-1,24
 266.5 461 266.5 461 254.5 435.5 c 128,-1,25
 242.5 410 242.5 410 233.5 385 c 0,26,27
 228.5 373 228.5 373 224.5 354.5 c 128,-1,28
 220.5 336 220.5 336 220.5 325 c 0,29,30
 220.5 315 220.5 315 224.5 315 c 0,31,32
 227.5 315 227.5 315 234.5 324.5 c 128,-1,33
 241.5 334 241.5 334 254.5 345 c 128,-1,34
 267.5 356 267.5 356 286.5 365.5 c 128,-1,35
 305.5 375 305.5 375 332.5 375 c 0,36,37
 409.5 375 409.5 375 450 323 c 128,-1,38
 490.5 271 490.5 271 490.5 187 c 0,39,40
 490.5 146 490.5 146 475.5 110 c 128,-1,41
 460.5 74 460.5 74 434.5 47 c 128,-1,42
 408.5 20 408.5 20 374 4.5 c 128,-1,43
 339.5 -11 339.5 -11 301.5 -11 c 0,0,1
296.5 80 m 0,44,45
 338.5 80 338.5 80 364 106.5 c 128,-1,46
 389.5 133 389.5 133 389.5 190 c 0,47,48
 389.5 207 389.5 207 386.5 224 c 128,-1,49
 383.5 241 383.5 241 375.5 255 c 128,-1,50
 367.5 269 367.5 269 354 277.5 c 128,-1,51
 340.5 286 340.5 286 319.5 286 c 0,52,53
 300.5 286 300.5 286 281 276 c 128,-1,54
 261.5 266 261.5 266 246.5 250.5 c 128,-1,55
 231.5 235 231.5 235 222 215.5 c 128,-1,56
 212.5 196 212.5 196 212.5 178 c 0,57,58
 212.5 137 212.5 137 230 108.5 c 128,-1,59
 247.5 80 247.5 80 296.5 80 c 0,44,45
170.5 107 m 0,60,61
 167.5 118 167.5 118 163.5 127.5 c 128,-1,62
 159.5 137 159.5 137 156.5 148 c 0,63,64
 154.5 154 154.5 154 153 159 c 128,-1,65
 151.5 164 151.5 164 147.5 163 c 0,66,67
 144.5 163 144.5 163 142.5 155 c 0,68,69
 141.5 148 141.5 148 145 135 c 128,-1,70
 148.5 122 148.5 122 153.5 110 c 128,-1,71
 158.5 98 158.5 98 164 89.5 c 128,-1,72
 169.5 81 169.5 81 171.5 81 c 0,73,74
 176.5 81 176.5 81 176.5 86 c 0,75,76
 176.5 90 176.5 90 174.5 95 c 128,-1,77
 172.5 100 172.5 100 170.5 107 c 0,60,61
EndSplineSet
Substitution2: "'case' Case-Sensitive Forms lookup 40 subtable" six.lf
Substitution2: "'onum' Oldstyle Figures lookup 37 subtable" six.tosf
Substitution2: "'pnum' Proportional Numbers lookup 35 subtable" six.lf
Substitution2: "'frac' Diagonal Fractions lookup 29 subtable" six.numr
Substitution2: "'dnom' Denominators lookup 27 subtable" six.dnom
Substitution2: "'numr' Numerators lookup 26 subtable" six.numr
Substitution2: "'sups' Superscript lookup 25 subtable" uni2076
Substitution2: "'sinf' Scientific Inferiors lookup 24 subtable" uni2086
Substitution2: "'subs' Subscript lookup 23 subtable" uni2086
AlternateSubs2: "'aalt' Access All Alternates lookup 1 subtable" uni2076 six.tosf six.lf uni2086 six.dnom six.numr
EndChar

StartChar: seven
Encoding: 55 55 25
Width: 600
Flags: W
LayerCount: 2
Fore
SplineSet
221.5 -2 m 0,0,1
 207.5 -2 207.5 -2 198 6.5 c 128,-1,2
 188.5 15 188.5 15 188.5 25 c 0,3,4
 188.5 34 188.5 34 198.5 70 c 128,-1,5
 208.5 106 208.5 106 223.5 156 c 128,-1,6
 238.5 206 238.5 206 256.5 263 c 128,-1,7
 274.5 320 274.5 320 291 371 c 128,-1,8
 307.5 422 307.5 422 320.5 461 c 128,-1,9
 333.5 500 333.5 500 338.5 514 c 0,10,11
 343.5 529 343.5 529 331.5 529 c 2,12,-1
 201.5 529 l 2,13,14
 174.5 529 174.5 529 159.5 537.5 c 128,-1,15
 144.5 546 144.5 546 144.5 573 c 256,16,17
 144.5 600 144.5 600 161 608 c 128,-1,18
 177.5 616 177.5 616 203.5 616 c 2,19,-1
 414.5 616 l 2,20,21
 431.5 616 431.5 616 443.5 605.5 c 128,-1,22
 455.5 595 455.5 595 455.5 581 c 0,23,24
 455.5 571 455.5 571 444.5 529 c 128,-1,25
 433.5 487 433.5 487 416 429 c 128,-1,26
 398.5 371 398.5 371 377 303.5 c 128,-1,27
 355.5 236 355.5 236 335.5 176 c 128,-1,28
 315.5 116 315.5 116 299.5 71 c 128,-1,29
 283.5 26 283.5 26 275.5 11 c 0,30,31
 273.5 6 273.5 6 259 2 c 128,-1,32
 244.5 -2 244.5 -2 221.5 -2 c 0,0,1
176.5 594 m 0,33,34
 176.5 602 176.5 602 171.5 602 c 256,35,36
 166.5 602 166.5 602 160 594.5 c 128,-1,37
 153.5 587 153.5 587 153.5 576 c 0,38,39
 153.5 556 153.5 556 161.5 556 c 0,40,41
 164.5 556 164.5 556 167.5 560.5 c 128,-1,42
 170.5 565 170.5 565 172.5 571 c 128,-1,43
 174.5 577 174.5 577 175.5 583.5 c 128,-1,44
 176.5 590 176.5 590 176.5 594 c 0,33,34
221.5 38 m 0,45,46
 223.5 48 223.5 48 225.5 58.5 c 128,-1,47
 227.5 69 227.5 69 229.5 73 c 0,48,49
 233.5 78 233.5 78 232 83 c 128,-1,50
 230.5 88 230.5 88 225.5 88 c 0,51,52
 222.5 88 222.5 88 219 81 c 128,-1,53
 215.5 74 215.5 74 213 64.5 c 128,-1,54
 210.5 55 210.5 55 208.5 45.5 c 128,-1,55
 206.5 36 206.5 36 206.5 31 c 0,56,57
 206.5 19 206.5 19 211.5 19 c 256,58,59
 216.5 19 216.5 19 221.5 38 c 0,45,46
EndSplineSet
Substitution2: "'case' Case-Sensitive Forms lookup 40 subtable" seven.lf
Substitution2: "'onum' Oldstyle Figures lookup 37 subtable" seven.tosf
Substitution2: "'pnum' Proportional Numbers lookup 35 subtable" seven.lf
Substitution2: "'frac' Diagonal Fractions lookup 29 subtable" seven.numr
Substitution2: "'dnom' Denominators lookup 27 subtable" seven.dnom
Substitution2: "'numr' Numerators lookup 26 subtable" seven.numr
Substitution2: "'sups' Superscript lookup 25 subtable" uni2077
Substitution2: "'sinf' Scientific Inferiors lookup 24 subtable" uni2087
Substitution2: "'subs' Subscript lookup 23 subtable" uni2087
AlternateSubs2: "'aalt' Access All Alternates lookup 1 subtable" uni2077 seven.tosf seven.lf uni2087 seven.dnom seven.numr
EndChar

StartChar: eight
Encoding: 56 56 26
Width: 600
Flags: W
LayerCount: 2
Fore
SplineSet
291.5 -6 m 0,0,1
 251.5 -6 251.5 -6 218 8.5 c 128,-1,2
 184.5 23 184.5 23 161 46.5 c 128,-1,3
 137.5 70 137.5 70 124.5 100.5 c 128,-1,4
 111.5 131 111.5 131 111.5 163 c 0,5,6
 111.5 201 111.5 201 128.5 228 c 128,-1,7
 145.5 255 145.5 255 166 274 c 128,-1,8
 186.5 293 186.5 293 203.5 305.5 c 128,-1,9
 220.5 318 220.5 318 220.5 325 c 0,10,11
 220.5 333 220.5 333 205 342 c 128,-1,12
 189.5 351 189.5 351 170.5 367 c 128,-1,13
 151.5 383 151.5 383 136 407.5 c 128,-1,14
 120.5 432 120.5 432 120.5 471 c 0,15,16
 120.5 503 120.5 503 135 531 c 128,-1,17
 149.5 559 149.5 559 174.5 580 c 128,-1,18
 199.5 601 199.5 601 231.5 613 c 128,-1,19
 263.5 625 263.5 625 298.5 625 c 0,20,21
 324.5 625 324.5 625 354.5 614.5 c 128,-1,22
 384.5 604 384.5 604 410 584.5 c 128,-1,23
 435.5 565 435.5 565 452 536 c 128,-1,24
 468.5 507 468.5 507 468.5 469 c 0,25,26
 468.5 432 468.5 432 454.5 409.5 c 128,-1,27
 440.5 387 440.5 387 424 373.5 c 128,-1,28
 407.5 360 407.5 360 393.5 353 c 128,-1,29
 379.5 346 379.5 346 379.5 340 c 0,30,31
 379.5 331 379.5 331 396.5 319.5 c 128,-1,32
 413.5 308 413.5 308 434 289.5 c 128,-1,33
 454.5 271 454.5 271 471.5 242 c 128,-1,34
 488.5 213 488.5 213 488.5 169 c 0,35,36
 488.5 136 488.5 136 473 104.5 c 128,-1,37
 457.5 73 457.5 73 430.5 48 c 128,-1,38
 403.5 23 403.5 23 368 8.5 c 128,-1,39
 332.5 -6 332.5 -6 291.5 -6 c 0,0,1
163.5 512 m 0,40,41
 164.5 518 164.5 518 169.5 525 c 128,-1,42
 174.5 532 174.5 532 180.5 538.5 c 128,-1,43
 186.5 545 186.5 545 192 550.5 c 128,-1,44
 197.5 556 197.5 556 200.5 559 c 0,45,46
 211.5 571 211.5 571 211.5 578 c 0,47,48
 211.5 582 211.5 582 207.5 582 c 0,49,50
 198.5 582 198.5 582 188 572.5 c 128,-1,51
 177.5 563 177.5 563 168.5 549.5 c 128,-1,52
 159.5 536 159.5 536 153.5 522.5 c 128,-1,53
 147.5 509 147.5 509 147.5 501 c 256,54,55
 147.5 493 147.5 493 151.5 493 c 0,56,57
 158.5 493 158.5 493 163.5 512 c 0,40,41
298.5 371 m 0,58,59
 311.5 371 311.5 371 324 379.5 c 128,-1,60
 336.5 388 336.5 388 346.5 402 c 128,-1,61
 356.5 416 356.5 416 363 433.5 c 128,-1,62
 369.5 451 369.5 451 369.5 469 c 0,63,64
 369.5 504 369.5 504 349.5 529.5 c 128,-1,65
 329.5 555 329.5 555 297.5 555 c 256,66,67
 265.5 555 265.5 555 242.5 533 c 128,-1,68
 219.5 511 219.5 511 219.5 473 c 0,69,70
 219.5 459 219.5 459 224.5 441.5 c 128,-1,71
 229.5 424 229.5 424 239.5 408 c 128,-1,72
 249.5 392 249.5 392 264.5 381.5 c 128,-1,73
 279.5 371 279.5 371 298.5 371 c 0,58,59
153.5 469 m 0,74,75
 153.5 478 153.5 478 146.5 478 c 0,76,77
 141.5 478 141.5 478 140 475 c 128,-1,78
 138.5 472 138.5 472 138.5 469 c 0,79,80
 138.5 467 138.5 467 139.5 465 c 0,81,82
 141.5 461 141.5 461 145.5 461 c 0,83,84
 147.5 461 147.5 461 150.5 463 c 128,-1,85
 153.5 465 153.5 465 153.5 469 c 0,74,75
293.5 73 m 0,86,87
 341.5 73 341.5 73 359 98 c 128,-1,88
 376.5 123 376.5 123 376.5 169 c 0,89,90
 376.5 188 376.5 188 369 208.5 c 128,-1,91
 361.5 229 361.5 229 350 246 c 128,-1,92
 338.5 263 338.5 263 325.5 274 c 128,-1,93
 312.5 285 312.5 285 301.5 285 c 0,94,95
 286.5 285 286.5 285 271.5 273.5 c 128,-1,96
 256.5 262 256.5 262 244.5 244.5 c 128,-1,97
 232.5 227 232.5 227 225 205.5 c 128,-1,98
 217.5 184 217.5 184 217.5 163 c 0,99,100
 217.5 147 217.5 147 223 131 c 128,-1,101
 228.5 115 228.5 115 238 102 c 128,-1,102
 247.5 89 247.5 89 261.5 81 c 128,-1,103
 275.5 73 275.5 73 293.5 73 c 0,86,87
157.5 222 m 256,104,105
 160.5 230 160.5 230 157.5 233 c 128,-1,106
 154.5 236 154.5 236 147.5 229 c 0,107,108
 144.5 226 144.5 226 139.5 218.5 c 128,-1,109
 134.5 211 134.5 211 130 202 c 128,-1,110
 125.5 193 125.5 193 122 183.5 c 128,-1,111
 118.5 174 118.5 174 118.5 166 c 0,112,113
 117.5 158 117.5 158 121 150.5 c 128,-1,114
 124.5 143 124.5 143 131.5 143 c 0,115,116
 139.5 143 139.5 143 138.5 155.5 c 128,-1,117
 137.5 168 137.5 168 139.5 179 c 0,118,119
 142.5 194 142.5 194 148.5 204 c 128,-1,120
 154.5 214 154.5 214 157.5 222 c 256,104,105
EndSplineSet
Substitution2: "'case' Case-Sensitive Forms lookup 40 subtable" eight.lf
Substitution2: "'onum' Oldstyle Figures lookup 37 subtable" eight.tosf
Substitution2: "'pnum' Proportional Numbers lookup 35 subtable" eight.lf
Substitution2: "'frac' Diagonal Fractions lookup 29 subtable" eight.numr
Substitution2: "'dnom' Denominators lookup 27 subtable" eight.dnom
Substitution2: "'numr' Numerators lookup 26 subtable" eight.numr
Substitution2: "'sups' Superscript lookup 25 subtable" uni2078
Substitution2: "'sinf' Scientific Inferiors lookup 24 subtable" uni2088
Substitution2: "'subs' Subscript lookup 23 subtable" uni2088
AlternateSubs2: "'aalt' Access All Alternates lookup 1 subtable" uni2078 eight.tosf eight.lf uni2088 eight.dnom eight.numr
EndChar

StartChar: nine
Encoding: 57 57 27
Width: 600
Flags: W
LayerCount: 2
Fore
SplineSet
298 623 m 0,0,1
 353 623 353 623 390 601.5 c 128,-1,2
 427 580 427 580 449 546 c 128,-1,3
 471 512 471 512 480.5 470 c 128,-1,4
 490 428 490 428 490 387 c 0,5,6
 490 336 490 336 478.5 284 c 128,-1,7
 467 232 467 232 446.5 185 c 128,-1,8
 426 138 426 138 398 99 c 128,-1,9
 370 60 370 60 337 34 c 0,10,11
 310 13 310 13 281.5 2.5 c 128,-1,12
 253 -8 253 -8 231 -8 c 0,13,14
 213 -8 213 -8 200.5 -1.5 c 128,-1,15
 188 5 188 5 188 21 c 0,16,17
 188 36 188 36 196 51.5 c 128,-1,18
 204 67 204 67 231 76 c 0,19,20
 257 85 257 85 277.5 100 c 128,-1,21
 298 115 298 115 314 135 c 128,-1,22
 330 155 330 155 341.5 178.5 c 128,-1,23
 353 202 353 202 362 227 c 0,24,25
 367 239 367 239 371 257.5 c 128,-1,26
 375 276 375 276 375 287 c 0,27,28
 375 297 375 297 371 297 c 0,29,30
 368 297 368 297 361.5 289 c 128,-1,31
 355 281 355 281 342 272 c 128,-1,32
 329 263 329 263 309 255 c 128,-1,33
 289 247 289 247 259 247 c 0,34,35
 189 247 189 247 149.5 295 c 128,-1,36
 110 343 110 343 110 425 c 0,37,38
 110 463 110 463 122 499 c 128,-1,39
 134 535 134 535 158 562.5 c 128,-1,40
 182 590 182 590 217 606.5 c 128,-1,41
 252 623 252 623 298 623 c 0,0,1
303 535 m 0,42,43
 261 535 261 535 235.5 508 c 128,-1,44
 210 481 210 481 210 432 c 0,45,46
 210 390 210 390 228.5 364.5 c 128,-1,47
 247 339 247 339 280 339 c 0,48,49
 300 339 300 339 318.5 347 c 128,-1,50
 337 355 337 355 351 368 c 128,-1,51
 365 381 365 381 374 398.5 c 128,-1,52
 383 416 383 416 383 434 c 0,53,54
 383 455 383 455 379.5 473 c 128,-1,55
 376 491 376 491 367 505 c 128,-1,56
 358 519 358 519 342.5 527 c 128,-1,57
 327 535 327 535 303 535 c 0,42,43
160 486 m 0,58,59
 162 496 162 496 164.5 503.5 c 128,-1,60
 167 511 167 511 167 517 c 0,61,62
 167 524 167 524 160 524 c 0,63,64
 157 524 157 524 151.5 511 c 128,-1,65
 146 498 146 498 141.5 480 c 128,-1,66
 137 462 137 462 134 444 c 128,-1,67
 131 426 131 426 133 415 c 0,68,69
 136 403 136 403 141 403 c 256,70,71
 146 403 146 403 148.5 410.5 c 128,-1,72
 151 418 151 418 153 426 c 0,73,74
 157 443 157 443 157 457 c 128,-1,75
 157 471 157 471 160 486 c 0,58,59
156 380 m 0,76,77
 156 385 156 385 154.5 388.5 c 128,-1,78
 153 392 153 392 150 392 c 0,79,80
 145 392 145 392 141 389 c 128,-1,81
 137 386 137 386 137 376 c 0,82,83
 137 373 137 373 139.5 370 c 128,-1,84
 142 367 142 367 146 367 c 0,85,86
 152 367 152 367 154 372.5 c 128,-1,87
 156 378 156 378 156 380 c 0,76,77
228 58 m 2,88,89
 228 61 228 61 223.5 60 c 128,-1,90
 219 59 219 59 214 55 c 128,-1,91
 209 51 209 51 205 44 c 128,-1,92
 201 37 201 37 201 28 c 0,93,94
 201 26 201 26 202.5 20 c 128,-1,95
 204 14 204 14 208 14 c 0,96,97
 211 14 211 14 214.5 20.5 c 128,-1,98
 218 27 218 27 221 35.5 c 128,-1,99
 224 44 224 44 226 51 c 128,-1,100
 228 58 228 58 228 58 c 2,88,89
EndSplineSet
Substitution2: "'case' Case-Sensitive Forms lookup 40 subtable" nine.lf
Substitution2: "'onum' Oldstyle Figures lookup 37 subtable" nine.tosf
Substitution2: "'pnum' Proportional Numbers lookup 35 subtable" nine.lf
Substitution2: "'frac' Diagonal Fractions lookup 29 subtable" nine.numr
Substitution2: "'dnom' Denominators lookup 27 subtable" nine.dnom
Substitution2: "'numr' Numerators lookup 26 subtable" nine.numr
Substitution2: "'sups' Superscript lookup 25 subtable" uni2079
Substitution2: "'sinf' Scientific Inferiors lookup 24 subtable" uni2089
Substitution2: "'subs' Subscript lookup 23 subtable" uni2089
AlternateSubs2: "'aalt' Access All Alternates lookup 1 subtable" uni2079 nine.tosf nine.lf uni2089 nine.dnom nine.numr
EndChar

StartChar: colon
Encoding: 58 58 28
Width: 600
Flags: W
LayerCount: 2
Fore
SplineSet
238 54 m 0,0,1
 238 91 238 91 256 106 c 128,-1,2
 274 121 274 121 299 121 c 0,3,4
 325 121 325 121 343.5 106 c 128,-1,5
 362 91 362 91 362 54 c 0,6,7
 362 18 362 18 343.5 2 c 128,-1,8
 325 -14 325 -14 299 -14 c 0,9,10
 274 -14 274 -14 256 2 c 128,-1,11
 238 18 238 18 238 54 c 0,0,1
238 482 m 0,12,13
 238 520 238 520 256 535 c 128,-1,14
 274 550 274 550 299 550 c 0,15,16
 325 550 325 550 343.5 535 c 128,-1,17
 362 520 362 520 362 482 c 0,18,19
 362 446 362 446 343.5 430 c 128,-1,20
 325 414 325 414 299 414 c 0,21,22
 274 414 274 414 256 430 c 128,-1,23
 238 446 238 446 238 482 c 0,12,13
EndSplineSet
EndChar

StartChar: semicolon
Encoding: 59 59 29
Width: 600
Flags: W
LayerCount: 2
Fore
SplineSet
370.5 105 m 1,0,1
 361.5 70 361.5 70 347.5 29 c 128,-1,2
 333.5 -12 333.5 -12 317 -52.5 c 128,-1,3
 300.5 -93 300.5 -93 284.5 -129 c 1,4,-1
 218.5 -129 l 1,5,6
 225.5 -101 225.5 -101 233 -69 c 128,-1,7
 240.5 -37 240.5 -37 247.5 -4.5 c 128,-1,8
 254.5 28 254.5 28 260 59 c 128,-1,9
 265.5 90 265.5 90 269.5 116 c 1,10,-1
 363.5 116 l 1,11,-1
 370.5 105 l 1,0,1
257.5 482 m 0,12,13
 257.5 520 257.5 520 275.5 535 c 128,-1,14
 293.5 550 293.5 550 318.5 550 c 0,15,16
 344.5 550 344.5 550 363 535 c 128,-1,17
 381.5 520 381.5 520 381.5 482 c 0,18,19
 381.5 446 381.5 446 363 430 c 128,-1,20
 344.5 414 344.5 414 318.5 414 c 0,21,22
 293.5 414 293.5 414 275.5 430 c 128,-1,23
 257.5 446 257.5 446 257.5 482 c 0,12,13
EndSplineSet
EndChar

StartChar: less
Encoding: 60 60 30
Width: 600
Flags: W
LayerCount: 2
Fore
SplineSet
535.5 116 m 1,0,-1
 64.5 323 l 1,1,-1
 64.5 373 l 1,2,-1
 535.5 608 l 1,3,-1
 535.5 530 l 1,4,-1
 158.5 352 l 1,5,-1
 535.5 194 l 1,6,-1
 535.5 116 l 1,0,-1
EndSplineSet
EndChar

StartChar: equal
Encoding: 61 61 31
Width: 600
Flags: W
LayerCount: 2
Fore
SplineSet
71 416 m 1,0,-1
 71 487 l 1,1,-1
 529 487 l 1,2,-1
 529 416 l 1,3,-1
 71 416 l 1,0,-1
71 217 m 5,4,-1
 71 288 l 5,5,-1
 529 288 l 5,6,-1
 529 217 l 5,7,-1
 71 217 l 5,4,-1
EndSplineSet
Substitution2: "'sups' Superscript lookup 25 subtable" uni207C
Substitution2: "'sinf' Scientific Inferiors lookup 24 subtable" uni208C
Substitution2: "'subs' Subscript lookup 23 subtable" uni208C
AlternateSubs2: "'aalt' Access All Alternates lookup 1 subtable" uni208C uni207C
EndChar

StartChar: greater
Encoding: 62 62 32
Width: 600
Flags: W
LayerCount: 2
Fore
SplineSet
64.5 194 m 1,0,-1
 441.5 351 l 1,1,-1
 64.5 530 l 1,2,-1
 64.5 608 l 1,3,-1
 535.5 373 l 1,4,-1
 535.5 323 l 1,5,-1
 64.5 116 l 1,6,-1
 64.5 194 l 1,0,-1
EndSplineSet
EndChar

StartChar: question
Encoding: 63 63 33
Width: 600
Flags: W
LayerCount: 2
Fore
SplineSet
230 199 m 6,0,1
 230 237 230 237 237.5 264.5 c 132,-1,2
 245 292 245 292 263.5 317 c 132,-1,3
 282 342 282 342 314 369 c 4,4,5
 353 402 353 402 374.5 424 c 132,-1,6
 396 446 396 446 405 467 c 132,-1,7
 414 488 414 488 414 518 c 4,8,9
 414 566 414 566 383 592 c 132,-1,10
 352 618 352 618 293 618 c 4,11,12
 244 618 244 618 206 605.5 c 132,-1,13
 168 593 168 593 133 576 c 5,14,-1
 102 646 l 5,15,16
 142 667 142 667 190.5 681 c 132,-1,17
 239 695 239 695 299 695 c 4,18,19
 394 695 394 695 446 648 c 132,-1,20
 498 601 498 601 498 520 c 4,21,22
 498 475 498 475 483.5 443.5 c 132,-1,23
 469 412 469 412 442.5 385.5 c 132,-1,24
 416 359 416 359 380 329 c 4,25,26
 347 301 347 301 329.5 280 c 132,-1,27
 312 259 312 259 306 238.5 c 132,-1,28
 300 218 300 218 300 189 c 6,29,-1
 300 172 l 5,30,-1
 230 172 l 5,31,-1
 230 199 l 6,0,1
207 25 m 4,32,33
 207 62 207 62 224.5 77 c 132,-1,34
 242 92 242 92 269 92 c 4,35,36
 294 92 294 92 312 77 c 132,-1,37
 330 62 330 62 330 25 c 4,38,39
 330 -11 330 -11 312 -27 c 132,-1,40
 294 -43 294 -43 269 -43 c 4,41,42
 242 -43 242 -43 224.5 -27 c 132,-1,43
 207 -11 207 -11 207 25 c 4,32,33
EndSplineSet
Substitution2: "'smcp' Lowercase to Small Capitals lookup 39 subtable" question.sc
Substitution2: "'c2sc' Capitals to Small Capitals lookup 38 subtable" question.sc
Substitution2: "'aalt' Access All Alternates lookup 0 subtable" question.sc
EndChar

StartChar: at
Encoding: 64 64 34
Width: 600
Flags: W
LayerCount: 2
Fore
SplineSet
282 1 m 0,0,1
 226 1 226 1 179 20 c 128,-1,2
 132 39 132 39 98.5 73.5 c 128,-1,3
 65 108 65 108 46.5 157.5 c 128,-1,4
 28 207 28 207 28 267 c 0,5,6
 28 335 28 335 49.5 393 c 128,-1,7
 71 451 71 451 109.5 494.5 c 128,-1,8
 148 538 148 538 200 562.5 c 128,-1,9
 252 587 252 587 313 587 c 256,10,11
 374 587 374 587 422 566.5 c 128,-1,12
 470 546 470 546 503.5 510 c 128,-1,13
 537 474 537 474 554.5 426.5 c 128,-1,14
 572 379 572 379 572 325 c 0,15,16
 572 286 572 286 561.5 252.5 c 128,-1,17
 551 219 551 219 533 193.5 c 128,-1,18
 515 168 515 168 491 153.5 c 128,-1,19
 467 139 467 139 440 139 c 0,20,21
 419 139 419 139 406 147 c 128,-1,22
 393 155 393 155 385.5 165 c 128,-1,23
 378 175 378 175 373.5 183 c 128,-1,24
 369 191 369 191 365 191 c 256,25,26
 361 191 361 191 352 182.5 c 128,-1,27
 343 174 343 174 330 164.5 c 128,-1,28
 317 155 317 155 300 146.5 c 128,-1,29
 283 138 283 138 262 138 c 256,30,31
 241 138 241 138 223 147.5 c 128,-1,32
 205 157 205 157 192 174 c 128,-1,33
 179 191 179 191 171.5 213.5 c 128,-1,34
 164 236 164 236 164 263 c 0,35,36
 164 297 164 297 175.5 328.5 c 128,-1,37
 187 360 187 360 205.5 384.5 c 128,-1,38
 224 409 224 409 248.5 423.5 c 128,-1,39
 273 438 273 438 299 438 c 0,40,41
 312 438 312 438 320 434.5 c 128,-1,42
 328 431 328 431 333 427 c 128,-1,43
 338 423 338 423 341 419.5 c 128,-1,44
 344 416 344 416 347 416 c 256,45,46
 350 416 350 416 353 420.5 c 128,-1,47
 356 425 356 425 360 430 c 128,-1,48
 364 435 364 435 370 439.5 c 128,-1,49
 376 444 376 444 386 444 c 0,50,51
 407 444 407 444 415 425 c 128,-1,52
 423 406 423 406 424.5 380.5 c 128,-1,53
 426 355 426 355 424 329.5 c 128,-1,54
 422 304 422 304 422 292 c 0,55,56
 422 279 422 279 425 265.5 c 128,-1,57
 428 252 428 252 433 240.5 c 128,-1,58
 438 229 438 229 444 222 c 128,-1,59
 450 215 450 215 457 215 c 0,60,61
 469 215 469 215 479 239 c 128,-1,62
 489 263 489 263 489 303 c 0,63,64
 489 351 489 351 480 389 c 128,-1,65
 471 427 471 427 451.5 453.5 c 128,-1,66
 432 480 432 480 400 494.5 c 128,-1,67
 368 509 368 509 322 509 c 256,68,69
 276 509 276 509 237.5 491.5 c 128,-1,70
 199 474 199 474 171 443 c 128,-1,71
 143 412 143 412 127.5 370 c 128,-1,72
 112 328 112 328 112 279 c 0,73,74
 112 235 112 235 125.5 198 c 128,-1,75
 139 161 139 161 163 134 c 128,-1,76
 187 107 187 107 219 92 c 128,-1,77
 251 77 251 77 288 77 c 0,78,79
 314 77 314 77 340.5 83.5 c 128,-1,80
 367 90 367 90 391 98 c 128,-1,81
 415 106 415 106 436.5 112.5 c 128,-1,82
 458 119 458 119 474 119 c 0,83,84
 502 119 502 119 502 98 c 0,85,86
 502 81 502 81 482.5 63.5 c 128,-1,87
 463 46 463 46 431.5 32 c 128,-1,88
 400 18 400 18 360.5 9.5 c 128,-1,89
 321 1 321 1 282 1 c 0,0,1
200 316 m 0,90,91
 204 316 204 316 208.5 326.5 c 128,-1,92
 213 337 213 337 215 339 c 0,93,94
 223 353 223 353 233.5 365 c 128,-1,95
 244 377 244 377 255 388 c 0,96,97
 260 393 260 393 254 393 c 0,98,99
 247 393 247 393 236.5 384.5 c 128,-1,100
 226 376 226 376 217 365 c 128,-1,101
 208 354 208 354 201.5 342 c 128,-1,102
 195 330 195 330 195 323 c 0,103,104
 195 321 195 321 196.5 318.5 c 128,-1,105
 198 316 198 316 200 316 c 0,90,91
286 220 m 0,106,107
 296 220 296 220 306.5 229 c 128,-1,108
 317 238 317 238 326 252 c 128,-1,109
 335 266 335 266 340.5 284 c 128,-1,110
 346 302 346 302 346 320 c 0,111,112
 346 362 346 362 314 362 c 0,113,114
 301 362 301 362 288 355 c 128,-1,115
 275 348 275 348 264.5 336 c 128,-1,116
 254 324 254 324 248 309 c 128,-1,117
 242 294 242 294 242 278 c 0,118,119
 242 253 242 253 252.5 236.5 c 128,-1,120
 263 220 263 220 286 220 c 0,106,107
198 291 m 0,121,122
 198 298 198 298 193 300 c 0,123,124
 190 301 190 301 186.5 297.5 c 128,-1,125
 183 294 183 294 183 291 c 0,126,127
 183 287 183 287 185.5 283.5 c 128,-1,128
 188 280 188 280 191 280 c 256,129,130
 194 280 194 280 196 284 c 128,-1,131
 198 288 198 288 198 291 c 0,121,122
EndSplineSet
EndChar

StartChar: A
Encoding: 65 65 35
Width: 600
GlyphClass: 2
Flags: W
LayerCount: 2
Fore
SplineSet
255.5 -8 m 0,0,1
 188.5 -8 188.5 -8 151 71 c 128,-1,2
 113.5 150 113.5 150 113.5 291 c 0,3,4
 113.5 444 113.5 444 157.5 530 c 128,-1,5
 201.5 616 201.5 616 281.5 621 c 0,6,7
 310.5 623 310.5 623 329 614.5 c 128,-1,8
 347.5 606 347.5 606 359.5 595 c 128,-1,9
 371.5 584 371.5 584 377.5 575 c 128,-1,10
 383.5 566 383.5 566 386.5 566 c 256,11,12
 389.5 566 389.5 566 390.5 575 c 128,-1,13
 391.5 584 391.5 584 395.5 595 c 128,-1,14
 399.5 606 399.5 606 408 615 c 128,-1,15
 416.5 624 416.5 624 435.5 624 c 256,16,17
 454.5 624 454.5 624 467.5 615 c 128,-1,18
 480.5 606 480.5 606 480.5 592 c 2,19,-1
 480.5 204 l 2,20,21
 480.5 163 480.5 163 483.5 126.5 c 128,-1,22
 486.5 90 486.5 90 486.5 71 c 0,23,24
 486.5 36 486.5 36 473 14 c 128,-1,25
 459.5 -8 459.5 -8 438.5 -8 c 0,26,27
 414.5 -8 414.5 -8 399.5 19 c 128,-1,28
 384.5 46 384.5 46 384.5 88 c 0,29,30
 384.5 114 384.5 114 379.5 114 c 0,31,32
 375.5 114 375.5 114 368.5 95 c 128,-1,33
 361.5 76 361.5 76 348 53 c 128,-1,34
 334.5 30 334.5 30 312.5 11 c 128,-1,35
 290.5 -8 290.5 -8 255.5 -8 c 0,0,1
409.5 557 m 0,36,37
 413.5 557 413.5 557 415 563.5 c 128,-1,38
 416.5 570 416.5 570 418.5 577 c 0,39,40
 421.5 587 421.5 587 424.5 594 c 128,-1,41
 427.5 601 427.5 601 427.5 606 c 256,42,43
 427.5 611 427.5 611 423.5 611 c 0,44,45
 418.5 611 418.5 611 410.5 601 c 128,-1,46
 402.5 591 402.5 591 402.5 575 c 0,47,48
 402.5 567 402.5 567 404.5 562 c 128,-1,49
 406.5 557 406.5 557 409.5 557 c 0,36,37
279.5 90 m 0,50,51
 293.5 90 293.5 90 309.5 117 c 128,-1,52
 325.5 144 325.5 144 339 185.5 c 128,-1,53
 352.5 227 352.5 227 361.5 275.5 c 128,-1,54
 370.5 324 370.5 324 370.5 366 c 0,55,56
 370.5 399 370.5 399 365 428.5 c 128,-1,57
 359.5 458 359.5 458 349.5 480.5 c 128,-1,58
 339.5 503 339.5 503 327 516 c 128,-1,59
 314.5 529 314.5 529 300.5 529 c 0,60,61
 284.5 529 284.5 529 269.5 511.5 c 128,-1,62
 254.5 494 254.5 494 244 463.5 c 128,-1,63
 233.5 433 233.5 433 227 392.5 c 128,-1,64
 220.5 352 220.5 352 220.5 306 c 0,65,66
 220.5 265 220.5 265 225.5 226 c 128,-1,67
 230.5 187 230.5 187 239 157 c 128,-1,68
 247.5 127 247.5 127 258 108.5 c 128,-1,69
 268.5 90 268.5 90 279.5 90 c 0,50,51
207.5 33 m 0,70,71
 211.5 33 211.5 33 214 36.5 c 128,-1,72
 216.5 40 216.5 40 215.5 43 c 256,73,74
 214.5 46 214.5 46 210 51.5 c 128,-1,75
 205.5 57 205.5 57 199.5 64.5 c 128,-1,76
 193.5 72 193.5 72 188 80.5 c 128,-1,77
 182.5 89 182.5 89 180.5 97 c 0,78,79
 179.5 101 179.5 101 178 107.5 c 128,-1,80
 176.5 114 176.5 114 174.5 120.5 c 128,-1,81
 172.5 127 172.5 127 170.5 131.5 c 128,-1,82
 168.5 136 168.5 136 165.5 136 c 0,83,84
 160.5 136 160.5 136 160.5 122.5 c 128,-1,85
 160.5 109 160.5 109 167.5 89 c 0,86,87
 175.5 69 175.5 69 187.5 51 c 128,-1,88
 199.5 33 199.5 33 207.5 33 c 0,70,71
436.5 22 m 256,89,90
 436.5 25 436.5 25 433 29 c 128,-1,91
 429.5 33 429.5 33 425 38 c 128,-1,92
 420.5 43 420.5 43 417 49.5 c 128,-1,93
 413.5 56 413.5 56 413.5 63 c 0,94,95
 413.5 66 413.5 66 412.5 69 c 0,96,97
 410.5 74 410.5 74 406.5 74 c 0,98,99
 399.5 74 399.5 74 399.5 62 c 0,100,101
 399.5 46 399.5 46 408.5 29.5 c 128,-1,102
 417.5 13 417.5 13 426.5 13 c 0,103,104
 430.5 13 430.5 13 433.5 16 c 128,-1,105
 436.5 19 436.5 19 436.5 22 c 256,89,90
232.5 17 m 256,106,107
 235.5 17 235.5 17 239 21 c 128,-1,108
 242.5 25 242.5 25 244 29.5 c 128,-1,109
 245.5 34 245.5 34 244 38 c 128,-1,110
 242.5 42 242.5 42 236.5 42 c 0,111,112
 224.5 42 224.5 42 224.5 30 c 0,113,114
 224.5 25 224.5 25 227 21 c 128,-1,115
 229.5 17 229.5 17 232.5 17 c 256,106,107
EndSplineSet
Substitution2: "'c2sc' Capitals to Small Capitals lookup 38 subtable" a.sc
Substitution2: "Single Substitution lookup 33 subtable" ordfeminine
AlternateSubs2: "'aalt' Access All Alternates lookup 1 subtable" ordfeminine a.sc
EndChar

StartChar: B
Encoding: 66 66 36
Width: 600
GlyphClass: 2
Flags: W
LayerCount: 2
Fore
SplineSet
365 546 m 0,0,1
 325 546 325 546 296.5 574 c 128,-1,2
 268 602 268 602 268 646 c 0,3,4
 268 670 268 670 276.5 691.5 c 128,-1,5
 285 713 285 713 300 728.5 c 128,-1,6
 315 744 315 744 336 753.5 c 128,-1,7
 357 763 357 763 382 763 c 0,8,9
 402 763 402 763 419 754.5 c 128,-1,10
 436 746 436 746 448 731 c 128,-1,11
 460 716 460 716 466.5 697 c 128,-1,12
 473 678 473 678 473 657 c 0,13,14
 473 630 473 630 464.5 609.5 c 128,-1,15
 456 589 456 589 441 575 c 128,-1,16
 426 561 426 561 406.5 553.5 c 128,-1,17
 387 546 387 546 365 546 c 0,0,1
328 719 m 0,18,19
 335 726 335 726 336.5 731 c 128,-1,20
 338 736 338 736 336 736 c 0,21,22
 328 736 328 736 319 728.5 c 128,-1,23
 310 721 310 721 302.5 710.5 c 128,-1,24
 295 700 295 700 290 688 c 128,-1,25
 285 676 285 676 285 666 c 0,26,27
 285 664 285 664 286.5 658 c 128,-1,28
 288 652 288 652 291 652 c 0,29,30
 295 652 295 652 301 674 c 0,31,32
 304 688 304 688 312 699.5 c 128,-1,33
 320 711 320 711 328 719 c 0,18,19
369 603 m 0,34,35
 381 603 381 603 397.5 617 c 128,-1,36
 414 631 414 631 414 657 c 0,37,38
 414 677 414 677 403.5 690.5 c 128,-1,39
 393 704 393 704 376 704 c 256,40,41
 359 704 359 704 345 690.5 c 128,-1,42
 331 677 331 677 331 653 c 256,43,44
 331 629 331 629 342 616 c 128,-1,45
 353 603 353 603 369 603 c 0,34,35
172 655 m 0,46,47
 152 655 152 655 135 640 c 128,-1,48
 118 625 118 625 118 586 c 2,49,-1
 118 91 l 2,50,51
 118 70 118 70 126.5 53 c 128,-1,52
 135 36 135 36 149.5 24.5 c 128,-1,53
 164 13 164 13 182.5 7 c 128,-1,54
 201 1 201 1 221 1 c 2,55,-1
 280 1 l 2,56,57
 311 1 311 1 346.5 13 c 128,-1,58
 382 25 382 25 412 51 c 128,-1,59
 442 77 442 77 462 119 c 128,-1,60
 482 161 482 161 482 220 c 256,61,62
 482 279 482 279 462.5 325.5 c 128,-1,63
 443 372 443 372 414 403.5 c 128,-1,64
 385 435 385 435 351 451.5 c 128,-1,65
 317 468 317 468 287 468 c 2,66,-1
 258 468 l 2,67,68
 249 468 249 468 240.5 472 c 128,-1,69
 232 476 232 476 232 485 c 2,70,-1
 232 590 l 2,71,72
 232 608 232 608 226.5 620 c 128,-1,73
 221 632 221 632 212 640 c 128,-1,74
 203 648 203 648 192.5 651.5 c 128,-1,75
 182 655 182 655 172 655 c 0,46,47
276 379 m 2,76,77
 293 379 293 379 309 371 c 128,-1,78
 325 363 325 363 338.5 345.5 c 128,-1,79
 352 328 352 328 360 300 c 128,-1,80
 368 272 368 272 368 232 c 0,81,82
 368 189 368 189 360 160.5 c 128,-1,83
 352 132 352 132 339 115.5 c 128,-1,84
 326 99 326 99 310 92 c 128,-1,85
 294 85 294 85 279 85 c 2,86,-1
 257 85 l 2,87,88
 232 85 232 85 232 119 c 2,89,-1
 232 356 l 2,90,91
 232 379 232 379 263 379 c 2,92,-1
 276 379 l 2,76,77
158 620 m 256,93,94
 153 615 153 615 149.5 602 c 128,-1,95
 146 589 146 589 146 550.5 c 128,-1,96
 146 512 146 512 139 512 c 0,97,98
 134 512 134 512 132.5 520.5 c 128,-1,99
 131 529 131 529 131 541 c 0,100,101
 131 603 131 603 138 619 c 128,-1,102
 145 635 145 635 155 635 c 0,103,104
 157 635 157 635 160 633 c 128,-1,105
 163 631 163 631 163 629 c 0,106,107
 163 625 163 625 158 620 c 256,93,94
EndSplineSet
Substitution2: "'c2sc' Capitals to Small Capitals lookup 38 subtable" b.sc
Substitution2: "'aalt' Access All Alternates lookup 0 subtable" b.sc
EndChar

StartChar: C
Encoding: 67 67 37
Width: 600
GlyphClass: 2
Flags: W
LayerCount: 2
Fore
SplineSet
313 584 m 0
 273 584 273 584 244.5 612 c 0
 216 640 216 640 216 684 c 0
 216 708 216 708 224.5 729.5 c 0
 233 751 233 751 248 766.5 c 0
 263 782 263 782 284 791.5 c 0
 305 801 305 801 330 801 c 0
 350 801 350 801 367 792.5 c 0
 384 784 384 784 396 769 c 0
 408 754 408 754 414.5 735 c 0
 421 716 421 716 421 695 c 0
 421 668 421 668 412.5 647.5 c 0
 404 627 404 627 389 613 c 0
 374 599 374 599 354.5 591.5 c 0
 335 584 335 584 313 584 c 0
276 757 m 0
 283 764 283 764 284.5 769 c 0
 286 774 286 774 284 774 c 0
 276 774 276 774 267 766.5 c 0
 258 759 258 759 250.5 748.5 c 0
 243 738 243 738 238 726 c 0
 233 714 233 714 233 704 c 0
 233 702 233 702 234.5 696 c 0
 236 690 236 690 239 690 c 0
 243 690 243 690 249 712 c 0
 252 726 252 726 260 737.5 c 0
 268 749 268 749 276 757 c 0
317 641 m 0
 329 641 329 641 345.5 655 c 0
 362 669 362 669 362 695 c 0
 362 715 362 715 351.5 728.5 c 0
 341 742 341 742 324 742 c 256
 307 742 307 742 293 728.5 c 0
 279 715 279 715 279 691 c 256
 279 667 279 667 290 654 c 0
 301 641 301 641 317 641 c 0
EndSplineSet
Refer: 69 99 N 1 0 0 1 0 -15 2
Substitution2: "'c2sc' Capitals to Small Capitals lookup 38 subtable" c.sc
Substitution2: "'aalt' Access All Alternates lookup 0 subtable" c.sc
EndChar

StartChar: D
Encoding: 68 68 38
Width: 600
GlyphClass: 2
Flags: W
LayerCount: 2
Fore
SplineSet
200.5 0 m 2,0,1
 182.5 0 182.5 0 166 4 c 128,-1,2
 149.5 8 149.5 8 137 18 c 128,-1,3
 124.5 28 124.5 28 117 45 c 128,-1,4
 109.5 62 109.5 62 109.5 88 c 2,5,-1
 109.5 516 l 2,6,7
 109.5 543 109.5 543 119 562.5 c 128,-1,8
 128.5 582 128.5 582 144 594.5 c 128,-1,9
 159.5 607 159.5 607 180.5 612.5 c 128,-1,10
 201.5 618 201.5 618 224.5 618 c 2,11,-1
 269.5 618 l 2,12,13
 312.5 618 312.5 618 352.5 598.5 c 128,-1,14
 392.5 579 392.5 579 423 541.5 c 128,-1,15
 453.5 504 453.5 504 472 449.5 c 128,-1,16
 490.5 395 490.5 395 490.5 326 c 0,17,18
 490.5 253 490.5 253 471.5 192.5 c 128,-1,19
 452.5 132 452.5 132 420.5 89.5 c 128,-1,20
 388.5 47 388.5 47 345.5 23.5 c 128,-1,21
 302.5 0 302.5 0 255.5 0 c 2,22,-1
 200.5 0 l 2,0,1
250.5 96 m 2,23,24
 276.5 96 276.5 96 299.5 112.5 c 128,-1,25
 322.5 129 322.5 129 339 159.5 c 128,-1,26
 355.5 190 355.5 190 365 233 c 128,-1,27
 374.5 276 374.5 276 374.5 329 c 0,28,29
 374.5 424 374.5 424 344.5 472 c 128,-1,30
 314.5 520 314.5 520 266.5 520 c 2,31,-1
 251.5 520 l 2,32,33
 234.5 520 234.5 520 229 512.5 c 128,-1,34
 223.5 505 223.5 505 223.5 480 c 2,35,-1
 223.5 132 l 2,36,37
 223.5 112 223.5 112 227 104 c 128,-1,38
 230.5 96 230.5 96 237.5 96 c 2,39,-1
 250.5 96 l 2,23,24
140.5 83 m 0,40,41
 144.5 83 144.5 83 146 93.5 c 128,-1,42
 147.5 104 147.5 104 147.5 117.5 c 128,-1,43
 147.5 131 147.5 131 147 143.5 c 128,-1,44
 146.5 156 146.5 156 146.5 161 c 0,45,46
 146.5 216 146.5 216 140.5 216 c 0,47,48
 137.5 216 137.5 216 134.5 203.5 c 128,-1,49
 131.5 191 131.5 191 131.5 161 c 0,50,51
 131.5 116 131.5 116 132 99.5 c 128,-1,52
 132.5 83 132.5 83 140.5 83 c 0,40,41
139.5 69 m 0,53,54
 132.5 69 132.5 69 132.5 58 c 0,55,56
 132.5 40 132.5 40 140.5 40 c 0,57,58
 143.5 40 143.5 40 145.5 46 c 128,-1,59
 147.5 52 147.5 52 147.5 58 c 0,60,61
 147.5 69 147.5 69 139.5 69 c 0,53,54
EndSplineSet
Substitution2: "'c2sc' Capitals to Small Capitals lookup 38 subtable" d.sc
Substitution2: "'aalt' Access All Alternates lookup 0 subtable" d.sc
EndChar

StartChar: E
Encoding: 69 69 39
Width: 600
GlyphClass: 2
Flags: W
AnchorPoint: "Anchor-7" 300 268 basechar 0
AnchorPoint: "Anchor-5" 296 0 basechar 0
AnchorPoint: "Anchor-4" 322 536 basechar 0
LayerCount: 2
Fore
SplineSet
185 333.5 m 0,0,1
 173 349.5 173 349.5 164 365 c 128,-1,2
 155 380.5 155 380.5 153 395.5 c 0,3,4
 150 409.5 150 409.5 144 408.5 c 0,5,6
 136 408.5 136 408.5 139 390.5 c 0,7,8
 140 381.5 140 381.5 144.5 368.5 c 128,-1,9
 149 355.5 149 355.5 155 344.5 c 128,-1,10
 161 333.5 161 333.5 169 326 c 128,-1,11
 177 318.5 177 318.5 186 319.5 c 0,12,13
 194 321.5 194 321.5 185 333.5 c 0,0,1
171 60 m 0,14,15
 159 76 159 76 150 91.5 c 128,-1,16
 141 107 141 107 139 122 c 0,17,18
 136 136 136 136 130 135 c 0,19,20
 122 135 122 135 125 117 c 0,21,22
 126 108 126 108 130.5 95 c 128,-1,23
 135 82 135 82 141 71 c 128,-1,24
 147 60 147 60 155 52.5 c 128,-1,25
 163 45 163 45 172 46 c 0,26,27
 180 48 180 48 171 60 c 0,14,15
409 315 m 1,28,-1
 409 243 l 1,29,-1
 336 243 l 2,30,31
 285 243 285 243 251.5 232.5 c 128,-1,32
 218 222 218 222 201.5 202 c 128,-1,33
 185 182 185 182 185 151 c 0,34,35
 185 118 185 118 204 98.5 c 128,-1,36
 223 79 223 79 255 70.5 c 128,-1,37
 287 62 287 62 327 62 c 0,38,39
 383 62 383 62 425.5 75 c 128,-1,40
 468 88 468 88 501 104 c 1,41,-1
 501 27 l 1,42,43
 470 11 470 11 427 0.5 c 128,-1,44
 384 -10 384 -10 322 -10 c 0,45,46
 207 -10 207 -10 152 34.5 c 128,-1,47
 97 79 97 79 97 146 c 0,48,49
 97 186 97 186 113.5 211.5 c 128,-1,50
 130 237 130 237 157 252.5 c 128,-1,51
 184 268 184 268 216 277 c 1,52,-1
 216 282 l 1,53,54
 171 296 171 296 143.5 325.5 c 128,-1,55
 116 355 116 355 116 404 c 0,56,57
 116 449 116 449 142.5 481 c 128,-1,58
 169 513 169 513 215.5 529.5 c 128,-1,59
 262 546 262 546 322 546 c 0,60,61
 380 546 380 546 421.5 536 c 128,-1,62
 463 526 463 526 503 508 c 1,63,-1
 470 438 l 1,64,65
 437 453 437 453 402.5 463 c 128,-1,66
 368 473 368 473 321 473 c 0,67,68
 261 473 261 473 230.5 454 c 128,-1,69
 200 435 200 435 200 397 c 0,70,71
 200 353 200 353 241.5 334 c 128,-1,72
 283 315 283 315 353 315 c 2,73,-1
 409 315 l 1,28,-1
EndSplineSet
Substitution2: "'c2sc' Capitals to Small Capitals lookup 38 subtable" e.sc
Substitution2: "'aalt' Access All Alternates lookup 0 subtable" e.sc
EndChar

StartChar: F
Encoding: 70 70 40
Width: 600
GlyphClass: 2
Flags: W
LayerCount: 2
Fore
SplineSet
211.5 0 m 0,0,1
 184.5 0 184.5 0 167 9.5 c 128,-1,2
 149.5 19 149.5 19 149.5 49 c 2,3,-1
 149.5 543 l 2,4,5
 149.5 582 149.5 582 178 599.5 c 128,-1,6
 206.5 617 206.5 617 251.5 617 c 2,7,-1
 421.5 616 l 2,8,9
 432.5 616 432.5 616 441.5 604.5 c 128,-1,10
 450.5 593 450.5 593 450.5 579 c 0,11,12
 450.5 572 450.5 572 449 561.5 c 128,-1,13
 447.5 551 447.5 551 444.5 541.5 c 128,-1,14
 441.5 532 441.5 532 437 525.5 c 128,-1,15
 432.5 519 432.5 519 426.5 519 c 2,16,-1
 289.5 520 l 2,17,18
 263.5 520 263.5 520 263.5 494 c 2,19,-1
 263.5 345 l 2,20,21
 263.5 335 263.5 335 270 330.5 c 128,-1,22
 276.5 326 276.5 326 286.5 326 c 2,23,-1
 392.5 329 l 2,24,25
 400.5 329 400.5 329 406.5 324 c 128,-1,26
 412.5 319 412.5 319 417.5 310.5 c 128,-1,27
 422.5 302 422.5 302 425 293 c 128,-1,28
 427.5 284 427.5 284 427.5 276 c 0,29,30
 427.5 237 427.5 237 389.5 236 c 2,31,-1
 283.5 233 l 2,32,33
 275.5 233 275.5 233 269.5 227 c 128,-1,34
 263.5 221 263.5 221 263.5 213 c 2,35,-1
 263.5 48 l 2,36,37
 263.5 32 263.5 32 259 22.5 c 128,-1,38
 254.5 13 254.5 13 247 8 c 128,-1,39
 239.5 3 239.5 3 230 1.5 c 128,-1,40
 220.5 0 220.5 0 211.5 0 c 0,0,1
199.5 26 m 0,41,42
 198.5 31 198.5 31 190 42 c 128,-1,43
 181.5 53 181.5 53 179.5 78 c 0,44,45
 177.5 91 177.5 91 174 94 c 128,-1,46
 170.5 97 170.5 97 168.5 97 c 256,47,48
 166.5 97 166.5 97 165 91 c 128,-1,49
 163.5 85 163.5 85 165.5 75 c 0,50,51
 165.5 70 165.5 70 167.5 60.5 c 128,-1,52
 169.5 51 169.5 51 173 41.5 c 128,-1,53
 176.5 32 176.5 32 181.5 25 c 128,-1,54
 186.5 18 186.5 18 193.5 19 c 0,55,56
 199.5 19 199.5 19 199.5 26 c 0,41,42
EndSplineSet
Substitution2: "'c2sc' Capitals to Small Capitals lookup 38 subtable" f.sc
Substitution2: "'aalt' Access All Alternates lookup 0 subtable" f.sc
EndChar

StartChar: G
Encoding: 71 71 41
Width: 600
GlyphClass: 2
Flags: W
LayerCount: 2
Fore
SplineSet
330 621 m 0,0,1
 290 621 290 621 261.5 649 c 128,-1,2
 233 677 233 677 233 721 c 0,3,4
 233 745 233 745 241.5 766.5 c 128,-1,5
 250 788 250 788 265 803.5 c 128,-1,6
 280 819 280 819 301 828.5 c 128,-1,7
 322 838 322 838 347 838 c 0,8,9
 367 838 367 838 384 829.5 c 128,-1,10
 401 821 401 821 413 806 c 128,-1,11
 425 791 425 791 431.5 772 c 128,-1,12
 438 753 438 753 438 732 c 0,13,14
 438 705 438 705 429.5 684.5 c 128,-1,15
 421 664 421 664 406 650 c 128,-1,16
 391 636 391 636 371.5 628.5 c 128,-1,17
 352 621 352 621 330 621 c 0,0,1
293 794 m 0,18,19
 300 801 300 801 301.5 806 c 128,-1,20
 303 811 303 811 301 811 c 0,21,22
 293 811 293 811 284 803.5 c 128,-1,23
 275 796 275 796 267.5 785.5 c 128,-1,24
 260 775 260 775 255 763 c 128,-1,25
 250 751 250 751 250 741 c 0,26,27
 250 739 250 739 251.5 733 c 128,-1,28
 253 727 253 727 256 727 c 0,29,30
 260 727 260 727 266 749 c 0,31,32
 269 763 269 763 277 774.5 c 128,-1,33
 285 786 285 786 293 794 c 0,18,19
334 678 m 0,34,35
 346 678 346 678 362.5 692 c 128,-1,36
 379 706 379 706 379 732 c 0,37,38
 379 752 379 752 368.5 765.5 c 128,-1,39
 358 779 358 779 341 779 c 256,40,41
 324 779 324 779 310 765.5 c 128,-1,42
 296 752 296 752 296 728 c 256,43,44
 296 704 296 704 307 691 c 128,-1,45
 318 678 318 678 334 678 c 0,34,35
299 -37 m 0,46,47
 236 -37 236 -37 195.5 -4 c 128,-1,48
 155 29 155 29 132 79 c 128,-1,49
 109 129 109 129 100.5 187 c 128,-1,50
 92 245 92 245 92 296 c 0,51,52
 92 352 92 352 105.5 405.5 c 128,-1,53
 119 459 119 459 147.5 500.5 c 128,-1,54
 176 542 176 542 221.5 567.5 c 128,-1,55
 267 593 267 593 331 593 c 0,56,57
 358 593 358 593 387.5 587 c 128,-1,58
 417 581 417 581 441.5 564.5 c 128,-1,59
 466 548 466 548 482.5 520 c 128,-1,60
 499 492 499 492 499 448 c 0,61,62
 499 432 499 432 492.5 422.5 c 128,-1,63
 486 413 486 413 476.5 407.5 c 128,-1,64
 467 402 467 402 457 400.5 c 128,-1,65
 447 399 447 399 441 399 c 0,66,67
 427 399 427 399 414.5 409 c 128,-1,68
 402 419 402 419 402 448 c 0,69,70
 402 471 402 471 394 483 c 128,-1,71
 386 495 386 495 375 500.5 c 128,-1,72
 364 506 364 506 353.5 507 c 128,-1,73
 343 508 343 508 337 508 c 0,74,75
 311 508 311 508 288 492.5 c 128,-1,76
 265 477 265 477 247.5 448 c 128,-1,77
 230 419 230 419 220 377 c 128,-1,78
 210 335 210 335 210 282 c 0,79,80
 210 253 210 253 213.5 213 c 128,-1,81
 217 173 217 173 229 137 c 128,-1,82
 241 101 241 101 263 75.5 c 128,-1,83
 285 50 285 50 321 50 c 0,84,85
 344 50 344 50 361 65 c 128,-1,86
 378 80 378 80 389.5 102 c 128,-1,87
 401 124 401 124 407 148.5 c 128,-1,88
 413 173 413 173 412 192 c 0,89,90
 411 208 411 208 392.5 209.5 c 128,-1,91
 374 211 374 211 351 211 c 2,92,-1
 289 211 l 2,93,94
 283 211 283 211 278 217 c 128,-1,95
 273 223 273 223 270 231.5 c 128,-1,96
 267 240 267 240 265 249 c 128,-1,97
 263 258 263 258 263 264 c 0,98,99
 263 280 263 280 273.5 292.5 c 128,-1,100
 284 305 284 305 307 305 c 2,101,-1
 432 304 l 2,102,103
 445 304 445 304 458.5 298.5 c 128,-1,104
 472 293 472 293 482.5 282.5 c 128,-1,105
 493 272 493 272 500 255.5 c 128,-1,106
 507 239 507 239 507 216 c 0,107,108
 507 181 507 181 507.5 151 c 128,-1,109
 508 121 508 121 508 77 c 0,110,111
 508 43 508 43 505.5 22 c 128,-1,112
 503 1 503 1 497 -11 c 128,-1,113
 491 -23 491 -23 482.5 -27.5 c 128,-1,114
 474 -32 474 -32 462 -32 c 0,115,116
 445 -32 445 -32 437 -19.5 c 128,-1,117
 429 -7 429 -7 425.5 8 c 128,-1,118
 422 23 422 23 421 35.5 c 128,-1,119
 420 48 420 48 417 48 c 256,120,121
 414 48 414 48 408 34.5 c 128,-1,122
 402 21 402 21 389 5.5 c 128,-1,123
 376 -10 376 -10 355 -23.5 c 128,-1,124
 334 -37 334 -37 299 -37 c 0,46,47
204 44 m 0,125,126
 204 49 204 49 188 72 c 0,127,128
 181 83 181 83 174 97.5 c 128,-1,129
 167 112 167 112 162 126 c 128,-1,130
 157 140 157 140 154 152 c 128,-1,131
 151 164 151 164 152 168 c 0,132,133
 153 173 153 173 150 175.5 c 128,-1,134
 147 178 147 178 146 178 c 0,135,136
 138 178 138 178 136 167 c 256,137,138
 134 156 134 156 139.5 135 c 128,-1,139
 145 114 145 114 154.5 93 c 128,-1,140
 164 72 164 72 175.5 56 c 128,-1,141
 187 40 187 40 196 39 c 0,142,143
 203 37 203 37 204 44 c 0,125,126
467 -7 m 0,144,145
 467 1 467 1 459 6.5 c 128,-1,146
 451 12 451 12 450 24 c 0,147,148
 450 27 450 27 449.5 35 c 128,-1,149
 449 43 449 43 444 43 c 256,150,151
 439 43 439 43 438 36.5 c 128,-1,152
 437 30 437 30 437 25 c 256,153,154
 437 20 437 20 438.5 12.5 c 128,-1,155
 440 5 440 5 443 -1.5 c 128,-1,156
 446 -8 446 -8 450 -13 c 128,-1,157
 454 -18 454 -18 459 -18 c 256,158,159
 464 -18 464 -18 465.5 -14 c 128,-1,160
 467 -10 467 -10 467 -7 c 0,144,145
224 27 m 0,161,162
 225 30 225 30 222.5 32.5 c 128,-1,163
 220 35 220 35 218 35 c 0,164,165
 214 36 214 36 212.5 33 c 128,-1,166
 211 30 211 30 210 28 c 0,167,168
 209 23 209 23 211.5 21.5 c 128,-1,169
 214 20 214 20 216 20 c 0,170,171
 222 20 222 20 224 27 c 0,161,162
EndSplineSet
Substitution2: "'c2sc' Capitals to Small Capitals lookup 38 subtable" g.sc
Substitution2: "'aalt' Access All Alternates lookup 0 subtable" g.sc
EndChar

StartChar: H
Encoding: 72 72 42
Width: 600
GlyphClass: 2
Flags: W
LayerCount: 2
Fore
SplineSet
419 0 m 256,0,1
 402 0 402 0 392 9.5 c 128,-1,2
 382 19 382 19 377 33 c 128,-1,3
 372 47 372 47 370.5 63 c 128,-1,4
 369 79 369 79 369 92 c 2,5,-1
 369 238 l 2,6,7
 369 242 369 242 369 247 c 128,-1,8
 369 252 369 252 368 256.5 c 128,-1,9
 367 261 367 261 364 263.5 c 128,-1,10
 361 266 361 266 356 264 c 2,11,-1
 249 233 l 2,12,13
 240 231 240 231 235.5 229 c 128,-1,14
 231 227 231 227 231 217 c 2,15,-1
 231 105 l 2,16,17
 231 93 231 93 229 75 c 128,-1,18
 227 57 227 57 221.5 40.5 c 128,-1,19
 216 24 216 24 206 12 c 128,-1,20
 196 0 196 0 179 0 c 0,21,22
 158 0 158 0 146 10.5 c 128,-1,23
 134 21 134 21 128 37 c 128,-1,24
 122 53 122 53 120.5 71 c 128,-1,25
 119 89 119 89 119 105 c 2,26,-1
 119 542 l 2,27,28
 119 567 119 567 133.5 589.5 c 128,-1,29
 148 612 148 612 176 612 c 0,30,31
 190 612 190 612 200.5 605.5 c 128,-1,32
 211 599 211 599 218 588.5 c 128,-1,33
 225 578 225 578 228 565 c 128,-1,34
 231 552 231 552 231 540 c 2,35,-1
 231 339 l 2,36,37
 231 332 231 332 233 324.5 c 128,-1,38
 235 317 235 317 244 319 c 2,39,-1
 358 349 l 2,40,41
 367 351 367 351 368 356 c 128,-1,42
 369 361 369 361 369 368 c 2,43,-1
 369 540 l 2,44,45
 369 551 369 551 370.5 564 c 128,-1,46
 372 577 372 577 377 588.5 c 128,-1,47
 382 600 382 600 391 608 c 128,-1,48
 400 616 400 616 414 616 c 0,49,50
 447 616 447 616 464 591.5 c 128,-1,51
 481 567 481 567 481 537 c 2,52,-1
 481 91 l 2,53,54
 481 78 481 78 477.5 62 c 128,-1,55
 474 46 474 46 466.5 32 c 128,-1,56
 459 18 459 18 447.5 9 c 128,-1,57
 436 0 436 0 419 0 c 256,0,1
390 552 m 256,58,59
 393 552 393 552 397.5 558 c 128,-1,60
 402 564 402 564 406 571.5 c 128,-1,61
 410 579 410 579 412.5 586.5 c 128,-1,62
 415 594 415 594 415 597 c 256,63,64
 415 600 415 600 411 600 c 0,65,66
 399 600 399 600 392 586 c 128,-1,67
 385 572 385 572 385 562 c 0,68,69
 385 560 385 560 386 556 c 128,-1,70
 387 552 387 552 390 552 c 256,58,59
161 30 m 1,71,72
 160 36 160 36 158 40.5 c 128,-1,73
 156 45 156 45 153.5 50.5 c 128,-1,74
 151 56 151 56 149.5 64.5 c 128,-1,75
 148 73 148 73 148 86 c 0,76,77
 148 90 148 90 147 96.5 c 128,-1,78
 146 103 146 103 141 103 c 0,79,80
 137 103 137 103 136 96 c 128,-1,81
 135 89 135 89 135 86 c 0,82,83
 135 82 135 82 136 72 c 128,-1,84
 137 62 137 62 139 52 c 128,-1,85
 141 42 141 42 145 34.5 c 128,-1,86
 149 27 149 27 155 27 c 2,87,-1
 161 30 l 1,71,72
410 20 m 0,88,89
 410 22 410 22 409 23 c 128,-1,90
 408 24 408 24 407 26 c 0,91,92
 400 35 400 35 396 50.5 c 128,-1,93
 392 66 392 66 392 77 c 1,94,-1
 390 81 l 1,95,96
 385 81 385 81 384 71 c 128,-1,97
 383 61 383 61 383 58 c 0,98,99
 383 47 383 47 387.5 32 c 128,-1,100
 392 17 392 17 407 17 c 0,101,102
 410 17 410 17 410 20 c 0,88,89
EndSplineSet
Substitution2: "'c2sc' Capitals to Small Capitals lookup 38 subtable" h.sc
Substitution2: "'aalt' Access All Alternates lookup 0 subtable" h.sc
EndChar

StartChar: I
Encoding: 73 73 43
Width: 600
GlyphClass: 2
Flags: W
LayerCount: 2
Fore
SplineSet
167 484 m 1,0,-1
 277 792 l 1,1,-1
 327 792 l 1,2,-1
 433 484 l 1,3,-1
 355 484 l 1,4,-1
 303 699 l 1,5,-1
 245 484 l 1,6,-1
 167 484 l 1,0,-1
295 -4 m 256,7,8
 271 -4 271 -4 258 6.5 c 128,-1,9
 245 17 245 17 245 32 c 2,10,-1
 245 387 l 2,11,12
 245 396 245 396 247.5 408 c 128,-1,13
 250 420 250 420 255.5 430 c 128,-1,14
 261 440 261 440 270.5 447 c 128,-1,15
 280 454 280 454 295 454 c 256,16,17
 310 454 310 454 320.5 448 c 128,-1,18
 331 442 331 442 337.5 433 c 128,-1,19
 344 424 344 424 347.5 413 c 128,-1,20
 351 402 351 402 351 392 c 2,21,-1
 351 32 l 2,22,23
 351 16 351 16 335 6 c 128,-1,24
 319 -4 319 -4 295 -4 c 256,7,8
263 359 m 0,25,26
 266 359 266 359 267 365 c 128,-1,27
 268 371 268 371 268 379.5 c 128,-1,28
 268 388 268 388 268.5 397.5 c 128,-1,29
 269 407 269 407 271 413 c 0,30,31
 272 417 272 417 274 424 c 128,-1,32
 276 431 276 431 273 431 c 0,33,34
 268 431 268 431 264.5 425.5 c 128,-1,35
 261 420 261 420 258.5 412.5 c 128,-1,36
 256 405 256 405 255 396.5 c 128,-1,37
 254 388 254 388 254 383 c 0,38,39
 254 376 254 376 256 367.5 c 128,-1,40
 258 359 258 359 263 359 c 0,25,26
EndSplineSet
Substitution2: "'ss04' Style Set 4 lookup 45 subtable" I.salt
Substitution2: "'c2sc' Capitals to Small Capitals lookup 38 subtable" i.sc
AlternateSubs2: "'aalt' Access All Alternates lookup 1 subtable" I.salt i.sc
EndChar

StartChar: J
Encoding: 74 74 44
Width: 600
GlyphClass: 2
Flags: W
LayerCount: 2
Fore
SplineSet
303 -8 m 0,0,1
 258 -8 258 -8 226 4.5 c 128,-1,2
 194 17 194 17 174 38.5 c 128,-1,3
 154 60 154 60 145 88.5 c 128,-1,4
 136 117 136 117 136 149 c 0,5,6
 136 203 136 203 149 221.5 c 128,-1,7
 162 240 162 240 178 240 c 0,8,9
 186 240 186 240 195 238 c 128,-1,10
 204 236 204 236 212 230.5 c 128,-1,11
 220 225 220 225 225 215 c 128,-1,12
 230 205 230 205 230 188 c 0,13,14
 230 172 230 172 231.5 153 c 128,-1,15
 233 134 233 134 238.5 118 c 128,-1,16
 244 102 244 102 255 91.5 c 128,-1,17
 266 81 266 81 286 81 c 0,18,19
 304 81 304 81 316 86 c 128,-1,20
 328 91 328 91 335.5 104.5 c 128,-1,21
 343 118 343 118 346 141 c 128,-1,22
 349 164 349 164 349 199 c 0,23,24
 349 237 349 237 349.5 290 c 128,-1,25
 350 343 350 343 350 412 c 2,26,-1
 350 517 l 2,27,28
 350 525 350 525 342.5 530.5 c 128,-1,29
 335 536 335 536 327 536 c 2,30,-1
 286 536 l 2,31,32
 232 536 232 536 209.5 546 c 128,-1,33
 187 556 187 556 187 579 c 0,34,35
 187 594 187 594 195 601.5 c 128,-1,36
 203 609 203 609 221 612 c 128,-1,37
 239 615 239 615 268 615.5 c 128,-1,38
 297 616 297 616 339 616 c 0,39,40
 399 616 399 616 428.5 609 c 128,-1,41
 458 602 458 602 463 584 c 0,42,43
 464 581 464 581 464 558.5 c 128,-1,44
 464 536 464 536 464 502.5 c 128,-1,45
 464 469 464 469 463.5 429.5 c 128,-1,46
 463 390 463 390 463 353 c 0,47,48
 462 289 462 289 462 247 c 128,-1,49
 462 205 462 205 461.5 177 c 128,-1,50
 461 149 461 149 458.5 129.5 c 128,-1,51
 456 110 456 110 451 90 c 0,52,53
 444 65 444 65 428 46.5 c 128,-1,54
 412 28 412 28 391 16 c 128,-1,55
 370 4 370 4 347 -2 c 128,-1,56
 324 -8 324 -8 303 -8 c 0,0,1
243 594 m 0,57,58
 245 599 245 599 241 600 c 0,59,60
 234 602 234 602 220.5 598 c 128,-1,61
 207 594 207 594 205 587 c 0,62,63
 204 584 204 584 205 580.5 c 128,-1,64
 206 577 206 577 208 576 c 0,65,66
 216 574 216 574 228.5 581 c 128,-1,67
 241 588 241 588 243 594 c 0,57,58
157 144 m 0,68,69
 162 145 162 145 163.5 157 c 128,-1,70
 165 169 165 169 166 173 c 0,71,72
 168 183 168 183 170.5 194 c 128,-1,73
 173 205 173 205 180 214 c 0,74,75
 185 219 185 219 184 223 c 0,76,77
 184 225 184 225 182 226.5 c 128,-1,78
 180 228 180 228 178 227 c 0,79,80
 169 226 169 226 163 217 c 128,-1,81
 157 208 157 208 154 197 c 128,-1,82
 151 186 151 186 150 176 c 128,-1,83
 149 166 149 166 149 163 c 0,84,85
 150 155 150 155 152 149 c 128,-1,86
 154 143 154 143 157 144 c 0,68,69
EndSplineSet
Substitution2: "'ss04' Style Set 4 lookup 45 subtable" J.salt
Substitution2: "'c2sc' Capitals to Small Capitals lookup 38 subtable" j.sc
AlternateSubs2: "'aalt' Access All Alternates lookup 1 subtable" J.salt j.sc
EndChar

StartChar: K
Encoding: 75 75 45
Width: 600
GlyphClass: 2
Flags: W
LayerCount: 2
Fore
SplineSet
251.5 575 m 0,0,1
 211.5 575 211.5 575 183 603 c 128,-1,2
 154.5 631 154.5 631 154.5 675 c 0,3,4
 154.5 699 154.5 699 163 720.5 c 128,-1,5
 171.5 742 171.5 742 186.5 757.5 c 128,-1,6
 201.5 773 201.5 773 222.5 782.5 c 128,-1,7
 243.5 792 243.5 792 268.5 792 c 0,8,9
 288.5 792 288.5 792 305.5 783.5 c 128,-1,10
 322.5 775 322.5 775 334.5 760 c 128,-1,11
 346.5 745 346.5 745 353 726 c 128,-1,12
 359.5 707 359.5 707 359.5 686 c 0,13,14
 359.5 659 359.5 659 351 638.5 c 128,-1,15
 342.5 618 342.5 618 327.5 604 c 128,-1,16
 312.5 590 312.5 590 293 582.5 c 128,-1,17
 273.5 575 273.5 575 251.5 575 c 0,0,1
214.5 748 m 0,18,19
 221.5 755 221.5 755 223 760 c 128,-1,20
 224.5 765 224.5 765 222.5 765 c 0,21,22
 214.5 765 214.5 765 205.5 757.5 c 128,-1,23
 196.5 750 196.5 750 189 739.5 c 128,-1,24
 181.5 729 181.5 729 176.5 717 c 128,-1,25
 171.5 705 171.5 705 171.5 695 c 0,26,27
 171.5 693 171.5 693 173 687 c 128,-1,28
 174.5 681 174.5 681 177.5 681 c 0,29,30
 181.5 681 181.5 681 187.5 703 c 0,31,32
 190.5 717 190.5 717 198.5 728.5 c 128,-1,33
 206.5 740 206.5 740 214.5 748 c 0,18,19
255.5 632 m 0,34,35
 267.5 632 267.5 632 284 646 c 128,-1,36
 300.5 660 300.5 660 300.5 686 c 0,37,38
 300.5 706 300.5 706 290 719.5 c 128,-1,39
 279.5 733 279.5 733 262.5 733 c 256,40,41
 245.5 733 245.5 733 231.5 719.5 c 128,-1,42
 217.5 706 217.5 706 217.5 682 c 256,43,44
 217.5 658 217.5 658 228.5 645 c 128,-1,45
 239.5 632 239.5 632 255.5 632 c 0,34,35
166.5 0 m 0,46,47
 145.5 0 145.5 0 135.5 11 c 128,-1,48
 125.5 22 125.5 22 122 38.5 c 128,-1,49
 118.5 55 118.5 55 118.5 73 c 128,-1,50
 118.5 91 118.5 91 118.5 105 c 2,51,-1
 118.5 204 l 1,52,-1
 117.5 402 l 1,53,-1
 117.5 428 l 2,54,55
 117.5 455 117.5 455 119.5 476 c 128,-1,56
 121.5 497 121.5 497 127.5 512 c 128,-1,57
 133.5 527 133.5 527 145 535 c 128,-1,58
 156.5 543 156.5 543 176.5 543 c 0,59,60
 199.5 543 199.5 543 217 524.5 c 128,-1,61
 234.5 506 234.5 506 234.5 476 c 0,62,63
 234.5 471 234.5 471 234 456 c 128,-1,64
 233.5 441 233.5 441 233.5 421 c 2,65,-1
 233.5 429 l 1,66,-1
 233.5 410 l 2,67,68
 233.5 391 233.5 391 235 379 c 128,-1,69
 236.5 367 236.5 367 238.5 367 c 0,70,71
 242.5 367 242.5 367 254 385.5 c 128,-1,72
 265.5 404 265.5 404 281 431.5 c 128,-1,73
 296.5 459 296.5 459 314.5 491.5 c 128,-1,74
 332.5 524 332.5 524 350.5 551.5 c 128,-1,75
 368.5 579 368.5 579 385 597.5 c 128,-1,76
 401.5 616 401.5 616 412.5 616 c 0,77,78
 421.5 616 421.5 616 432.5 613 c 128,-1,79
 443.5 610 443.5 610 452.5 604 c 128,-1,80
 461.5 598 461.5 598 467.5 589 c 128,-1,81
 473.5 580 473.5 580 473.5 567 c 0,82,83
 473.5 559 473.5 559 462.5 537.5 c 128,-1,84
 451.5 516 451.5 516 435.5 489 c 128,-1,85
 419.5 462 419.5 462 400.5 432 c 128,-1,86
 381.5 402 381.5 402 365.5 376.5 c 128,-1,87
 349.5 351 349.5 351 338.5 333.5 c 128,-1,88
 327.5 316 327.5 316 327.5 313 c 0,89,90
 327.5 309 327.5 309 339 290 c 128,-1,91
 350.5 271 350.5 271 367.5 245 c 128,-1,92
 384.5 219 384.5 219 405 188.5 c 128,-1,93
 425.5 158 425.5 158 442.5 130 c 128,-1,94
 459.5 102 459.5 102 471 80 c 128,-1,95
 482.5 58 482.5 58 482.5 48 c 0,96,97
 482.5 35 482.5 35 474 26 c 128,-1,98
 465.5 17 465.5 17 453.5 11 c 128,-1,99
 441.5 5 441.5 5 429.5 2 c 128,-1,100
 417.5 -1 417.5 -1 409.5 -1 c 0,101,102
 395.5 -1 395.5 -1 380.5 17.5 c 128,-1,103
 365.5 36 365.5 36 353.5 57 c 0,104,105
 349.5 64 349.5 64 341 80.5 c 128,-1,106
 332.5 97 332.5 97 321 118 c 128,-1,107
 309.5 139 309.5 139 297 161.5 c 128,-1,108
 284.5 184 284.5 184 273 203 c 128,-1,109
 261.5 222 261.5 222 253 234 c 128,-1,110
 244.5 246 244.5 246 240.5 246 c 0,111,112
 232.5 246 232.5 246 232.5 234.5 c 128,-1,113
 232.5 223 232.5 223 232.5 215 c 2,114,-1
 232.5 164 l 1,115,-1
 233.5 125 l 1,116,-1
 233.5 102 l 2,117,118
 233.5 51 233.5 51 217.5 25.5 c 128,-1,119
 201.5 0 201.5 0 166.5 0 c 0,46,47
136.5 488 m 0,120,121
 141.5 487 141.5 487 146 491 c 128,-1,122
 150.5 495 150.5 495 154 500.5 c 128,-1,123
 157.5 506 157.5 506 160.5 512.5 c 128,-1,124
 163.5 519 163.5 519 164.5 523 c 0,125,126
 165.5 526 165.5 526 162.5 528.5 c 128,-1,127
 159.5 531 159.5 531 156.5 531 c 0,128,129
 152.5 531 152.5 531 148.5 526 c 128,-1,130
 144.5 521 144.5 521 141 514.5 c 128,-1,131
 137.5 508 137.5 508 135.5 501.5 c 128,-1,132
 133.5 495 133.5 495 133.5 492 c 0,133,134
 133.5 488 133.5 488 136.5 488 c 0,120,121
386.5 558 m 0,135,136
 389.5 558 389.5 558 395.5 562.5 c 128,-1,137
 401.5 567 401.5 567 407.5 573 c 128,-1,138
 413.5 579 413.5 579 417.5 585.5 c 128,-1,139
 421.5 592 421.5 592 420.5 596 c 0,140,141
 420.5 600 420.5 600 416.5 600 c 0,142,143
 413.5 601 413.5 601 407 596.5 c 128,-1,144
 400.5 592 400.5 592 394 585.5 c 128,-1,145
 387.5 579 387.5 579 383 573 c 128,-1,146
 378.5 567 378.5 567 379.5 564 c 0,147,148
 381.5 559 381.5 559 386.5 558 c 0,135,136
151.5 70 m 0,149,150
 151.5 74 151.5 74 151.5 84.5 c 128,-1,151
 151.5 95 151.5 95 150.5 106 c 128,-1,152
 149.5 117 149.5 117 147.5 125.5 c 128,-1,153
 145.5 134 145.5 134 141.5 134 c 0,154,155
 138.5 134 138.5 134 136 129 c 128,-1,156
 133.5 124 133.5 124 132.5 117 c 128,-1,157
 131.5 110 131.5 110 131 103.5 c 128,-1,158
 130.5 97 130.5 97 130.5 95 c 0,159,160
 130.5 91 130.5 91 130.5 82.5 c 128,-1,161
 130.5 74 130.5 74 132 65 c 128,-1,162
 133.5 56 133.5 56 136.5 49.5 c 128,-1,163
 139.5 43 139.5 43 145.5 43 c 0,164,165
 147.5 43 147.5 43 149 47 c 128,-1,166
 150.5 51 150.5 51 151 55.5 c 128,-1,167
 151.5 60 151.5 60 151.5 64.5 c 128,-1,168
 151.5 69 151.5 69 151.5 70 c 0,149,150
412.5 21 m 0,169,170
 412.5 24 412.5 24 409.5 30.5 c 128,-1,171
 406.5 37 406.5 37 402 43 c 128,-1,172
 397.5 49 397.5 49 392.5 54 c 128,-1,173
 387.5 59 387.5 59 384.5 59 c 0,174,175
 382.5 59 382.5 59 381.5 55.5 c 128,-1,176
 380.5 52 380.5 52 380.5 50 c 0,177,178
 380.5 47 380.5 47 383 41 c 128,-1,179
 385.5 35 385.5 35 389 29 c 128,-1,180
 392.5 23 392.5 23 397.5 19 c 128,-1,181
 402.5 15 402.5 15 406.5 15 c 0,182,183
 412.5 15 412.5 15 412.5 21 c 0,169,170
161.5 25 m 0,184,185
 163.5 29 163.5 29 160.5 32.5 c 128,-1,186
 157.5 36 157.5 36 153.5 36 c 0,187,188
 148.5 36 148.5 36 146 32.5 c 128,-1,189
 143.5 29 143.5 29 145.5 25 c 0,190,191
 147.5 17 147.5 17 153.5 17 c 256,192,193
 159.5 17 159.5 17 161.5 25 c 0,184,185
EndSplineSet
Substitution2: "'c2sc' Capitals to Small Capitals lookup 38 subtable" k.sc
Substitution2: "'aalt' Access All Alternates lookup 0 subtable" k.sc
EndChar

StartChar: L
Encoding: 76 76 46
Width: 600
GlyphClass: 2
Flags: W
LayerCount: 2
Fore
SplineSet
318 569 m 0,0,1
 278 569 278 569 249.5 597 c 128,-1,2
 221 625 221 625 221 669 c 0,3,4
 221 693 221 693 229.5 714.5 c 128,-1,5
 238 736 238 736 253 751.5 c 128,-1,6
 268 767 268 767 289 776.5 c 128,-1,7
 310 786 310 786 335 786 c 0,8,9
 355 786 355 786 372 777.5 c 128,-1,10
 389 769 389 769 401 754 c 128,-1,11
 413 739 413 739 419.5 720 c 128,-1,12
 426 701 426 701 426 680 c 0,13,14
 426 653 426 653 417.5 632.5 c 128,-1,15
 409 612 409 612 394 598 c 128,-1,16
 379 584 379 584 359.5 576.5 c 128,-1,17
 340 569 340 569 318 569 c 0,0,1
281 742 m 0,18,19
 288 749 288 749 289.5 754 c 128,-1,20
 291 759 291 759 289 759 c 0,21,22
 281 759 281 759 272 751.5 c 128,-1,23
 263 744 263 744 255.5 733.5 c 128,-1,24
 248 723 248 723 243 711 c 128,-1,25
 238 699 238 699 238 689 c 0,26,27
 238 687 238 687 239.5 681 c 128,-1,28
 241 675 241 675 244 675 c 0,29,30
 248 675 248 675 254 697 c 0,31,32
 257 711 257 711 265 722.5 c 128,-1,33
 273 734 273 734 281 742 c 0,18,19
322 626 m 0,34,35
 334 626 334 626 350.5 640 c 128,-1,36
 367 654 367 654 367 680 c 0,37,38
 367 700 367 700 356.5 713.5 c 128,-1,39
 346 727 346 727 329 727 c 256,40,41
 312 727 312 727 298 713.5 c 128,-1,42
 284 700 284 700 284 676 c 256,43,44
 284 652 284 652 295 639 c 128,-1,45
 306 626 306 626 322 626 c 0,34,35
191 0 m 2,46,47
 180 0 180 0 171.5 8 c 128,-1,48
 163 16 163 16 163 27 c 2,49,-1
 163 492 l 2,50,51
 163 503 163 503 164.5 514 c 128,-1,52
 166 525 166 525 172 534 c 128,-1,53
 178 543 178 543 189.5 549 c 128,-1,54
 201 555 201 555 221 555 c 0,55,56
 244 555 244 555 260.5 537 c 128,-1,57
 277 519 277 519 277 499 c 2,58,-1
 277 121 l 2,59,60
 277 103 277 103 284 98.5 c 128,-1,61
 291 94 291 94 300 94 c 0,62,63
 317 94 317 94 330.5 94.5 c 128,-1,64
 344 95 344 95 356.5 95.5 c 128,-1,65
 369 96 369 96 382.5 96.5 c 128,-1,66
 396 97 396 97 413 97 c 0,67,68
 427 97 427 97 432 82.5 c 128,-1,69
 437 68 437 68 437 54 c 0,70,71
 437 34 437 34 424.5 16.5 c 128,-1,72
 412 -1 412 -1 398 -1 c 2,73,-1
 351 -1 l 1,74,-1
 268 0 l 1,75,-1
 191 0 l 2,46,47
181 488 m 0,76,77
 184 488 184 488 188.5 494.5 c 128,-1,78
 193 501 193 501 197.5 510 c 128,-1,79
 202 519 202 519 205.5 527 c 128,-1,80
 209 535 209 535 209 538 c 0,81,82
 209 543 209 543 201 543 c 0,83,84
 196 543 196 543 191 536.5 c 128,-1,85
 186 530 186 530 182.5 522 c 128,-1,86
 179 514 179 514 177 506 c 128,-1,87
 175 498 175 498 176 494 c 0,88,89
 176 488 176 488 181 488 c 0,76,77
192 59 m 0,90,91
 197 59 197 59 199 70 c 128,-1,92
 201 81 201 81 202 96.5 c 128,-1,93
 203 112 203 112 202.5 128.5 c 128,-1,94
 202 145 202 145 202 155 c 0,95,96
 202 159 202 159 201.5 165 c 128,-1,97
 201 171 201 171 199.5 177 c 128,-1,98
 198 183 198 183 195.5 187 c 128,-1,99
 193 191 193 191 188 191 c 0,100,101
 185 191 185 191 183.5 182.5 c 128,-1,102
 182 174 182 174 181 163 c 128,-1,103
 180 152 180 152 180 142.5 c 128,-1,104
 180 133 180 133 180 130 c 256,105,106
 180 127 180 127 180.5 115.5 c 128,-1,107
 181 104 181 104 182.5 91.5 c 128,-1,108
 184 79 184 79 186 69 c 128,-1,109
 188 59 188 59 192 59 c 0,90,91
209 30 m 0,110,111
 209 41 209 41 202 41 c 0,112,113
 192 41 192 41 192 30 c 0,114,115
 192 22 192 22 200 22 c 0,116,117
 203 22 203 22 206 24 c 128,-1,118
 209 26 209 26 209 30 c 0,110,111
EndSplineSet
Substitution2: "'c2sc' Capitals to Small Capitals lookup 38 subtable" l.sc
Substitution2: "'aalt' Access All Alternates lookup 0 subtable" l.sc
EndChar

StartChar: M
Encoding: 77 77 47
Width: 600
GlyphClass: 2
Flags: W
LayerCount: 2
Fore
SplineSet
323.5 599 m 0,0,1
 283.5 599 283.5 599 255 627 c 128,-1,2
 226.5 655 226.5 655 226.5 699 c 0,3,4
 226.5 723 226.5 723 235 744.5 c 128,-1,5
 243.5 766 243.5 766 258.5 781.5 c 128,-1,6
 273.5 797 273.5 797 294.5 806.5 c 128,-1,7
 315.5 816 315.5 816 340.5 816 c 0,8,9
 360.5 816 360.5 816 377.5 807.5 c 128,-1,10
 394.5 799 394.5 799 406.5 784 c 128,-1,11
 418.5 769 418.5 769 425 750 c 128,-1,12
 431.5 731 431.5 731 431.5 710 c 0,13,14
 431.5 683 431.5 683 423 662.5 c 128,-1,15
 414.5 642 414.5 642 399.5 628 c 128,-1,16
 384.5 614 384.5 614 365 606.5 c 128,-1,17
 345.5 599 345.5 599 323.5 599 c 0,0,1
286.5 772 m 0,18,19
 293.5 779 293.5 779 295 784 c 128,-1,20
 296.5 789 296.5 789 294.5 789 c 0,21,22
 286.5 789 286.5 789 277.5 781.5 c 128,-1,23
 268.5 774 268.5 774 261 763.5 c 128,-1,24
 253.5 753 253.5 753 248.5 741 c 128,-1,25
 243.5 729 243.5 729 243.5 719 c 0,26,27
 243.5 717 243.5 717 245 711 c 128,-1,28
 246.5 705 246.5 705 249.5 705 c 0,29,30
 253.5 705 253.5 705 259.5 727 c 0,31,32
 262.5 741 262.5 741 270.5 752.5 c 128,-1,33
 278.5 764 278.5 764 286.5 772 c 0,18,19
327.5 656 m 0,34,35
 339.5 656 339.5 656 356 670 c 128,-1,36
 372.5 684 372.5 684 372.5 710 c 0,37,38
 372.5 730 372.5 730 362 743.5 c 128,-1,39
 351.5 757 351.5 757 334.5 757 c 256,40,41
 317.5 757 317.5 757 303.5 743.5 c 128,-1,42
 289.5 730 289.5 730 289.5 706 c 256,43,44
 289.5 682 289.5 682 300.5 669 c 128,-1,45
 311.5 656 311.5 656 327.5 656 c 0,34,35
75.5 0 m 0,46,47
 60.5 0 60.5 0 51.5 5.5 c 128,-1,48
 42.5 11 42.5 11 38 20 c 128,-1,49
 33.5 29 33.5 29 32 40.5 c 128,-1,50
 30.5 52 30.5 52 30.5 65 c 2,51,-1
 30.5 496 l 2,52,53
 30.5 507 30.5 507 31 520 c 128,-1,54
 31.5 533 31.5 533 35.5 544 c 128,-1,55
 39.5 555 39.5 555 48.5 562.5 c 128,-1,56
 57.5 570 57.5 570 73.5 570 c 0,57,58
 93.5 570 93.5 570 103.5 555.5 c 128,-1,59
 113.5 541 113.5 541 118 523 c 128,-1,60
 122.5 505 122.5 505 123.5 490.5 c 128,-1,61
 124.5 476 124.5 476 126.5 476 c 256,62,63
 128.5 476 128.5 476 132.5 491.5 c 128,-1,64
 136.5 507 136.5 507 147 525 c 128,-1,65
 157.5 543 157.5 543 176.5 558.5 c 128,-1,66
 195.5 574 195.5 574 228.5 574 c 0,67,68
 256.5 574 256.5 574 274.5 559 c 128,-1,69
 292.5 544 292.5 544 303.5 525.5 c 128,-1,70
 314.5 507 314.5 507 320.5 492 c 128,-1,71
 326.5 477 326.5 477 329.5 477 c 256,72,73
 332.5 477 332.5 477 338 492 c 128,-1,74
 343.5 507 343.5 507 354.5 525.5 c 128,-1,75
 365.5 544 365.5 544 385 559 c 128,-1,76
 404.5 574 404.5 574 436.5 574 c 0,77,78
 477.5 574 477.5 574 503.5 554 c 128,-1,79
 529.5 534 529.5 534 544 498.5 c 128,-1,80
 558.5 463 558.5 463 564 414.5 c 128,-1,81
 569.5 366 569.5 366 569.5 310 c 2,82,-1
 569.5 27 l 2,83,84
 569.5 13 569.5 13 550.5 6.5 c 128,-1,85
 531.5 0 531.5 0 511.5 0 c 256,86,87
 491.5 0 491.5 0 480.5 5.5 c 128,-1,88
 469.5 11 469.5 11 469.5 26 c 2,89,-1
 469.5 301 l 2,90,91
 469.5 313 469.5 313 469.5 341.5 c 128,-1,92
 469.5 370 469.5 370 465 400 c 128,-1,93
 460.5 430 460.5 430 450 452.5 c 128,-1,94
 439.5 475 439.5 475 418.5 475 c 0,95,96
 400.5 475 400.5 475 389 461 c 128,-1,97
 377.5 447 377.5 447 370.5 422.5 c 128,-1,98
 363.5 398 363.5 398 360 363.5 c 128,-1,99
 356.5 329 356.5 329 354.5 287 c 0,100,101
 351.5 238 351.5 238 350.5 211 c 128,-1,102
 349.5 184 349.5 184 350 141.5 c 128,-1,103
 350.5 99 350.5 99 351 69.5 c 128,-1,104
 351.5 40 351.5 40 351.5 31 c 0,105,106
 351.5 17 351.5 17 335 8.5 c 128,-1,107
 318.5 0 318.5 0 294.5 0 c 256,108,109
 270.5 0 270.5 0 260.5 7 c 128,-1,110
 250.5 14 250.5 14 250.5 38 c 2,111,-1
 250.5 301 l 2,112,113
 250.5 312 250.5 312 250.5 341 c 128,-1,114
 250.5 370 250.5 370 246.5 400 c 128,-1,115
 242.5 430 242.5 430 232.5 453 c 128,-1,116
 222.5 476 222.5 476 202.5 476 c 0,117,118
 184.5 476 184.5 476 172 460.5 c 128,-1,119
 159.5 445 159.5 445 151.5 421 c 128,-1,120
 143.5 397 143.5 397 139 367 c 128,-1,121
 134.5 337 134.5 337 132.5 309 c 128,-1,122
 130.5 281 130.5 281 130 257 c 128,-1,123
 129.5 233 129.5 233 129.5 221 c 2,124,-1
 129.5 45 l 2,125,126
 129.5 26 129.5 26 113.5 13 c 128,-1,127
 97.5 0 97.5 0 75.5 0 c 0,46,47
54.5 476 m 0,128,129
 60.5 477 60.5 477 61 487.5 c 128,-1,130
 61.5 498 61.5 498 61.5 506 c 0,131,132
 61.5 513 61.5 513 63.5 521.5 c 128,-1,133
 65.5 530 65.5 530 67 537 c 128,-1,134
 68.5 544 68.5 544 68.5 549 c 128,-1,135
 68.5 554 68.5 554 64.5 554 c 0,136,137
 57.5 554 57.5 554 53 547.5 c 128,-1,138
 48.5 541 48.5 541 46.5 532 c 128,-1,139
 44.5 523 44.5 523 43.5 515 c 128,-1,140
 42.5 507 42.5 507 42.5 504 c 0,141,142
 42.5 496 42.5 496 44.5 485.5 c 128,-1,143
 46.5 475 46.5 475 54.5 476 c 0,128,129
285.5 23 m 0,144,145
 285.5 33 285.5 33 279 36.5 c 128,-1,146
 272.5 40 272.5 40 272.5 51 c 0,147,148
 272.5 53 272.5 53 272.5 58.5 c 128,-1,149
 272.5 64 272.5 64 272 69.5 c 128,-1,150
 271.5 75 271.5 75 269.5 79.5 c 128,-1,151
 267.5 84 267.5 84 264.5 84 c 0,152,153
 262.5 84 262.5 84 261.5 79.5 c 128,-1,154
 260.5 75 260.5 75 260 69 c 128,-1,155
 259.5 63 259.5 63 259.5 57.5 c 128,-1,156
 259.5 52 259.5 52 259.5 50 c 0,157,158
 259.5 38 259.5 38 263 24.5 c 128,-1,159
 266.5 11 266.5 11 276.5 11 c 0,160,161
 285.5 11 285.5 11 285.5 23 c 0,144,145
501.5 24 m 0,162,163
 501.5 34 501.5 34 496 41.5 c 128,-1,164
 490.5 49 490.5 49 490.5 60 c 0,165,166
 490.5 64 490.5 64 490 74 c 128,-1,167
 489.5 84 489.5 84 483.5 84 c 0,168,169
 478.5 84 478.5 84 478 73 c 128,-1,170
 477.5 62 477.5 62 477.5 59 c 256,171,172
 477.5 56 477.5 56 478 48 c 128,-1,173
 478.5 40 478.5 40 480.5 32.5 c 128,-1,174
 482.5 25 482.5 25 485.5 19 c 128,-1,175
 488.5 13 488.5 13 493.5 13 c 0,176,177
 497.5 13 497.5 13 499.5 17.5 c 128,-1,178
 501.5 22 501.5 22 501.5 24 c 0,162,163
73.5 24 m 0,179,180
 73.5 35 73.5 35 69 36 c 128,-1,181
 64.5 37 64.5 37 59.5 44 c 0,182,183
 58.5 46 58.5 46 58 51.5 c 128,-1,184
 57.5 57 57.5 57 57.5 62.5 c 128,-1,185
 57.5 68 57.5 68 56 72.5 c 128,-1,186
 54.5 77 54.5 77 51.5 77 c 0,187,188
 46.5 77 46.5 77 46 67.5 c 128,-1,189
 45.5 58 45.5 58 45.5 51 c 0,190,191
 45.5 47 45.5 47 46.5 41 c 128,-1,192
 47.5 35 47.5 35 50 29 c 128,-1,193
 52.5 23 52.5 23 56 18.5 c 128,-1,194
 59.5 14 59.5 14 64.5 14 c 0,195,196
 73.5 14 73.5 14 73.5 24 c 0,179,180
EndSplineSet
Substitution2: "'c2sc' Capitals to Small Capitals lookup 38 subtable" m.sc
Substitution2: "'aalt' Access All Alternates lookup 0 subtable" m.sc
EndChar

StartChar: N
Encoding: 78 78 48
Width: 600
GlyphClass: 2
Flags: W
LayerCount: 2
Fore
SplineSet
279.5 558 m 4,0,1
 239.5 558 239.5 558 211 586 c 132,-1,2
 182.5 614 182.5 614 182.5 658 c 4,3,4
 182.5 682 182.5 682 191 703.5 c 132,-1,5
 199.5 725 199.5 725 214.5 740.5 c 132,-1,6
 229.5 756 229.5 756 250.5 765.5 c 132,-1,7
 271.5 775 271.5 775 296.5 775 c 4,8,9
 316.5 775 316.5 775 333.5 766.5 c 132,-1,10
 350.5 758 350.5 758 362.5 743 c 132,-1,11
 374.5 728 374.5 728 381 709 c 132,-1,12
 387.5 690 387.5 690 387.5 669 c 4,13,14
 387.5 642 387.5 642 379 621.5 c 132,-1,15
 370.5 601 370.5 601 355.5 587 c 132,-1,16
 340.5 573 340.5 573 321 565.5 c 132,-1,17
 301.5 558 301.5 558 279.5 558 c 4,0,1
242.5 731 m 4,18,19
 249.5 738 249.5 738 251 743 c 132,-1,20
 252.5 748 252.5 748 250.5 748 c 4,21,22
 242.5 748 242.5 748 233.5 740.5 c 132,-1,23
 224.5 733 224.5 733 217 722.5 c 132,-1,24
 209.5 712 209.5 712 204.5 700 c 132,-1,25
 199.5 688 199.5 688 199.5 678 c 4,26,27
 199.5 676 199.5 676 201 670 c 132,-1,28
 202.5 664 202.5 664 205.5 664 c 4,29,30
 209.5 664 209.5 664 215.5 686 c 4,31,32
 218.5 700 218.5 700 226.5 711.5 c 132,-1,33
 234.5 723 234.5 723 242.5 731 c 4,18,19
283.5 615 m 4,34,35
 295.5 615 295.5 615 312 629 c 132,-1,36
 328.5 643 328.5 643 328.5 669 c 4,37,38
 328.5 689 328.5 689 318 702.5 c 132,-1,39
 307.5 716 307.5 716 290.5 716 c 260,40,41
 273.5 716 273.5 716 259.5 702.5 c 132,-1,42
 245.5 689 245.5 689 245.5 665 c 260,43,44
 245.5 641 245.5 641 256.5 628 c 132,-1,45
 267.5 615 267.5 615 283.5 615 c 4,34,35
171.5 0 m 0,46,47
 146.5 0 146.5 0 136.5 14.5 c 128,-1,48
 126.5 29 126.5 29 126.5 65 c 2,49,-1
 126.5 422 l 2,50,51
 126.5 466 126.5 466 136 481 c 128,-1,52
 145.5 496 145.5 496 174.5 496 c 0,53,54
 193.5 496 193.5 496 211.5 486.5 c 128,-1,55
 229.5 477 229.5 477 229.5 451 c 2,56,-1
 229.5 437 l 2,57,58
 229.5 397 229.5 397 233.5 397 c 256,59,60
 237.5 397 237.5 397 242.5 413 c 128,-1,61
 247.5 429 247.5 429 259.5 448.5 c 128,-1,62
 271.5 468 271.5 468 293.5 484 c 128,-1,63
 315.5 500 315.5 500 351.5 500 c 0,64,65
 415.5 500 415.5 500 444.5 437 c 128,-1,66
 473.5 374 473.5 374 473.5 236 c 2,67,-1
 473.5 31 l 2,68,69
 473.5 0 473.5 0 417.5 0 c 0,70,71
 390.5 0 390.5 0 378.5 11.5 c 128,-1,72
 366.5 23 366.5 23 366.5 34 c 2,73,-1
 366.5 227 l 2,74,75
 366.5 279 366.5 279 363.5 311 c 128,-1,76
 360.5 343 360.5 343 354.5 361 c 128,-1,77
 348.5 379 348.5 379 339 385.5 c 128,-1,78
 329.5 392 329.5 392 315.5 392 c 0,79,80
 294.5 392 294.5 392 279 372.5 c 128,-1,81
 263.5 353 263.5 353 253.5 320 c 128,-1,82
 243.5 287 243.5 287 239 242.5 c 128,-1,83
 234.5 198 234.5 198 234.5 147 c 2,84,-1
 234.5 45 l 2,85,86
 234.5 30 234.5 30 227 21 c 128,-1,87
 219.5 12 219.5 12 209.5 7.5 c 128,-1,88
 199.5 3 199.5 3 189 1.5 c 128,-1,89
 178.5 0 178.5 0 171.5 0 c 0,46,47
146.5 395 m 0,90,91
 149.5 395 149.5 395 151.5 407 c 128,-1,92
 153.5 419 153.5 419 155.5 434 c 128,-1,93
 157.5 449 157.5 449 158.5 461.5 c 128,-1,94
 159.5 474 159.5 474 159.5 475 c 0,95,96
 159.5 477 159.5 477 159 480 c 128,-1,97
 158.5 483 158.5 483 156.5 483 c 0,98,99
 151.5 483 151.5 483 148 475.5 c 128,-1,100
 144.5 468 144.5 468 142.5 458.5 c 128,-1,101
 140.5 449 140.5 449 139.5 439.5 c 128,-1,102
 138.5 430 138.5 430 138.5 427 c 0,103,104
 138.5 419 138.5 419 140.5 407 c 128,-1,105
 142.5 395 142.5 395 146.5 395 c 0,90,91
403.5 29 m 0,106,107
 403.5 35 403.5 35 401.5 38 c 128,-1,108
 399.5 41 399.5 41 397 43 c 128,-1,109
 394.5 45 394.5 45 392.5 49 c 128,-1,110
 390.5 53 390.5 53 390.5 60 c 0,111,112
 390.5 76 390.5 76 389 80 c 128,-1,113
 387.5 84 387.5 84 382.5 84 c 256,114,115
 377.5 84 377.5 84 376 76.5 c 128,-1,116
 374.5 69 374.5 69 374.5 59 c 0,117,118
 374.5 39 374.5 39 380.5 27 c 128,-1,119
 386.5 15 386.5 15 394.5 15 c 0,120,121
 397.5 15 397.5 15 400.5 18.5 c 128,-1,122
 403.5 22 403.5 22 403.5 29 c 0,106,107
170.5 26 m 0,123,124
 170.5 31 170.5 31 168 33.5 c 128,-1,125
 165.5 36 165.5 36 162.5 38.5 c 128,-1,126
 159.5 41 159.5 41 157 45 c 128,-1,127
 154.5 49 154.5 49 154.5 56 c 0,128,129
 154.5 77 154.5 77 147.5 77 c 0,130,131
 145.5 77 145.5 77 143.5 69.5 c 128,-1,132
 141.5 62 141.5 62 141.5 51 c 0,133,134
 141.5 36 141.5 36 148 24 c 128,-1,135
 154.5 12 154.5 12 162.5 12 c 0,136,137
 164.5 12 164.5 12 167.5 16 c 128,-1,138
 170.5 20 170.5 20 170.5 26 c 0,123,124
EndSplineSet
Substitution2: "'c2sc' Capitals to Small Capitals lookup 38 subtable" n.sc
Substitution2: "'aalt' Access All Alternates lookup 0 subtable" n.sc
EndChar

StartChar: O
Encoding: 79 79 49
Width: 600
GlyphClass: 2
Flags: W
LayerCount: 2
Fore
SplineSet
173.5 341.5 m 0,0,1
 160.5 346 160.5 346 152 355 c 128,-1,2
 143.5 364 143.5 364 141 374 c 128,-1,3
 138.5 384 138.5 384 142 394.5 c 0,4,5
 146.5 406 146.5 406 155.5 411.5 c 0,6,7
 160.5 414 160.5 414 168 416.5 c 0,8,9
 175.5 418 175.5 418 189 420 c 128,-1,10
 202.5 422 202.5 422 222.5 422 c 0,11,12
 282.5 422 282.5 422 313.5 422.5 c 0,13,14
 385.5 422 385.5 422 410.5 421 c 128,-1,15
 435.5 420 435.5 420 448 414.5 c 0,16,17
 460.5 410 460.5 410 463.5 400.5 c 0,18,19
 466.5 392 466.5 392 466.5 376.5 c 0,20,21
 466.5 364 466.5 364 461 357 c 128,-1,22
 455.5 350 455.5 350 441.5 345 c 128,-1,23
 427.5 340 427.5 340 403.5 338.5 c 0,24,25
 379.5 336 379.5 336 313.5 336.5 c 0,26,27
 235.5 336 235.5 336 207 338 c 128,-1,28
 178.5 340 178.5 340 173.5 341.5 c 0,0,1
181.5 402.5 m 0,29,30
 181.5 404 181.5 404 179 406 c 0,31,32
 177.5 407 177.5 407 172.5 404.5 c 128,-1,33
 167.5 402 167.5 402 165 392.5 c 0,34,35
 162.5 384 162.5 384 162.5 376.5 c 256,36,37
 162.5 370 162.5 370 164.5 369.5 c 0,38,39
 167.5 370 167.5 370 172.5 382.5 c 0,40,41
 178.5 396 178.5 396 178.5 396.5 c 0,42,43
 181.5 399 181.5 399 181.5 402.5 c 0,29,30
171.5 180.5 m 0,44,45
 152.5 184 152.5 184 143 198 c 128,-1,46
 133.5 212 133.5 212 140.5 226.5 c 0,47,48
 145.5 236 145.5 236 153 240.5 c 0,49,50
 160.5 246 160.5 246 176 248 c 0,51,52
 199.5 251 199.5 251 216.5 251 c 0,53,54
 280.5 251 280.5 251 334 251.5 c 128,-1,55
 387.5 252 387.5 252 413 250 c 128,-1,56
 438.5 248 438.5 248 452.5 245 c 128,-1,57
 466.5 242 466.5 242 472 235 c 128,-1,58
 477.5 228 477.5 228 477.5 217.5 c 0,59,60
 477.5 204 477.5 204 471.5 195.5 c 0,61,62
 465.5 186 465.5 186 450 181.5 c 0,63,64
 434.5 176 434.5 176 408.5 174 c 0,65,66
 371.5 171 371.5 171 314.5 171.5 c 0,67,68
 236.5 172 236.5 172 208 175 c 128,-1,69
 179.5 178 179.5 178 171.5 180.5 c 0,44,45
174.5 229.5 m 0,70,71
 174.5 232 174.5 232 171.5 232.5 c 256,72,73
 168.5 232 168.5 232 167.5 231.5 c 0,74,75
 165.5 230 165.5 230 162.5 226 c 128,-1,76
 159.5 222 159.5 222 159.5 214.5 c 0,77,78
 159.5 206 159.5 206 161 204.5 c 0,79,80
 162.5 204 162.5 204 167.5 208.5 c 0,81,82
 171.5 212 171.5 212 173 218.5 c 0,83,84
 174.5 224 174.5 224 174.5 229.5 c 0,70,71
297.5 -10 m 0,85,86
 225.5 -10 225.5 -10 172 17.5 c 128,-1,87
 118.5 45 118.5 45 83.5 88.5 c 128,-1,88
 48.5 132 48.5 132 31 186 c 128,-1,89
 13.5 240 13.5 240 13.5 294 c 0,90,91
 13.5 360 13.5 360 33.5 416 c 128,-1,92
 53.5 472 53.5 472 91 512.5 c 128,-1,93
 128.5 553 128.5 553 182.5 576 c 128,-1,94
 236.5 599 236.5 599 303.5 599 c 0,95,96
 365.5 599 365.5 599 417.5 576.5 c 128,-1,97
 469.5 554 469.5 554 507 514.5 c 128,-1,98
 544.5 475 544.5 475 565.5 420.5 c 128,-1,99
 586.5 366 586.5 366 586.5 303 c 0,100,101
 586.5 239 586.5 239 565 182 c 128,-1,102
 543.5 125 543.5 125 505 82.5 c 128,-1,103
 466.5 40 466.5 40 413.5 15 c 128,-1,104
 360.5 -10 360.5 -10 297.5 -10 c 0,85,86
299.5 67 m 0,105,106
 400.5 67 400.5 67 452 130.5 c 128,-1,107
 503.5 194 503.5 194 503.5 303 c 0,108,109
 503.5 347 503.5 347 490 387.5 c 128,-1,110
 476.5 428 476.5 428 450.5 459 c 128,-1,111
 424.5 490 424.5 490 387.5 508.5 c 128,-1,112
 350.5 527 350.5 527 303.5 527 c 0,113,114
 258.5 527 258.5 527 221 509 c 128,-1,115
 183.5 491 183.5 491 156.5 461 c 128,-1,116
 129.5 431 129.5 431 114.5 391 c 128,-1,117
 99.5 351 99.5 351 99.5 306 c 256,118,119
 99.5 261 99.5 261 113 218 c 128,-1,120
 126.5 175 126.5 175 152 141.5 c 128,-1,121
 177.5 108 177.5 108 214.5 87.5 c 128,-1,122
 251.5 67 251.5 67 299.5 67 c 0,105,106
EndSplineSet
Substitution2: "'c2sc' Capitals to Small Capitals lookup 38 subtable" o.sc
Substitution2: "Single Substitution lookup 33 subtable" ordmasculine
AlternateSubs2: "'aalt' Access All Alternates lookup 1 subtable" ordmasculine o.sc
EndChar

StartChar: P
Encoding: 80 80 50
Width: 600
GlyphClass: 2
Flags: W
LayerCount: 2
Fore
SplineSet
172 -14 m 0,0,1
 152 -14 152 -14 135 1 c 128,-1,2
 118 16 118 16 118 69 c 2,3,-1
 118 526 l 2,4,5
 118 547 118 547 126.5 564 c 128,-1,6
 135 581 135 581 149.5 592.5 c 128,-1,7
 164 604 164 604 182.5 610 c 128,-1,8
 201 616 201 616 221 616 c 2,9,-1
 280 616 l 2,10,11
 311 616 311 616 346.5 604 c 128,-1,12
 382 592 382 592 412 566 c 128,-1,13
 442 540 442 540 462 498 c 128,-1,14
 482 456 482 456 482 397 c 256,15,16
 482 338 482 338 462.5 291.5 c 128,-1,17
 443 245 443 245 414 213.5 c 128,-1,18
 385 182 385 182 351 165.5 c 128,-1,19
 317 149 317 149 287 149 c 2,20,-1
 258 149 l 2,21,22
 249 149 249 149 240.5 145 c 128,-1,23
 232 141 232 141 232 132 c 2,24,-1
 232 65 l 2,25,26
 232 33 232 33 226.5 21 c 128,-1,27
 221 9 221 9 212 1 c 128,-1,28
 203 -7 203 -7 192.5 -10.5 c 128,-1,29
 182 -14 182 -14 172 -14 c 0,0,1
276 238 m 2,30,31
 293 238 293 238 309 246 c 128,-1,32
 325 254 325 254 338.5 271.5 c 128,-1,33
 352 289 352 289 360 317 c 128,-1,34
 368 345 368 345 368 385 c 0,35,36
 368 428 368 428 360 456.5 c 128,-1,37
 352 485 352 485 339 501.5 c 128,-1,38
 326 518 326 518 310 525 c 128,-1,39
 294 532 294 532 279 532 c 2,40,-1
 257 532 l 2,41,42
 232 532 232 532 232 498 c 2,43,-1
 232 261 l 2,44,45
 232 238 232 238 263 238 c 2,46,-1
 276 238 l 2,30,31
158 21 m 256,47,48
 153 26 153 26 149.5 39 c 128,-1,49
 146 52 146 52 146 78.5 c 128,-1,50
 146 105 146 105 139 105 c 0,51,52
 134 105 134 105 132.5 96.5 c 128,-1,53
 131 88 131 88 131 76 c 0,54,55
 131 38 131 38 138 22 c 128,-1,56
 145 6 145 6 155 6 c 0,57,58
 157 6 157 6 160 8 c 128,-1,59
 163 10 163 10 163 12 c 0,60,61
 163 16 163 16 158 21 c 256,47,48
EndSplineSet
Substitution2: "'c2sc' Capitals to Small Capitals lookup 38 subtable" p.sc
Substitution2: "'aalt' Access All Alternates lookup 0 subtable" p.sc
EndChar

StartChar: Q
Encoding: 81 81 51
Width: 600
GlyphClass: 2
Flags: W
LayerCount: 2
Fore
SplineSet
306 616 m 0,0,1
 265 616 265 616 232 601 c 2,2,3
 232 601 232 601 199 585 c 1,4,-1
 155 537 l 1,5,6
 123 492 123 492 107 432.5 c 128,-1,7
 91 373 91 373 91 311 c 0,8,9
 91 255 91 255 103 196.5 c 128,-1,10
 115 138 115 138 141 90.5 c 128,-1,11
 167 43 167 43 208 12.5 c 128,-1,12
 249 -18 249 -18 307 -18 c 0,13,14
 344 -18 344 -18 375 -4 c 1,15,16
 383 -22 383 -22 395.5 -40.5 c 128,-1,17
 408 -59 408 -59 431 -59 c 0,18,19
 438 -59 438 -59 446.5 -56.5 c 128,-1,20
 455 -54 455 -54 462.5 -49.5 c 128,-1,21
 470 -45 470 -45 475 -39 c 128,-1,22
 480 -33 480 -33 480 -26 c 0,23,24
 480 -18 480 -18 471 8.5 c 128,-1,25
 462 35 462 35 450 65 c 1,26,27
 480 112 480 112 494.5 177.5 c 128,-1,28
 509 243 509 243 509 316 c 0,29,30
 509 371 509 371 497 425 c 128,-1,31
 485 479 485 479 460.5 521.5 c 128,-1,32
 436 564 436 564 397.5 590 c 128,-1,33
 359 616 359 616 306 616 c 0,0,1
154 139 m 0,34,35
 157 139 157 139 161 133.5 c 128,-1,36
 165 128 165 128 169.5 119.5 c 128,-1,37
 174 111 174 111 179.5 102 c 128,-1,38
 185 93 185 93 190 86 c 0,39,40
 212 57 212 57 231.5 40 c 128,-1,41
 251 23 251 23 251 18 c 0,42,43
 251 15 251 15 246 14 c 0,44,45
 234 14 234 14 217.5 28 c 128,-1,46
 201 42 201 42 186 61.5 c 128,-1,47
 171 81 171 81 160.5 101.5 c 128,-1,48
 150 122 150 122 150 134 c 0,49,50
 150 139 150 139 154 139 c 0,34,35
211 395 m 1,51,52
 227 354 227 354 244 312 c 128,-1,53
 261 270 261 270 277.5 229.5 c 128,-1,54
 294 189 294 189 309.5 151 c 128,-1,55
 325 113 325 113 338 81 c 1,56,57
 325 74 325 74 307 74 c 0,58,59
 276 74 276 74 256 102 c 128,-1,60
 236 130 236 130 224.5 168.5 c 128,-1,61
 213 207 213 207 209 247 c 128,-1,62
 205 287 205 287 205 311 c 0,63,64
 205 327 205 327 206.5 349 c 128,-1,65
 208 371 208 371 211 395 c 1,51,52
155 161 m 256,66,67
 155 153 155 153 148 151 c 0,68,69
 145 151 145 151 140 154.5 c 128,-1,70
 135 158 135 158 135 166 c 0,71,72
 135 175 135 175 143 175 c 0,73,74
 146 175 146 175 150.5 172 c 128,-1,75
 155 169 155 169 155 161 c 256,66,67
306 536 m 0,76,77
 336 536 336 536 354.5 513.5 c 128,-1,78
 373 491 373 491 383.5 457.5 c 128,-1,79
 394 424 394 424 398 384 c 128,-1,80
 402 344 402 344 402 308 c 0,81,82
 402 282 402 282 401 254 c 128,-1,83
 400 226 400 226 396 198 c 1,84,85
 386 224 386 224 371 262.5 c 128,-1,86
 356 301 356 301 338.5 344.5 c 128,-1,87
 321 388 321 388 302.5 434.5 c 128,-1,88
 284 481 284 481 266 523 c 1,89,90
 284 536 284 536 306 536 c 0,76,77
EndSplineSet
Substitution2: "'c2sc' Capitals to Small Capitals lookup 38 subtable" q.sc
Substitution2: "'aalt' Access All Alternates lookup 0 subtable" q.sc
EndChar

StartChar: R
Encoding: 82 82 52
Width: 600
GlyphClass: 2
Flags: W
LayerCount: 2
Fore
SplineSet
281.5 584 m 4,0,1
 241.5 584 241.5 584 213 612 c 132,-1,2
 184.5 640 184.5 640 184.5 684 c 4,3,4
 184.5 708 184.5 708 193 729.5 c 132,-1,5
 201.5 751 201.5 751 216.5 766.5 c 132,-1,6
 231.5 782 231.5 782 252.5 791.5 c 132,-1,7
 273.5 801 273.5 801 298.5 801 c 4,8,9
 318.5 801 318.5 801 335.5 792.5 c 132,-1,10
 352.5 784 352.5 784 364.5 769 c 132,-1,11
 376.5 754 376.5 754 383 735 c 132,-1,12
 389.5 716 389.5 716 389.5 695 c 4,13,14
 389.5 668 389.5 668 381 647.5 c 132,-1,15
 372.5 627 372.5 627 357.5 613 c 132,-1,16
 342.5 599 342.5 599 323 591.5 c 132,-1,17
 303.5 584 303.5 584 281.5 584 c 4,0,1
244.5 757 m 4,18,19
 251.5 764 251.5 764 253 769 c 132,-1,20
 254.5 774 254.5 774 252.5 774 c 4,21,22
 244.5 774 244.5 774 235.5 766.5 c 132,-1,23
 226.5 759 226.5 759 219 748.5 c 132,-1,24
 211.5 738 211.5 738 206.5 726 c 132,-1,25
 201.5 714 201.5 714 201.5 704 c 4,26,27
 201.5 702 201.5 702 203 696 c 132,-1,28
 204.5 690 204.5 690 207.5 690 c 4,29,30
 211.5 690 211.5 690 217.5 712 c 4,31,32
 220.5 726 220.5 726 228.5 737.5 c 132,-1,33
 236.5 749 236.5 749 244.5 757 c 4,18,19
285.5 641 m 4,34,35
 297.5 641 297.5 641 314 655 c 132,-1,36
 330.5 669 330.5 669 330.5 695 c 4,37,38
 330.5 715 330.5 715 320 728.5 c 132,-1,39
 309.5 742 309.5 742 292.5 742 c 260,40,41
 275.5 742 275.5 742 261.5 728.5 c 132,-1,42
 247.5 715 247.5 715 247.5 691 c 260,43,44
 247.5 667 247.5 667 258.5 654 c 132,-1,45
 269.5 641 269.5 641 285.5 641 c 4,34,35
225.5 0 m 0,46,47
 200.5 0 200.5 0 190.5 17 c 128,-1,48
 180.5 34 180.5 34 180.5 64 c 2,49,-1
 180.5 451 l 2,50,51
 180.5 505 180.5 505 191.5 525 c 128,-1,52
 202.5 545 202.5 545 228.5 545 c 0,53,54
 251.5 545 251.5 545 265 526.5 c 128,-1,55
 278.5 508 278.5 508 278.5 473 c 0,56,57
 278.5 462 278.5 462 278.5 456.5 c 128,-1,58
 278.5 451 278.5 451 281.5 451 c 0,59,60
 283.5 451 283.5 451 284 454 c 128,-1,61
 284.5 457 284.5 457 286.5 461 c 0,62,63
 289.5 468 289.5 468 295 482 c 128,-1,64
 300.5 496 300.5 496 311 510 c 128,-1,65
 321.5 524 321.5 524 337.5 534.5 c 128,-1,66
 353.5 545 353.5 545 375.5 545 c 0,67,68
 395.5 545 395.5 545 407.5 533 c 128,-1,69
 419.5 521 419.5 521 419.5 502 c 0,70,71
 419.5 482 419.5 482 411 464.5 c 128,-1,72
 402.5 447 402.5 447 382.5 447 c 256,73,74
 362.5 447 362.5 447 345 428.5 c 128,-1,75
 327.5 410 327.5 410 315 381.5 c 128,-1,76
 302.5 353 302.5 353 295 319 c 128,-1,77
 287.5 285 287.5 285 287.5 254 c 2,78,-1
 287.5 55 l 2,79,80
 287.5 25 287.5 25 267.5 12.5 c 128,-1,81
 247.5 0 247.5 0 225.5 0 c 0,46,47
207.5 503 m 256,82,83
 208.5 507 208.5 507 210 511.5 c 128,-1,84
 211.5 516 211.5 516 212.5 520 c 128,-1,85
 213.5 524 213.5 524 213 526.5 c 128,-1,86
 212.5 529 212.5 529 208.5 529 c 0,87,88
 203.5 529 203.5 529 198.5 518.5 c 128,-1,89
 193.5 508 193.5 508 193.5 497 c 0,90,91
 193.5 476 193.5 476 200.5 476 c 0,92,93
 205.5 476 205.5 476 206 487.5 c 128,-1,94
 206.5 499 206.5 499 207.5 503 c 256,82,83
207.5 50 m 0,95,96
 204.5 62 204.5 62 203 71.5 c 128,-1,97
 201.5 81 201.5 81 198.5 81 c 0,98,99
 193.5 81 193.5 81 193.5 64 c 0,100,101
 193.5 46 193.5 46 198.5 32 c 128,-1,102
 203.5 18 203.5 18 210.5 18 c 0,103,104
 212.5 18 212.5 18 215 19 c 128,-1,105
 217.5 20 217.5 20 217.5 25 c 0,106,107
 217.5 28 217.5 28 213.5 34 c 128,-1,108
 209.5 40 209.5 40 207.5 50 c 0,95,96
EndSplineSet
Substitution2: "'c2sc' Capitals to Small Capitals lookup 38 subtable" r.sc
Substitution2: "'aalt' Access All Alternates lookup 0 subtable" r.sc
EndChar

StartChar: S
Encoding: 83 83 53
Width: 600
GlyphClass: 2
Flags: W
LayerCount: 2
Fore
SplineSet
310 622.5 m 4,0,1
 270 622.5 270 622.5 241.5 650.5 c 132,-1,2
 213 678.5 213 678.5 213 722.5 c 4,3,4
 213 746.5 213 746.5 221.5 768 c 132,-1,5
 230 789.5 230 789.5 245 805 c 132,-1,6
 260 820.5 260 820.5 281 830 c 132,-1,7
 302 839.5 302 839.5 327 839.5 c 4,8,9
 347 839.5 347 839.5 364 831 c 132,-1,10
 381 822.5 381 822.5 393 807.5 c 132,-1,11
 405 792.5 405 792.5 411.5 773.5 c 132,-1,12
 418 754.5 418 754.5 418 733.5 c 4,13,14
 418 706.5 418 706.5 409.5 686 c 132,-1,15
 401 665.5 401 665.5 386 651.5 c 132,-1,16
 371 637.5 371 637.5 351.5 630 c 132,-1,17
 332 622.5 332 622.5 310 622.5 c 4,0,1
273 795.5 m 4,18,19
 280 802.5 280 802.5 281.5 807.5 c 132,-1,20
 283 812.5 283 812.5 281 812.5 c 4,21,22
 273 812.5 273 812.5 264 805 c 132,-1,23
 255 797.5 255 797.5 247.5 787 c 132,-1,24
 240 776.5 240 776.5 235 764.5 c 132,-1,25
 230 752.5 230 752.5 230 742.5 c 4,26,27
 230 740.5 230 740.5 231.5 734.5 c 132,-1,28
 233 728.5 233 728.5 236 728.5 c 4,29,30
 240 728.5 240 728.5 246 750.5 c 4,31,32
 249 764.5 249 764.5 257 776 c 132,-1,33
 265 787.5 265 787.5 273 795.5 c 4,18,19
314 679.5 m 4,34,35
 326 679.5 326 679.5 342.5 693.5 c 132,-1,36
 359 707.5 359 707.5 359 733.5 c 4,37,38
 359 753.5 359 753.5 348.5 767 c 132,-1,39
 338 780.5 338 780.5 321 780.5 c 260,40,41
 304 780.5 304 780.5 290 767 c 132,-1,42
 276 753.5 276 753.5 276 729.5 c 260,43,44
 276 705.5 276 705.5 287 692.5 c 132,-1,45
 298 679.5 298 679.5 314 679.5 c 4,34,35
303 -46 m 4,46,47
 272 -46 272 -46 241 -32.5 c 132,-1,48
 210 -19 210 -19 185.5 6 c 132,-1,49
 161 31 161 31 146 68 c 132,-1,50
 131 105 131 105 131 151 c 4,51,52
 131 182 131 182 149 202 c 132,-1,53
 167 222 167 222 194 220 c 4,54,55
 211 219 211 219 218.5 207.5 c 132,-1,56
 226 196 226 196 226 170 c 4,57,58
 226 152 226 152 230.5 129 c 132,-1,59
 235 106 235 106 244 86 c 132,-1,60
 253 66 253 66 265.5 52.5 c 132,-1,61
 278 39 278 39 293 39 c 4,62,63
 357 39 357 39 357 104 c 4,64,65
 357 125 357 125 350.5 143 c 132,-1,66
 344 161 344 161 333.5 176 c 132,-1,67
 323 191 323 191 310 205 c 132,-1,68
 297 219 297 219 283 232 c 4,69,70
 211 304 211 304 180.5 352 c 132,-1,71
 150 400 150 400 150 440 c 4,72,73
 150 509 150 509 192.5 548 c 132,-1,74
 235 587 235 587 309 587 c 4,75,76
 343 587 343 587 371 572 c 132,-1,77
 399 557 399 557 419.5 533 c 132,-1,78
 440 509 440 509 451 479.5 c 132,-1,79
 462 450 462 450 462 422 c 4,80,81
 462 392 462 392 444.5 367.5 c 132,-1,82
 427 343 427 343 401 343 c 4,83,84
 389 343 389 343 375 353 c 132,-1,85
 361 363 361 363 361 380 c 4,86,87
 361 439 361 439 344 466.5 c 132,-1,88
 327 494 327 494 305 494 c 4,89,90
 263 494 263 494 263 446 c 4,91,92
 263 431 263 431 267 416.5 c 132,-1,93
 271 402 271 402 281.5 385 c 132,-1,94
 292 368 292 368 309.5 347.5 c 132,-1,95
 327 327 327 327 354 300 c 4,96,97
 387 267 387 267 409 241 c 132,-1,98
 431 215 431 215 444.5 193 c 132,-1,99
 458 171 458 171 463.5 152 c 132,-1,100
 469 133 469 133 469 114 c 4,101,102
 469 79 469 79 456.5 49.5 c 132,-1,103
 444 20 444 20 422 -1 c 132,-1,104
 400 -22 400 -22 369.5 -34 c 132,-1,105
 339 -46 339 -46 303 -46 c 4,46,47
208 506 m 4,106,107
 212 513 212 513 219 522.5 c 132,-1,108
 226 532 226 532 234 538 c 4,109,110
 242 543 242 543 244.5 549.5 c 132,-1,111
 247 556 247 556 244 556 c 4,112,113
 238 557 238 557 228 549.5 c 132,-1,114
 218 542 218 542 209 531 c 132,-1,115
 200 520 200 520 193 508 c 132,-1,116
 186 496 186 496 185 487 c 4,117,118
 185 481 185 481 191 481 c 4,119,120
 196 480 196 480 199 488 c 132,-1,121
 202 496 202 496 208 506 c 4,106,107
192 461 m 4,122,123
 192 468 192 468 186 468 c 4,124,125
 183 468 183 468 180.5 465 c 132,-1,126
 178 462 178 462 178 460 c 4,127,128
 178 455 178 455 185 454 c 4,129,130
 190 454 190 454 192 461 c 4,122,123
168 153 m 260,131,132
 173 167 173 167 178.5 176 c 132,-1,133
 184 185 184 185 185 193 c 4,134,135
 185 198 185 198 182 198 c 4,136,137
 174 199 174 199 167 192.5 c 132,-1,138
 160 186 160 186 155.5 176 c 132,-1,139
 151 166 151 166 150 153.5 c 132,-1,140
 149 141 149 141 153 129 c 4,141,142
 157 119 157 119 161 119 c 4,143,144
 166 119 166 119 164.5 129 c 132,-1,145
 163 139 163 139 168 153 c 260,131,132
EndSplineSet
Substitution2: "'c2sc' Capitals to Small Capitals lookup 38 subtable" s.sc
Substitution2: "'aalt' Access All Alternates lookup 0 subtable" s.sc
EndChar

StartChar: T
Encoding: 84 84 54
Width: 600
GlyphClass: 2
Flags: W
LayerCount: 2
Fore
SplineSet
291.5 0 m 0,0,1
 283.5 0 283.5 0 274.5 3 c 128,-1,2
 265.5 6 265.5 6 257.5 11 c 128,-1,3
 249.5 16 249.5 16 244 23.5 c 128,-1,4
 238.5 31 238.5 31 238.5 40 c 2,5,-1
 238.5 525 l 1,6,7
 226.5 525 226.5 525 186.5 525 c 128,-1,8
 146.5 525 146.5 525 130 529 c 128,-1,9
 113.5 533 113.5 533 102 542.5 c 128,-1,10
 90.5 552 90.5 552 90.5 570 c 0,11,12
 90.5 592 90.5 592 104.5 604 c 128,-1,13
 118.5 616 118.5 616 139.5 616 c 2,14,-1
 476.5 616 l 2,15,16
 492.5 616 492.5 616 501 602 c 128,-1,17
 509.5 588 509.5 588 509.5 574 c 0,18,19
 509.5 556 509.5 556 501 546.5 c 128,-1,20
 492.5 537 492.5 537 479.5 532 c 128,-1,21
 466.5 527 466.5 527 419.5 526 c 128,-1,22
 372.5 525 372.5 525 359.5 525 c 2,23,-1
 351.5 525 l 1,24,-1
 351.5 47 l 2,25,26
 351.5 24 351.5 24 331.5 12 c 128,-1,27
 311.5 0 311.5 0 291.5 0 c 0,0,1
113.5 553 m 256,28,29
 118.5 553 118.5 553 118.5 560 c 0,30,31
 118.5 568 118.5 568 121.5 578.5 c 128,-1,32
 124.5 589 124.5 589 130.5 598 c 0,33,34
 133.5 603 133.5 603 125.5 603 c 0,35,36
 116.5 603 116.5 603 110.5 591.5 c 128,-1,37
 104.5 580 104.5 580 104.5 569 c 0,38,39
 104.5 565 104.5 565 106.5 559 c 128,-1,40
 108.5 553 108.5 553 113.5 553 c 256,28,29
272.5 23 m 0,41,42
 281.5 23 281.5 23 281.5 32 c 0,43,44
 281.5 36 281.5 36 277.5 37 c 0,45,46
 271.5 39 271.5 39 269 49.5 c 128,-1,47
 266.5 60 266.5 60 266.5 65 c 0,48,49
 266.5 67 266.5 67 267 73 c 128,-1,50
 267.5 79 267.5 79 267.5 85 c 128,-1,51
 267.5 91 267.5 91 266.5 95.5 c 128,-1,52
 265.5 100 265.5 100 261.5 100 c 256,53,54
 257.5 100 257.5 100 255.5 96 c 128,-1,55
 253.5 92 253.5 92 252.5 86.5 c 128,-1,56
 251.5 81 251.5 81 251 75.5 c 128,-1,57
 250.5 70 250.5 70 250.5 68 c 0,58,59
 250.5 64 250.5 64 251.5 56 c 128,-1,60
 252.5 48 252.5 48 255 41 c 128,-1,61
 257.5 34 257.5 34 262 28.5 c 128,-1,62
 266.5 23 266.5 23 272.5 23 c 0,41,42
EndSplineSet
Substitution2: "'c2sc' Capitals to Small Capitals lookup 38 subtable" t.sc
Substitution2: "'aalt' Access All Alternates lookup 0 subtable" t.sc
EndChar

StartChar: U
Encoding: 85 85 55
Width: 600
GlyphClass: 2
Flags: W
LayerCount: 2
Fore
SplineSet
297.5 -4 m 0,0,1
 252.5 -4 252.5 -4 216 12.5 c 128,-1,2
 179.5 29 179.5 29 154.5 58.5 c 128,-1,3
 129.5 88 129.5 88 116 129.5 c 128,-1,4
 102.5 171 102.5 171 102.5 221 c 2,5,-1
 102.5 530 l 2,6,7
 102.5 540 102.5 540 104.5 555 c 128,-1,8
 106.5 570 106.5 570 112.5 583.5 c 128,-1,9
 118.5 597 118.5 597 129 606.5 c 128,-1,10
 139.5 616 139.5 616 155.5 616 c 0,11,12
 188.5 616 188.5 616 202.5 599 c 128,-1,13
 216.5 582 216.5 582 216.5 528 c 2,14,-1
 216.5 228 l 2,15,16
 216.5 204 216.5 204 216.5 179.5 c 128,-1,17
 216.5 155 216.5 155 224 135.5 c 128,-1,18
 231.5 116 231.5 116 249 103.5 c 128,-1,19
 266.5 91 266.5 91 301.5 91 c 0,20,21
 334.5 91 334.5 91 351.5 110 c 128,-1,22
 368.5 129 368.5 129 376 157.5 c 128,-1,23
 383.5 186 383.5 186 384 220 c 128,-1,24
 384.5 254 384.5 254 384.5 284 c 2,25,-1
 384.5 531 l 2,26,27
 384.5 541 384.5 541 386.5 556 c 128,-1,28
 388.5 571 388.5 571 394 584.5 c 128,-1,29
 399.5 598 399.5 598 409 608 c 128,-1,30
 418.5 618 418.5 618 434.5 618 c 0,31,32
 465.5 618 465.5 618 481.5 597.5 c 128,-1,33
 497.5 577 497.5 577 497.5 532 c 2,34,-1
 497.5 246 l 2,35,36
 497.5 189 497.5 189 485 143 c 128,-1,37
 472.5 97 472.5 97 447 64.5 c 128,-1,38
 421.5 32 421.5 32 384.5 14 c 128,-1,39
 347.5 -4 347.5 -4 297.5 -4 c 0,0,1
412.5 556 m 0,40,41
 412.5 560 412.5 560 415.5 568 c 128,-1,42
 418.5 576 418.5 576 425.5 584 c 0,43,44
 433.5 595 433.5 595 434 599 c 128,-1,45
 434.5 603 434.5 603 425.5 603 c 0,46,47
 420.5 603 420.5 603 416 598 c 128,-1,48
 411.5 593 411.5 593 408.5 588 c 0,49,50
 406.5 583 406.5 583 403 575 c 128,-1,51
 399.5 567 399.5 567 398.5 558 c 0,52,53
 398.5 553 398.5 553 399.5 548.5 c 128,-1,54
 400.5 544 400.5 544 405.5 544 c 256,55,56
 410.5 544 410.5 544 411.5 547.5 c 128,-1,57
 412.5 551 412.5 551 412.5 556 c 0,40,41
144.5 570 m 0,58,59
 148.5 579 148.5 579 154 585 c 128,-1,60
 159.5 591 159.5 591 159.5 598 c 0,61,62
 159.5 603 159.5 603 156.5 603 c 256,63,64
 153.5 603 153.5 603 147.5 600.5 c 128,-1,65
 141.5 598 141.5 598 136.5 590 c 0,66,67
 121.5 569 121.5 569 119.5 552 c 128,-1,68
 117.5 535 117.5 535 123.5 535 c 0,69,70
 128.5 535 128.5 535 134 545.5 c 128,-1,71
 139.5 556 139.5 556 144.5 570 c 0,58,59
213.5 48 m 0,72,73
 213.5 51 213.5 51 206 57 c 128,-1,74
 198.5 63 198.5 63 190.5 72 c 0,75,76
 182.5 80 182.5 80 172 93.5 c 128,-1,77
 161.5 107 161.5 107 154.5 122 c 0,78,79
 149.5 132 149.5 132 145 136 c 128,-1,80
 140.5 140 140.5 140 138.5 140 c 0,81,82
 134.5 140 134.5 140 134.5 133 c 0,83,84
 134.5 125 134.5 125 142.5 109.5 c 128,-1,85
 150.5 94 150.5 94 161.5 79 c 128,-1,86
 172.5 64 172.5 64 185 53 c 128,-1,87
 197.5 42 197.5 42 207.5 42 c 0,88,89
 213.5 42 213.5 42 213.5 48 c 0,72,73
236.5 39 m 0,90,91
 236.5 40 236.5 40 234 43 c 128,-1,92
 231.5 46 231.5 46 228.5 46 c 0,93,94
 223.5 45 223.5 45 221.5 42 c 128,-1,95
 219.5 39 219.5 39 219.5 37 c 0,96,97
 220.5 34 220.5 34 221.5 31.5 c 128,-1,98
 222.5 29 222.5 29 227.5 30 c 0,99,100
 236.5 30 236.5 30 236.5 39 c 0,90,91
EndSplineSet
Substitution2: "'c2sc' Capitals to Small Capitals lookup 38 subtable" u.sc
Substitution2: "'aalt' Access All Alternates lookup 0 subtable" u.sc
EndChar

StartChar: V
Encoding: 86 86 56
Width: 600
GlyphClass: 2
Flags: W
LayerCount: 2
Fore
SplineSet
338.5 103 m 1,0,-1
 267.5 103 l 1,1,-1
 267.5 783 l 1,2,-1
 338.5 783 l 1,3,-1
 338.5 103 l 1,0,-1
255.5 0 m 1,4,-1
 29.5 545 l 1,5,-1
 29.5 599 l 1,6,-1
 570.5 599 l 1,7,-1
 570.5 544 l 1,8,-1
 345.5 0 l 1,9,-1
 255.5 0 l 1,4,-1
301.5 98 m 1,10,-1
 474.5 520 l 1,11,-1
 128.5 520 l 1,12,-1
 301.5 98 l 1,10,-1
EndSplineSet
Substitution2: "'c2sc' Capitals to Small Capitals lookup 38 subtable" v.sc
Substitution2: "'aalt' Access All Alternates lookup 0 subtable" v.sc
EndChar

StartChar: W
Encoding: 87 87 57
Width: 600
GlyphClass: 2
Flags: W
LayerCount: 2
Fore
SplineSet
602.017578125 609.5 m 0,0,1
 601.517578125 578 601.517578125 578 581.017578125 568.5 c 0,2,3
 559.517578125 558 559.517578125 558 536.017578125 557.5 c 0,4,5
 500.517578125 557 500.517578125 557 291.017578125 556 c 128,-1,6
 81.517578125 555 81.517578125 555 51.017578125 555.5 c 4,7,8
 29.517578125 556 29.517578125 556 13.517578125 566 c 4,9,10
 -1.482421875 575 -1.482421875 575 -1.982421875 599.5 c 4,11,12
 -2.482421875 614 -2.482421875 614 4.017578125 622 c 4,13,14
 9.517578125 630 9.517578125 630 19.017578125 635.5 c 4,15,16
 27.517578125 640 27.517578125 640 39.517578125 642.5 c 4,17,18
 51.517578125 644 51.517578125 644 62.017578125 644.5 c 4,19,20
 93.517578125 645 93.517578125 645 307.517578125 646 c 128,-1,21
 521.517578125 647 521.517578125 647 556.017578125 646.5 c 0,22,23
 573.517578125 646 573.517578125 646 587.517578125 639 c 128,-1,24
 601.517578125 632 601.517578125 632 602.017578125 609.5 c 0,0,1
16.017578125 580.5 m 4,25,26
 20.517578125 580 20.517578125 580 24.517578125 586 c 132,-1,27
 28.517578125 592 28.517578125 592 32.517578125 598 c 132,-1,28
 36.517578125 604 36.517578125 604 38.517578125 611 c 132,-1,29
 40.517578125 618 40.517578125 618 41.017578125 619.5 c 4,30,31
 40.517578125 624 40.517578125 624 40.517578125 627 c 132,-1,32
 40.517578125 630 40.517578125 630 35.017578125 630.5 c 4,33,34
 22.517578125 630 22.517578125 630 15.517578125 617 c 4,35,36
 9.517578125 607 9.517578125 607 9.017578125 593.5 c 4,37,38
 8.517578125 586 8.517578125 586 11.517578125 583 c 132,-1,39
 14.517578125 580 14.517578125 580 16.017578125 580.5 c 4,25,26
401.517578125 0 m 0,40,41
 378.517578125 0 378.517578125 0 362.017578125 6 c 128,-1,42
 345.517578125 12 345.517578125 12 334.017578125 23.5 c 128,-1,43
 322.517578125 35 322.517578125 35 314.517578125 51 c 0,44,45
 302.517578125 75 302.517578125 75 299.517578125 87 c 0,46,47
 298.517578125 91 298.517578125 91 297.517578125 97 c 128,-1,48
 296.517578125 103 296.517578125 103 295.017578125 109 c 128,-1,49
 293.517578125 115 293.517578125 115 292.017578125 119 c 128,-1,50
 290.517578125 123 290.517578125 123 288.517578125 123 c 256,51,52
 286.517578125 123 286.517578125 123 284.517578125 115.5 c 128,-1,53
 282.517578125 108 282.517578125 108 278.517578125 97 c 0,54,55
 268.517578125 71 268.517578125 71 259.517578125 52.5 c 128,-1,56
 250.517578125 34 250.517578125 34 239.017578125 22.5 c 128,-1,57
 227.517578125 11 227.517578125 11 213.517578125 5.5 c 128,-1,58
 199.517578125 0 199.517578125 0 179.517578125 0 c 0,59,60
 139.517578125 0 139.517578125 0 110.017578125 13.5 c 128,-1,61
 80.517578125 27 80.517578125 27 61.517578125 51.5 c 128,-1,62
 42.517578125 76 42.517578125 76 33.517578125 109.5 c 128,-1,63
 24.517578125 143 24.517578125 143 24.517578125 183 c 2,64,-1
 24.517578125 462 l 2,65,66
 24.517578125 472 24.517578125 472 27.517578125 485.5 c 128,-1,67
 30.517578125 499 30.517578125 499 37.517578125 511 c 128,-1,68
 44.517578125 523 44.517578125 523 56.017578125 531.5 c 128,-1,69
 67.517578125 540 67.517578125 540 85.517578125 540 c 0,70,71
 114.517578125 540 114.517578125 540 125.517578125 519.5 c 0,72,73
 136.400390625 499.21875 136.400390625 499.21875 136.517578125 467 c 2,74,-1
 137.517578125 193 l 2,75,76
 137.517578125 183 137.517578125 183 139.517578125 166.5 c 128,-1,77
 141.517578125 150 141.517578125 150 146.017578125 134 c 128,-1,78
 150.517578125 118 150.517578125 118 159.517578125 106.5 c 128,-1,79
 168.517578125 95 168.517578125 95 181.517578125 95 c 0,80,81
 204.517578125 95 204.517578125 95 218.017578125 129 c 128,-1,82
 231.517578125 163 231.517578125 163 238.517578125 219 c 128,-1,83
 245.517578125 275 245.517578125 275 247.017578125 308.5 c 128,-1,84
 248.517578125 342 248.517578125 342 248.517578125 418 c 0,85,86
 248.517578125 482 248.517578125 482 258.517578125 506.5 c 128,-1,87
 268.517578125 531 268.517578125 531 298.517578125 531 c 0,88,89
 312.517578125 531 312.517578125 531 321.517578125 526 c 128,-1,90
 330.517578125 521 330.517578125 521 336.517578125 505 c 128,-1,91
 342.517578125 489 342.517578125 489 345.017578125 459 c 128,-1,92
 347.517578125 429 347.517578125 429 347.517578125 379 c 0,93,94
 347.517578125 300 347.517578125 300 347.517578125 285.5 c 128,-1,95
 347.517578125 271 347.517578125 271 349.017578125 236.5 c 128,-1,96
 350.517578125 202 350.517578125 202 353.017578125 181.5 c 128,-1,97
 355.517578125 161 355.517578125 161 360.517578125 146 c 0,98,99
 369.517578125 117 369.517578125 117 379.517578125 105.5 c 128,-1,100
 389.517578125 94 389.517578125 94 402.517578125 94 c 0,101,102
 461.517578125 94 461.517578125 94 461.517578125 239 c 2,103,-1
 461.517578125 479 l 2,104,105
 461.517578125 490 461.517578125 490 463.517578125 501 c 128,-1,106
 465.517578125 512 465.517578125 512 471.017578125 520.5 c 128,-1,107
 476.517578125 529 476.517578125 529 486.517578125 534.5 c 128,-1,108
 496.517578125 540 496.517578125 540 511.517578125 540 c 0,109,110
 543.517578125 540 543.517578125 540 558.017578125 522.5 c 128,-1,111
 572.517578125 505 572.517578125 505 572.517578125 479 c 2,112,-1
 572.517578125 220 l 2,113,114
 572.517578125 178 572.517578125 178 561.017578125 138.5 c 128,-1,115
 549.517578125 99 549.517578125 99 528.017578125 68 c 128,-1,116
 506.517578125 37 506.517578125 37 474.517578125 18.5 c 128,-1,117
 442.517578125 0 442.517578125 0 401.517578125 0 c 0,40,41
49.517578125 455 m 0,118,119
 56.517578125 455 56.517578125 455 59.017578125 462 c 128,-1,120
 61.517578125 469 61.517578125 469 62.517578125 474 c 0,121,122
 64.517578125 488 64.517578125 488 73.517578125 497.5 c 0,123,124
 88.517578125 513 88.517578125 513 88.517578125 519 c 0,125,126
 88.517578125 521 88.517578125 521 86.517578125 524 c 128,-1,127
 84.517578125 527 84.517578125 527 81.517578125 527 c 0,128,129
 75.517578125 527 75.517578125 527 68.517578125 520.5 c 128,-1,130
 61.517578125 514 61.517578125 514 55.517578125 505 c 128,-1,131
 49.517578125 496 49.517578125 496 46.017578125 485.5 c 128,-1,132
 42.517578125 475 42.517578125 475 42.517578125 467 c 0,133,134
 42.517578125 463 42.517578125 463 43.517578125 459 c 128,-1,135
 44.517578125 455 44.517578125 455 49.517578125 455 c 0,118,119
494.517578125 473 m 0,136,137
 494.517578125 483 494.517578125 483 497.517578125 491 c 128,-1,138
 500.517578125 499 500.517578125 499 504.517578125 506 c 0,139,140
 509.517578125 514 509.517578125 514 508.517578125 519 c 128,-1,141
 507.517578125 524 507.517578125 524 504.517578125 524 c 0,142,143
 499.517578125 524 499.517578125 524 493.017578125 520.5 c 128,-1,144
 486.517578125 517 486.517578125 517 482.517578125 507 c 0,145,146
 477.517578125 491 477.517578125 491 479.017578125 476 c 128,-1,147
 480.517578125 461 480.517578125 461 488.517578125 461 c 0,148,149
 490.517578125 461 490.517578125 461 492.517578125 464.5 c 128,-1,150
 494.517578125 468 494.517578125 468 494.517578125 473 c 0,136,137
275.517578125 467 m 0,151,152
 275.517578125 468 275.517578125 468 277.517578125 477.5 c 128,-1,153
 279.517578125 487 279.517578125 487 282.517578125 493 c 0,154,155
 289.517578125 506 289.517578125 506 291.517578125 511 c 128,-1,156
 293.517578125 516 293.517578125 516 290.517578125 516 c 0,157,158
 288.517578125 516 288.517578125 516 283.017578125 514 c 128,-1,159
 277.517578125 512 277.517578125 512 272.517578125 505 c 0,160,161
 261.517578125 490 261.517578125 490 262.017578125 473 c 128,-1,162
 262.517578125 456 262.517578125 456 270.517578125 456 c 0,163,164
 275.517578125 456 275.517578125 456 275.517578125 467 c 0,151,152
126.517578125 37 m 0,165,166
 125.517578125 42 125.517578125 42 112.517578125 51 c 128,-1,167
 99.517578125 60 99.517578125 60 93.517578125 67 c 0,168,169
 82.517578125 78 82.517578125 78 78.017578125 89 c 128,-1,170
 73.517578125 100 73.517578125 100 68.517578125 99 c 0,171,172
 64.517578125 99 64.517578125 99 65.017578125 92 c 128,-1,173
 65.517578125 85 65.517578125 85 70.017578125 75 c 128,-1,174
 74.517578125 65 74.517578125 65 83.517578125 54 c 128,-1,175
 92.517578125 43 92.517578125 43 105.517578125 34 c 0,176,177
 114.517578125 27 114.517578125 27 121.517578125 29 c 0,178,179
 126.517578125 29 126.517578125 29 126.517578125 37 c 0,165,166
392.517578125 22 m 0,180,181
 392.517578125 26 392.517578125 26 389.017578125 27 c 128,-1,182
 385.517578125 28 385.517578125 28 382.517578125 28 c 0,183,184
 377.517578125 29 377.517578125 29 367.517578125 38 c 128,-1,185
 357.517578125 47 357.517578125 47 351.517578125 57 c 0,186,187
 341.517578125 72 341.517578125 72 333.517578125 74 c 0,188,189
 330.517578125 74 330.517578125 74 330.517578125 69 c 0,190,191
 330.517578125 67 330.517578125 67 334.017578125 59 c 128,-1,192
 337.517578125 51 337.517578125 51 344.517578125 42 c 128,-1,193
 351.517578125 33 351.517578125 33 361.017578125 25.5 c 128,-1,194
 370.517578125 18 370.517578125 18 381.517578125 17 c 0,195,196
 385.517578125 17 385.517578125 17 388.517578125 17 c 128,-1,197
 391.517578125 17 391.517578125 17 392.517578125 22 c 0,180,181
EndSplineSet
Substitution2: "'c2sc' Capitals to Small Capitals lookup 38 subtable" w.sc
Substitution2: "'aalt' Access All Alternates lookup 0 subtable" w.sc
EndChar

StartChar: X
Encoding: 88 88 58
Width: 600
GlyphClass: 2
Flags: W
LayerCount: 2
Fore
SplineSet
386.534179688 174.834960938 m 0,0,1
 396.138671875 166.602539062 396.138671875 166.602539062 409.790039062 152.40234375 c 128,-1,2
 423.44140625 138.202148438 423.44140625 138.202148438 436.081054688 125.494140625 c 128,-1,3
 448.720703125 112.786132812 448.720703125 112.786132812 458.975585938 104.829101562 c 128,-1,4
 469.231445312 96.87109375 469.231445312 96.87109375 472.043945312 101.124023438 c 0,5,6
 473.725585938 102.598632812 473.725585938 102.598632812 475.611328125 107.229492188 c 128,-1,7
 477.498046875 111.860351562 477.498046875 111.860351562 474 116.524414062 c 0,8,9
 471.049804688 119.885742188 471.049804688 119.885742188 461 131 c 128,-1,10
 450.950195312 142.112304688 450.950195312 142.112304688 439.047851562 153.98046875 c 128,-1,11
 427.146484375 165.84765625 427.146484375 165.84765625 415.604492188 175.94921875 c 128,-1,12
 404.061523438 186.05078125 404.061523438 186.05078125 398.505859375 188.313476562 c 0,13,14
 392.0234375 190.955078125 392.0234375 190.955078125 387.340820312 184.764648438 c 128,-1,15
 382.659179688 178.573242188 382.659179688 178.573242188 386.534179688 174.834960938 c 0,0,1
129.453125 485.340820312 m 0,16,17
 139.057617188 477.108398438 139.057617188 477.108398438 152.708984375 462.908203125 c 128,-1,18
 166.360351562 448.708007812 166.360351562 448.708007812 179 436 c 128,-1,19
 191.639648438 423.291992188 191.639648438 423.291992188 201.89453125 415.334960938 c 128,-1,20
 212.150390625 407.376953125 212.150390625 407.376953125 214.962890625 411.629882812 c 0,21,22
 216.64453125 413.104492188 216.64453125 413.104492188 218.530273438 417.735351562 c 128,-1,23
 220.416992188 422.366210938 220.416992188 422.366210938 216.918945312 427.030273438 c 0,24,25
 213.96875 430.391601562 213.96875 430.391601562 203.918945312 441.505859375 c 128,-1,26
 193.869140625 452.618164062 193.869140625 452.618164062 181.966796875 464.486328125 c 128,-1,27
 170.065429688 476.353515625 170.065429688 476.353515625 158.5234375 486.455078125 c 128,-1,28
 146.98046875 496.556640625 146.98046875 496.556640625 141.424804688 498.819335938 c 0,29,30
 134.942382812 501.4609375 134.942382812 501.4609375 130.259765625 495.270507812 c 128,-1,31
 125.578125 489.079101562 125.578125 489.079101562 129.453125 485.340820312 c 0,16,17
392.004882812 411.383789062 m 0,32,33
 400.94921875 420.328125 400.94921875 420.328125 416.154296875 432.850585938 c 128,-1,34
 431.360351562 445.372070312 431.360351562 445.372070312 445 457 c 128,-1,35
 458.639648438 468.627929688 458.639648438 468.627929688 467.360351562 478.2421875 c 128,-1,36
 476.081054688 487.857421875 476.081054688 487.857421875 472.056640625 490.98828125 c 0,37,38
 470.71484375 492.77734375 470.71484375 492.77734375 466.2421875 495.012695312 c 128,-1,39
 461.770507812 497.249023438 461.770507812 497.249023438 456.8515625 494.119140625 c 0,40,41
 453.2734375 491.435546875 453.2734375 491.435546875 441.421875 482.267578125 c 128,-1,42
 429.571289062 473.099609375 429.571289062 473.099609375 416.825195312 462.142578125 c 128,-1,43
 404.080078125 451.186523438 404.080078125 451.186523438 393.123046875 440.453125 c 128,-1,44
 382.166015625 429.719726562 382.166015625 429.719726562 379.483398438 424.353515625 c 0,45,46
 376.352539062 418.092773438 376.352539062 418.092773438 382.166015625 412.94921875 c 128,-1,47
 387.98046875 407.806640625 387.98046875 407.806640625 392.004882812 411.383789062 c 0,32,33
118.004882812 123.383789062 m 0,48,49
 126.94921875 132.328125 126.94921875 132.328125 142.154296875 144.850585938 c 128,-1,50
 157.360351562 157.372070312 157.360351562 157.372070312 171 169 c 128,-1,51
 184.639648438 180.627929688 184.639648438 180.627929688 193.360351562 190.2421875 c 128,-1,52
 202.081054688 199.857421875 202.081054688 199.857421875 198.056640625 202.98828125 c 0,53,54
 196.71484375 204.77734375 196.71484375 204.77734375 192.2421875 207.012695312 c 128,-1,55
 187.770507812 209.249023438 187.770507812 209.249023438 182.8515625 206.119140625 c 0,56,57
 179.2734375 203.435546875 179.2734375 203.435546875 167.421875 194.267578125 c 128,-1,58
 155.571289062 185.099609375 155.571289062 185.099609375 142.825195312 174.142578125 c 128,-1,59
 130.080078125 163.186523438 130.080078125 163.186523438 119.123046875 152.453125 c 128,-1,60
 108.166015625 141.719726562 108.166015625 141.719726562 105.483398438 136.353515625 c 0,61,62
 102.352539062 130.092773438 102.352539062 130.092773438 108.166015625 124.94921875 c 128,-1,63
 113.98046875 119.806640625 113.98046875 119.806640625 118.004882812 123.383789062 c 0,48,49
118.004882812 123.383789062 m 0,64,65
 126.94921875 132.328125 126.94921875 132.328125 142.154296875 144.850585938 c 128,-1,66
 157.360351562 157.372070312 157.360351562 157.372070312 171 169 c 128,-1,67
 184.639648438 180.627929688 184.639648438 180.627929688 193.360351562 190.2421875 c 128,-1,68
 202.081054688 199.857421875 202.081054688 199.857421875 198.056640625 202.98828125 c 0,69,70
 196.71484375 204.77734375 196.71484375 204.77734375 192.2421875 207.012695312 c 128,-1,71
 187.770507812 209.249023438 187.770507812 209.249023438 182.8515625 206.119140625 c 0,72,73
 179.2734375 203.435546875 179.2734375 203.435546875 167.421875 194.267578125 c 128,-1,74
 155.571289062 185.099609375 155.571289062 185.099609375 142.825195312 174.142578125 c 128,-1,75
 130.080078125 163.186523438 130.080078125 163.186523438 119.123046875 152.453125 c 128,-1,76
 108.166015625 141.719726562 108.166015625 141.719726562 105.483398438 136.353515625 c 0,77,78
 102.352539062 130.092773438 102.352539062 130.092773438 108.166015625 124.94921875 c 128,-1,79
 113.98046875 119.806640625 113.98046875 119.806640625 118.004882812 123.383789062 c 0,64,65
139 71 m 1,80,-1
 70 140 l 1,81,-1
 231 301 l 1,82,-1
 70 462 l 1,83,-1
 139 531 l 1,84,-1
 300 370 l 1,85,-1
 461 531 l 1,86,-1
 530 462 l 1,87,-1
 369 301 l 1,88,-1
 530 140 l 1,89,-1
 461 71 l 1,90,-1
 300 232 l 1,91,-1
 139 71 l 1,80,-1
EndSplineSet
Substitution2: "'c2sc' Capitals to Small Capitals lookup 38 subtable" x.sc
Substitution2: "'aalt' Access All Alternates lookup 0 subtable" x.sc
EndChar

StartChar: Y
Encoding: 89 89 59
Width: 600
GlyphClass: 2
Flags: W
LayerCount: 2
Fore
SplineSet
300.36328125 0 m 0,0,1
 274.36328125 0 274.36328125 0 260.86328125 16.5 c 128,-1,2
 247.36328125 33 247.36328125 33 247.36328125 52 c 2,3,-1
 247.36328125 191 l 2,4,5
 247.36328125 204 247.36328125 204 245.86328125 214.5 c 128,-1,6
 244.36328125 225 244.36328125 225 240.86328125 236 c 128,-1,7
 237.36328125 247 237.36328125 247 231.36328125 260.5 c 128,-1,8
 225.36328125 274 225.36328125 274 216.36328125 294 c 2,9,-1
 97.36328125 556 l 2,10,11
 94.36328125 563 94.36328125 563 96.86328125 573.5 c 128,-1,12
 99.36328125 584 99.36328125 584 106.86328125 593.5 c 128,-1,13
 114.36328125 603 114.36328125 603 126.36328125 609.5 c 128,-1,14
 138.36328125 616 138.36328125 616 154.36328125 616 c 0,15,16
 163.36328125 616 163.36328125 616 171.86328125 611.5 c 128,-1,17
 180.36328125 607 180.36328125 607 185.36328125 595 c 2,18,-1
 278.36328125 377 l 2,19,20
 283.36328125 366 283.36328125 366 289.86328125 354 c 128,-1,21
 296.36328125 342 296.36328125 342 302.36328125 342 c 256,22,23
 308.36328125 342 308.36328125 342 314.36328125 351.5 c 128,-1,24
 320.36328125 361 320.36328125 361 327.36328125 377 c 2,25,-1
 427.36328125 600 l 2,26,27
 432.36328125 611 432.36328125 611 442.36328125 613.5 c 128,-1,28
 452.36328125 616 452.36328125 616 459.36328125 616 c 0,29,30
 472.36328125 616 472.36328125 616 481.86328125 609 c 128,-1,31
 491.36328125 602 491.36328125 602 496.86328125 592 c 128,-1,32
 502.36328125 582 502.36328125 582 503.86328125 571 c 128,-1,33
 505.36328125 560 505.36328125 560 501.36328125 552 c 2,34,-1
 376.36328125 281 l 2,35,36
 369.36328125 266 369.36328125 266 365.36328125 255.5 c 128,-1,37
 361.36328125 245 361.36328125 245 359.86328125 234 c 128,-1,38
 358.36328125 223 358.36328125 223 357.86328125 209.5 c 128,-1,39
 357.36328125 196 357.36328125 196 357.36328125 174 c 2,40,-1
 357.36328125 52 l 2,41,42
 357.36328125 37 357.36328125 37 351.86328125 27 c 128,-1,43
 346.36328125 17 346.36328125 17 337.86328125 11 c 128,-1,44
 329.36328125 5 329.36328125 5 319.36328125 2.5 c 128,-1,45
 309.36328125 0 309.36328125 0 300.36328125 0 c 0,0,1
128.36328125 551 m 0,46,47
 126.36328125 559 126.36328125 559 126.86328125 564.5 c 128,-1,48
 127.36328125 570 127.36328125 570 126.36328125 575 c 256,49,50
 125.36328125 580 125.36328125 580 123.36328125 584 c 128,-1,51
 121.36328125 588 121.36328125 588 119.36328125 587 c 0,52,53
 108.36328125 582 108.36328125 582 109.86328125 568 c 128,-1,54
 111.36328125 554 111.36328125 554 114.36328125 546 c 0,55,56
 119.36328125 535 119.36328125 535 126.36328125 537 c 0,57,58
 130.36328125 539 130.36328125 539 130.36328125 543 c 128,-1,59
 130.36328125 547 130.36328125 547 128.36328125 551 c 0,46,47
284.36328125 33 m 0,60,61
 282.36328125 37 282.36328125 37 278.86328125 47 c 128,-1,62
 275.36328125 57 275.36328125 57 273.36328125 74 c 0,63,64
 272.36328125 97 272.36328125 97 268.36328125 97 c 0,65,66
 267.36328125 97 267.36328125 97 265.36328125 93.5 c 128,-1,67
 263.36328125 90 263.36328125 90 262.36328125 81 c 0,68,69
 260.36328125 49 260.36328125 49 267.86328125 35 c 128,-1,70
 275.36328125 21 275.36328125 21 284.36328125 21 c 0,71,72
 288.36328125 21 288.36328125 21 287.36328125 24.5 c 128,-1,73
 286.36328125 28 286.36328125 28 284.36328125 33 c 0,60,61
EndSplineSet
Substitution2: "'c2sc' Capitals to Small Capitals lookup 38 subtable" y.sc
Substitution2: "'aalt' Access All Alternates lookup 0 subtable" y.sc
EndChar

StartChar: Z
Encoding: 90 90 60
Width: 600
GlyphClass: 2
Flags: W
LayerCount: 2
Fore
SplineSet
199.5 0 m 2,0,1
 188.5 0 188.5 0 176 2.5 c 128,-1,2
 163.5 5 163.5 5 153.5 11.5 c 128,-1,3
 143.5 18 143.5 18 137 28.5 c 128,-1,4
 130.5 39 130.5 39 130.5 55 c 0,5,6
 130.5 65 130.5 65 132 76 c 128,-1,7
 133.5 87 133.5 87 141.5 102 c 2,8,-1
 222.5 262 l 1,9,-1
 198.5 262 l 2,10,11
 183.5 262 183.5 262 175.5 273 c 128,-1,12
 167.5 284 167.5 284 167.5 301 c 256,13,14
 167.5 318 167.5 318 174 328 c 128,-1,15
 180.5 338 180.5 338 198.5 338 c 2,16,-1
 260.5 338 l 1,17,-1
 349.5 513 l 2,18,19
 352.5 519 352.5 519 352.5 525 c 0,20,21
 351.5 531 351.5 531 341.5 531 c 2,22,-1
 163.5 533 l 2,23,24
 150.5 533 150.5 533 142 543.5 c 128,-1,25
 133.5 554 133.5 554 133.5 569 c 0,26,27
 133.5 598 133.5 598 148 608 c 128,-1,28
 162.5 618 162.5 618 181.5 618 c 2,29,-1
 427.5 616 l 2,30,31
 439.5 616 439.5 616 447.5 609.5 c 128,-1,32
 455.5 603 455.5 603 460 593.5 c 128,-1,33
 464.5 584 464.5 584 466.5 572 c 128,-1,34
 468.5 560 468.5 560 468.5 548 c 0,35,36
 468.5 518 468.5 518 453.5 488 c 2,37,-1
 374.5 338 l 1,38,-1
 404.5 338 l 2,39,40
 422.5 338 422.5 338 430 329.5 c 128,-1,41
 437.5 321 437.5 321 437.5 307 c 0,42,43
 437.5 287 437.5 287 431 274.5 c 128,-1,44
 424.5 262 424.5 262 408.5 262 c 2,45,-1
 334.5 262 l 1,46,-1
 279.5 158 l 2,47,48
 267.5 135 267.5 135 261 121.5 c 128,-1,49
 254.5 108 254.5 108 254.5 100 c 0,50,51
 254.5 87 254.5 87 282.5 87 c 2,52,-1
 430.5 86 l 2,53,54
 450.5 86 450.5 86 460 72 c 128,-1,55
 469.5 58 469.5 58 469.5 35 c 0,56,57
 469.5 21 469.5 21 460 10.5 c 128,-1,58
 450.5 0 450.5 0 442.5 0 c 2,59,-1
 199.5 0 l 2,0,1
163.5 574 m 0,60,61
 165.5 578 165.5 578 169.5 585 c 128,-1,62
 173.5 592 173.5 592 172.5 595 c 0,63,64
 172.5 597 172.5 597 169 599.5 c 128,-1,65
 165.5 602 165.5 602 163.5 602 c 0,66,67
 152.5 600 152.5 600 149.5 586 c 128,-1,68
 146.5 572 146.5 572 148.5 560 c 0,69,70
 148.5 558 148.5 558 150.5 555 c 128,-1,71
 152.5 552 152.5 552 154.5 552 c 0,72,73
 158.5 553 158.5 553 160.5 562.5 c 128,-1,74
 162.5 572 162.5 572 163.5 574 c 0,60,61
190.5 306 m 0,75,76
 190.5 311 190.5 311 193.5 318.5 c 128,-1,77
 196.5 326 196.5 326 191.5 326 c 256,78,79
 186.5 326 186.5 326 181.5 318.5 c 128,-1,80
 176.5 311 176.5 311 176.5 300 c 0,81,82
 176.5 293 176.5 293 179 285.5 c 128,-1,83
 181.5 278 181.5 278 186.5 278 c 256,84,85
 191.5 278 191.5 278 191 287.5 c 128,-1,86
 190.5 297 190.5 297 190.5 306 c 0,75,76
156.5 49 m 0,87,88
 160.5 49 160.5 49 164.5 57.5 c 128,-1,89
 168.5 66 168.5 66 172.5 77.5 c 128,-1,90
 176.5 89 176.5 89 179 100.5 c 128,-1,91
 181.5 112 181.5 112 181.5 117 c 0,92,93
 181.5 121 181.5 121 177.5 121 c 0,94,95
 172.5 121 172.5 121 167.5 114 c 128,-1,96
 162.5 107 162.5 107 158 99 c 128,-1,97
 153.5 91 153.5 91 150.5 82.5 c 128,-1,98
 147.5 74 147.5 74 147.5 71 c 0,99,100
 146.5 63 146.5 63 149 56 c 128,-1,101
 151.5 49 151.5 49 156.5 49 c 0,87,88
171.5 27 m 0,102,103
 171.5 34 171.5 34 166.5 34 c 0,104,105
 157.5 34 157.5 34 157.5 25 c 0,106,107
 157.5 19 157.5 19 162.5 19 c 0,108,109
 165.5 19 165.5 19 168.5 21.5 c 128,-1,110
 171.5 24 171.5 24 171.5 27 c 0,102,103
EndSplineSet
Substitution2: "'c2sc' Capitals to Small Capitals lookup 38 subtable" z.sc
Substitution2: "'aalt' Access All Alternates lookup 0 subtable" z.sc
EndChar

StartChar: bracketleft
Encoding: 91 91 61
Width: 600
Flags: W
LayerCount: 2
Fore
SplineSet
204.930664062 -70 m 0,0,1
 201.930664062 -67 201.930664062 -67 200.430664062 -56.5 c 128,-1,2
 198.930664062 -46 198.930664062 -46 197.930664062 -12.5 c 128,-1,3
 196.930664062 21 196.930664062 21 196.930664062 86.5 c 128,-1,4
 196.930664062 152 196.930664062 152 196.930664062 266 c 0,5,6
 196.930664062 347 196.930664062 347 196.930664062 405 c 128,-1,7
 196.930664062 463 196.930664062 463 196.930664062 503.5 c 128,-1,8
 196.930664062 544 196.930664062 544 197.930664062 570 c 128,-1,9
 198.930664062 596 198.930664062 596 200.930664062 611.5 c 128,-1,10
 202.930664062 627 202.930664062 627 205.930664062 635 c 128,-1,11
 208.930664062 643 208.930664062 643 213.930664062 649 c 0,12,13
 217.930664062 654 217.930664062 654 229.430664062 657 c 128,-1,14
 240.930664062 660 240.930664062 660 256.430664062 661.5 c 128,-1,15
 271.930664062 663 271.930664062 663 291.430664062 663.5 c 128,-1,16
 310.930664062 664 310.930664062 664 330.930664062 664 c 0,17,18
 371.930664062 664 371.930664062 664 392.430664062 650 c 128,-1,19
 412.930664062 636 412.930664062 636 393.930664062 616 c 0,20,21
 388.930664062 610 388.930664062 610 374.930664062 606 c 128,-1,22
 360.930664062 602 360.930664062 602 330.930664062 602 c 0,23,24
 316.930664062 602 316.930664062 602 309.430664062 600 c 128,-1,25
 301.930664062 598 301.930664062 598 298.930664062 593 c 128,-1,26
 295.930664062 588 295.930664062 588 295.930664062 579.5 c 128,-1,27
 295.930664062 571 295.930664062 571 295.930664062 557 c 2,28,-1
 295.930664062 -20 l 1,29,-1
 313.930664062 -20 l 2,30,31
 356.930664062 -20 356.930664062 -20 371.430664062 -27.5 c 128,-1,32
 385.930664062 -35 385.930664062 -35 385.930664062 -56 c 0,33,34
 385.930664062 -66 385.930664062 -66 382.430664062 -71.5 c 128,-1,35
 378.930664062 -77 378.930664062 -77 368.430664062 -79.5 c 128,-1,36
 357.930664062 -82 357.930664062 -82 339.930664062 -82.5 c 128,-1,37
 321.930664062 -83 321.930664062 -83 291.930664062 -83 c 0,38,39
 264.930664062 -83 264.930664062 -83 249.430664062 -83 c 128,-1,40
 233.930664062 -83 233.930664062 -83 224.930664062 -81.5 c 128,-1,41
 215.930664062 -80 215.930664062 -80 211.930664062 -77.5 c 128,-1,42
 207.930664062 -75 207.930664062 -75 204.930664062 -70 c 0,0,1
241.930664062 616 m 256,43,44
 243.930664062 624 243.930664062 624 252.930664062 630 c 128,-1,45
 261.930664062 636 261.930664062 636 267.930664062 636 c 0,46,47
 276.930664062 636 276.930664062 636 276.930664062 643 c 0,48,49
 276.930664062 644 276.930664062 644 275.430664062 644 c 128,-1,50
 273.930664062 644 273.930664062 644 267.930664062 644 c 0,51,52
 252.930664062 644 252.930664062 644 238.930664062 634 c 128,-1,53
 224.930664062 624 224.930664062 624 224.930664062 610 c 0,54,55
 224.930664062 598 224.930664062 598 228.930664062 598 c 256,56,57
 232.930664062 598 232.930664062 598 236.430664062 603 c 128,-1,58
 239.930664062 608 239.930664062 608 241.930664062 616 c 256,43,44
EndSplineSet
Substitution2: "'smcp' Lowercase to Small Capitals lookup 39 subtable" bracketleft.sc
Substitution2: "'c2sc' Capitals to Small Capitals lookup 38 subtable" bracketleft.sc
Substitution2: "'aalt' Access All Alternates lookup 0 subtable" bracketleft.sc
EndChar

StartChar: backslash
Encoding: 92 92 62
Width: 600
Flags: W
LayerCount: 2
Fore
SplineSet
186.5 666 m 0,0,1
 193.5 666 193.5 666 211.5 630.5 c 128,-1,2
 229.5 595 229.5 595 253 541 c 128,-1,3
 276.5 487 276.5 487 302.5 422.5 c 128,-1,4
 328.5 358 328.5 358 351.5 299.5 c 128,-1,5
 374.5 241 374.5 241 391 197.5 c 128,-1,6
 407.5 154 407.5 154 413.5 142 c 0,7,8
 419.5 129 419.5 129 431 101.5 c 128,-1,9
 442.5 74 442.5 74 454 44.5 c 128,-1,10
 465.5 15 465.5 15 474 -10.5 c 128,-1,11
 482.5 -36 482.5 -36 482.5 -44 c 0,12,13
 482.5 -51 482.5 -51 477.5 -57 c 128,-1,14
 472.5 -63 472.5 -63 465 -67.5 c 128,-1,15
 457.5 -72 457.5 -72 449 -74.5 c 128,-1,16
 440.5 -77 440.5 -77 433.5 -77 c 0,17,18
 419.5 -77 419.5 -77 408 -67.5 c 128,-1,19
 396.5 -58 396.5 -58 389.5 -47 c 0,20,21
 383.5 -37 383.5 -37 368.5 -3 c 128,-1,22
 353.5 31 353.5 31 333.5 79.5 c 128,-1,23
 313.5 128 313.5 128 289.5 187 c 128,-1,24
 265.5 246 265.5 246 241.5 306 c 128,-1,25
 217.5 366 217.5 366 195 423 c 128,-1,26
 172.5 480 172.5 480 155.5 525 c 128,-1,27
 138.5 570 138.5 570 128 598.5 c 128,-1,28
 117.5 627 117.5 627 117.5 630 c 0,29,30
 117.5 639 117.5 639 126.5 646 c 128,-1,31
 135.5 653 135.5 653 147.5 657.5 c 128,-1,32
 159.5 662 159.5 662 171 664 c 128,-1,33
 182.5 666 182.5 666 186.5 666 c 0,0,1
161.5 626 m 0,34,35
 159.5 631 159.5 631 152 629 c 128,-1,36
 144.5 627 144.5 627 144.5 620 c 0,37,38
 144.5 614 144.5 614 149.5 599.5 c 128,-1,39
 154.5 585 154.5 585 161 569.5 c 128,-1,40
 167.5 554 167.5 554 174 540.5 c 128,-1,41
 180.5 527 180.5 527 182.5 523 c 0,42,43
 185.5 518 185.5 518 190.5 518 c 128,-1,44
 195.5 518 195.5 518 197.5 519 c 0,45,46
 202.5 520 202.5 520 199 532.5 c 128,-1,47
 195.5 545 195.5 545 188.5 561.5 c 128,-1,48
 181.5 578 181.5 578 173.5 596 c 128,-1,49
 165.5 614 165.5 614 161.5 626 c 0,34,35
EndSplineSet
EndChar

StartChar: bracketright
Encoding: 93 93 63
Width: 600
Flags: W
LayerCount: 2
Fore
SplineSet
229.75 -80 m 0,0,1
 214.75 -80 214.75 -80 204.25 -71.5 c 128,-1,2
 193.75 -63 193.75 -63 193.75 -55 c 0,3,4
 193.75 -33 193.75 -33 207.25 -25 c 128,-1,5
 220.75 -17 220.75 -17 240.75 -17 c 0,6,7
 264.75 -17 264.75 -17 278.25 -15 c 128,-1,8
 291.75 -13 291.75 -13 298.25 -8.5 c 128,-1,9
 304.75 -4 304.75 -4 306.25 3.5 c 128,-1,10
 307.75 11 307.75 11 307.75 21 c 2,11,-1
 307.75 551 l 2,12,13
 307.75 580 307.75 580 295.75 590 c 128,-1,14
 283.75 600 283.75 600 272.75 600 c 256,15,16
 261.75 600 261.75 600 249.75 598 c 128,-1,17
 237.75 596 237.75 596 226.75 596 c 0,18,19
 212.75 596 212.75 596 203.25 603 c 128,-1,20
 193.75 610 193.75 610 193.75 633 c 0,21,22
 193.75 645 193.75 645 210.25 653.5 c 128,-1,23
 226.75 662 226.75 662 255.75 662 c 0,24,25
 280.75 662 280.75 662 304.75 662 c 128,-1,26
 328.75 662 328.75 662 348.25 660.5 c 128,-1,27
 367.75 659 367.75 659 380.75 656 c 128,-1,28
 393.75 653 393.75 653 396.75 647 c 0,29,30
 399.75 642 399.75 642 400.25 625.5 c 128,-1,31
 400.75 609 400.75 609 400.75 570.5 c 128,-1,32
 400.75 532 400.75 532 401.25 466 c 128,-1,33
 401.75 400 401.75 400 402.75 295 c 0,34,35
 404.75 193 404.75 193 405.75 127.5 c 128,-1,36
 406.75 62 406.75 62 405.75 21 c 0,37,38
 405.75 -7 405.75 -7 401.75 -25 c 128,-1,39
 397.75 -43 397.75 -43 391.75 -54 c 128,-1,40
 385.75 -65 385.75 -65 377.25 -70 c 128,-1,41
 368.75 -75 368.75 -75 358.75 -76 c 0,42,43
 340.75 -78 340.75 -78 319.25 -79 c 128,-1,44
 297.75 -80 297.75 -80 278.75 -80 c 128,-1,45
 259.75 -80 259.75 -80 245.75 -80 c 128,-1,46
 231.75 -80 231.75 -80 229.75 -80 c 0,0,1
224.75 644 m 256,47,48
 220.75 649 220.75 649 213.75 645 c 128,-1,49
 206.75 641 206.75 641 206.75 633 c 0,50,51
 206.75 623 206.75 623 210.75 623 c 256,52,53
 214.75 623 214.75 623 214.75 630 c 0,54,55
 215.75 634 215.75 634 222.25 636.5 c 128,-1,56
 228.75 639 228.75 639 224.75 644 c 256,47,48
EndSplineSet
Substitution2: "'smcp' Lowercase to Small Capitals lookup 39 subtable" bracketright.sc
Substitution2: "'c2sc' Capitals to Small Capitals lookup 38 subtable" bracketright.sc
Substitution2: "'aalt' Access All Alternates lookup 0 subtable" bracketright.sc
EndChar

StartChar: asciicircum
Encoding: 94 94 64
Width: 600
Flags: W
LayerCount: 2
Fore
SplineSet
52 267 m 1,0,-1
 264 719 l 1,1,-1
 314 719 l 1,2,-1
 548 267 l 1,3,-1
 470 267 l 1,4,-1
 290 626 l 1,5,-1
 130 267 l 1,6,-1
 52 267 l 1,0,-1
EndSplineSet
EndChar

StartChar: underscore
Encoding: 95 95 65
Width: 600
Flags: W
LayerCount: 2
Fore
SplineSet
524 -154 m 1,0,-1
 76 -154 l 1,1,-1
 76 -90 l 1,2,-1
 524 -90 l 1,3,-1
 524 -154 l 1,0,-1
EndSplineSet
EndChar

StartChar: grave
Encoding: 96 96 66
Width: 600
Flags: W
LayerCount: 2
Fore
SplineSet
304.5 766 m 1,0,1
 315.5 744 315.5 744 332 716.5 c 128,-1,2
 348.5 689 348.5 689 367 663 c 128,-1,3
 385.5 637 385.5 637 400.5 618 c 1,4,-1
 400.5 606 l 1,5,-1
 341.5 606 l 1,6,7
 324.5 620 324.5 620 303.5 639.5 c 128,-1,8
 282.5 659 282.5 659 262 680.5 c 128,-1,9
 241.5 702 241.5 702 225 722 c 128,-1,10
 208.5 742 208.5 742 199.5 756 c 1,11,-1
 199.5 766 l 1,12,-1
 304.5 766 l 1,0,1
EndSplineSet
EndChar

StartChar: a
Encoding: 97 97 67
Width: 600
GlyphClass: 2
Flags: W
LayerCount: 2
Fore
SplineSet
306 621 m 0,0,1
 338 621 338 621 359 611 c 128,-1,2
 380 601 380 601 388 587 c 0,3,4
 394 575 394 575 405.5 534 c 128,-1,5
 417 493 417 493 430.5 437 c 128,-1,6
 444 381 444 381 458.5 318 c 128,-1,7
 473 255 473 255 485 199 c 128,-1,8
 497 143 497 143 504.5 101.5 c 128,-1,9
 512 60 512 60 512 48 c 0,10,11
 512 28 512 28 491 12.5 c 128,-1,12
 470 -3 470 -3 446 -3 c 256,13,14
 422 -3 422 -3 413 11 c 0,15,16
 409 17 409 17 403 32 c 128,-1,17
 397 47 397 47 391 67 c 128,-1,18
 385 87 385 87 379.5 109 c 128,-1,19
 374 131 374 131 370 152 c 0,20,21
 366 172 366 172 358.5 176.5 c 128,-1,22
 351 181 351 181 341 181 c 0,23,24
 312 181 312 181 290 181.5 c 128,-1,25
 268 182 268 182 257 182 c 0,26,27
 237 182 237 182 227.5 177.5 c 128,-1,28
 218 173 218 173 215 162 c 2,29,-1
 189 62 l 2,30,31
 181 33 181 33 163.5 15.5 c 128,-1,32
 146 -2 146 -2 124 -2 c 0,33,34
 88 -2 88 -2 88 48 c 0,35,36
 88 65 88 65 92 95.5 c 128,-1,37
 96 126 96 126 102.5 164.5 c 128,-1,38
 109 203 109 203 118.5 246.5 c 128,-1,39
 128 290 128 290 138.5 334.5 c 128,-1,40
 149 379 149 379 160 421 c 128,-1,41
 171 463 171 463 182 497 c 0,42,43
 194 535 194 535 206.5 559 c 128,-1,44
 219 583 219 583 233 597 c 128,-1,45
 247 611 247 611 264.5 616 c 128,-1,46
 282 621 282 621 306 621 c 0,0,1
245 561 m 0,47,48
 256 574 256 574 265 585.5 c 128,-1,49
 274 597 274 597 267 598 c 0,50,51
 251 601 251 601 235 579 c 0,52,53
 224 562 224 562 219 543 c 128,-1,54
 214 524 214 524 222 522 c 0,55,56
 224 522 224 522 226 525.5 c 128,-1,57
 228 529 228 529 230 535 c 128,-1,58
 232 541 232 541 235.5 548 c 128,-1,59
 239 555 239 555 245 561 c 0,47,48
261 377 m 0,60,61
 250 320 250 320 246.5 298.5 c 128,-1,62
 243 277 243 277 252 277 c 2,63,-1
 340 277 l 2,64,65
 348 277 348 277 344 296.5 c 128,-1,66
 340 316 340 316 332 357 c 0,67,68
 330 368 330 368 327 393.5 c 128,-1,69
 324 419 324 419 319.5 445 c 128,-1,70
 315 471 315 471 310 491.5 c 128,-1,71
 305 512 305 512 299 512 c 0,72,73
 294 512 294 512 288 494 c 128,-1,74
 282 476 282 476 276.5 452.5 c 128,-1,75
 271 429 271 429 267 407 c 128,-1,76
 263 385 263 385 261 377 c 0,60,61
120 63 m 0,77,78
 122 75 122 75 120 82 c 128,-1,79
 118 89 118 89 114 90 c 0,80,81
 112 90 112 90 109.5 87.5 c 128,-1,82
 107 85 107 85 105 77 c 0,83,84
 101 57 101 57 104 38.5 c 128,-1,85
 107 20 107 20 115 18 c 0,86,87
 125 16 125 16 119 33 c 0,88,89
 117 39 117 39 117.5 46.5 c 128,-1,90
 118 54 118 54 120 63 c 0,77,78
425 64 m 0,91,92
 418 78 418 78 416 83 c 128,-1,93
 414 88 414 88 412 88 c 0,94,95
 409 88 409 88 407 78 c 0,96,97
 407 74 407 74 409.5 63.5 c 128,-1,98
 412 53 412 53 416 42.5 c 128,-1,99
 420 32 420 32 425.5 24 c 128,-1,100
 431 16 431 16 436 16 c 0,101,102
 439 16 439 16 439 21 c 128,-1,103
 439 26 439 26 436.5 34 c 128,-1,104
 434 42 434 42 431 50 c 128,-1,105
 428 58 428 58 425 64 c 0,91,92
EndSplineSet
Substitution2: "'smcp' Lowercase to Small Capitals lookup 39 subtable" a.sc
Substitution2: "Single Substitution lookup 33 subtable" ordfeminine
AlternateSubs2: "'aalt' Access All Alternates lookup 1 subtable" ordfeminine a.sc
EndChar

StartChar: b
Encoding: 98 98 68
Width: 600
GlyphClass: 2
Flags: W
LayerCount: 2
Fore
SplineSet
161.5 0 m 2,0,1
 133.5 0 133.5 0 123 22 c 128,-1,2
 112.5 44 112.5 44 112.5 103 c 2,3,-1
 112.5 531 l 2,4,5
 112.5 574 112.5 574 125.5 595 c 128,-1,6
 138.5 616 138.5 616 172.5 616 c 0,7,8
 191.5 616 191.5 616 202 605.5 c 128,-1,9
 212.5 595 212.5 595 212.5 586 c 0,10,11
 212.5 570 212.5 570 213 561 c 128,-1,12
 213.5 552 213.5 552 218.5 552 c 0,13,14
 221.5 552 221.5 552 227.5 563 c 128,-1,15
 233.5 574 233.5 574 245.5 587.5 c 128,-1,16
 257.5 601 257.5 601 275.5 612 c 128,-1,17
 293.5 623 293.5 623 320.5 623 c 0,18,19
 353.5 623 353.5 623 380.5 610.5 c 128,-1,20
 407.5 598 407.5 598 427 576 c 128,-1,21
 446.5 554 446.5 554 457.5 524.5 c 128,-1,22
 468.5 495 468.5 495 468.5 461 c 0,23,24
 468.5 421 468.5 421 457.5 394.5 c 128,-1,25
 446.5 368 446.5 368 429.5 352 c 128,-1,26
 412.5 336 412.5 336 393.5 328 c 128,-1,27
 374.5 320 374.5 320 357.5 317 c 128,-1,28
 340.5 314 340.5 314 329.5 313 c 128,-1,29
 318.5 312 318.5 312 318.5 310 c 256,30,31
 318.5 308 318.5 308 331 307 c 128,-1,32
 343.5 306 343.5 306 362.5 303.5 c 128,-1,33
 381.5 301 381.5 301 403 293.5 c 128,-1,34
 424.5 286 424.5 286 443.5 270.5 c 128,-1,35
 462.5 255 462.5 255 475 229.5 c 128,-1,36
 487.5 204 487.5 204 487.5 164 c 256,37,38
 487.5 124 487.5 124 469.5 93.5 c 128,-1,39
 451.5 63 451.5 63 423 42 c 128,-1,40
 394.5 21 394.5 21 359.5 10.5 c 128,-1,41
 324.5 0 324.5 0 291.5 0 c 2,42,-1
 161.5 0 l 2,0,1
148.5 535 m 0,43,44
 147.5 537 147.5 537 146.5 539 c 0,45,46
 143.5 544 143.5 544 143.5 552 c 0,47,48
 143.5 561 143.5 561 148 568.5 c 128,-1,49
 152.5 576 152.5 576 158 582 c 128,-1,50
 163.5 588 163.5 588 168 592 c 128,-1,51
 172.5 596 172.5 596 172.5 598 c 0,52,53
 172.5 603 172.5 603 162.5 603 c 0,54,55
 148.5 603 148.5 603 137.5 586.5 c 128,-1,56
 126.5 570 126.5 570 126.5 545 c 0,57,58
 126.5 534 126.5 534 129.5 526.5 c 128,-1,59
 132.5 519 132.5 519 137.5 519 c 0,60,61
 140.5 519 140.5 519 144.5 523.5 c 128,-1,62
 148.5 528 148.5 528 148.5 535 c 0,43,44
275.5 361 m 2,63,64
 309.5 361 309.5 361 332 387 c 128,-1,65
 354.5 413 354.5 413 354.5 456 c 0,66,67
 354.5 486 354.5 486 341 506 c 128,-1,68
 327.5 526 327.5 526 300.5 526 c 0,69,70
 282.5 526 282.5 526 268.5 519 c 128,-1,71
 254.5 512 254.5 512 245.5 500.5 c 128,-1,72
 236.5 489 236.5 489 231.5 474.5 c 128,-1,73
 226.5 460 226.5 460 226.5 445 c 2,74,-1
 226.5 393 l 2,75,76
 226.5 379 226.5 379 232 370 c 128,-1,77
 237.5 361 237.5 361 245.5 361 c 2,78,-1
 275.5 361 l 2,63,64
282.5 91 m 2,79,80
 318.5 91 318.5 91 346 111 c 128,-1,81
 373.5 131 373.5 131 373.5 175 c 256,82,83
 373.5 219 373.5 219 343.5 236.5 c 128,-1,84
 313.5 254 313.5 254 270.5 254 c 2,85,-1
 245.5 254 l 2,86,87
 226.5 254 226.5 254 226.5 214 c 2,88,-1
 226.5 127 l 2,89,90
 226.5 103 226.5 103 231 97 c 128,-1,91
 235.5 91 235.5 91 254.5 91 c 2,92,-1
 282.5 91 l 2,79,80
138.5 73 m 0,93,94
 140.5 73 140.5 73 142 83 c 128,-1,95
 143.5 93 143.5 93 144 106 c 128,-1,96
 144.5 119 144.5 119 144.5 131.5 c 128,-1,97
 144.5 144 144.5 144 144.5 148 c 0,98,99
 144.5 177 144.5 177 142 183.5 c 128,-1,100
 139.5 190 139.5 190 136.5 190 c 0,101,102
 134.5 190 134.5 190 132 183.5 c 128,-1,103
 129.5 177 129.5 177 129.5 148 c 0,104,105
 129.5 105 129.5 105 131 89 c 128,-1,106
 132.5 73 132.5 73 138.5 73 c 0,93,94
138.5 59 m 0,107,108
 130.5 59 130.5 59 130.5 48 c 0,109,110
 130.5 40 130.5 40 133.5 37.5 c 128,-1,111
 136.5 35 136.5 35 139.5 35 c 0,112,113
 145.5 35 145.5 35 145.5 48 c 0,114,115
 145.5 55 145.5 55 144.5 57 c 128,-1,116
 143.5 59 143.5 59 138.5 59 c 0,107,108
EndSplineSet
Substitution2: "'smcp' Lowercase to Small Capitals lookup 39 subtable" b.sc
Substitution2: "'aalt' Access All Alternates lookup 0 subtable" b.sc
EndChar

StartChar: c
Encoding: 99 99 69
Width: 600
GlyphClass: 2
Flags: W
LayerCount: 2
Fore
SplineSet
409 17 m 0,0,1
 291 17 291 17 226 84 c 128,-1,2
 161 151 161 151 161 272 c 0,3,4
 161 352 161 352 190 407.5 c 128,-1,5
 219 463 219 463 273 492 c 1,6,-1
 45 492 l 1,7,-1
 45 564 l 1,8,-1
 555 564 l 1,9,-1
 555 492 l 1,10,-1
 453 492 l 2,11,12
 359 492 359 492 305.5 438.5 c 128,-1,13
 252 385 252 385 252 279 c 0,14,15
 252 192 252 192 295 141.5 c 128,-1,16
 338 91 338 91 418 91 c 0,17,18
 455 91 455 91 489 100.5 c 128,-1,19
 523 110 523 110 555 126 c 1,20,-1
 555 48 l 1,21,22
 526 32 526 32 491 24.5 c 128,-1,23
 456 17 456 17 409 17 c 0,0,1
EndSplineSet
Substitution2: "'smcp' Lowercase to Small Capitals lookup 39 subtable" c.sc
Substitution2: "'aalt' Access All Alternates lookup 0 subtable" c.sc
EndChar

StartChar: d
Encoding: 100 100 70
Width: 600
GlyphClass: 2
Flags: W
LayerCount: 2
Fore
SplineSet
428 674 m 0,0,1
 448 674 448 674 465 659 c 128,-1,2
 482 644 482 644 482 548 c 2,3,-1
 482 91 l 2,4,5
 482 70 482 70 473.5 53 c 128,-1,6
 465 36 465 36 450.5 24.5 c 128,-1,7
 436 13 436 13 417.5 7 c 128,-1,8
 399 1 399 1 379 1 c 2,9,-1
 320 1 l 2,10,11
 289 1 289 1 253.5 13 c 128,-1,12
 218 25 218 25 188 51 c 128,-1,13
 158 77 158 77 138 119 c 128,-1,14
 118 161 118 161 118 220 c 256,15,16
 118 279 118 279 137.5 325.5 c 128,-1,17
 157 372 157 372 186 403.5 c 128,-1,18
 215 435 215 435 249 451.5 c 128,-1,19
 283 468 283 468 313 468 c 2,20,-1
 342 468 l 2,21,22
 351 468 351 468 359.5 472 c 128,-1,23
 368 476 368 476 368 485 c 2,24,-1
 368 609 l 2,25,26
 368 627 368 627 373.5 639 c 128,-1,27
 379 651 379 651 388 659 c 128,-1,28
 397 667 397 667 407.5 670.5 c 128,-1,29
 418 674 418 674 428 674 c 0,0,1
324 379 m 2,30,31
 307 379 307 379 291 371 c 128,-1,32
 275 363 275 363 261.5 345.5 c 128,-1,33
 248 328 248 328 240 300 c 128,-1,34
 232 272 232 272 232 232 c 0,35,36
 232 189 232 189 240 160.5 c 128,-1,37
 248 132 248 132 261 115.5 c 128,-1,38
 274 99 274 99 290 92 c 128,-1,39
 306 85 306 85 321 85 c 2,40,-1
 343 85 l 2,41,42
 368 85 368 85 368 119 c 2,43,-1
 368 356 l 2,44,45
 368 379 368 379 337 379 c 2,46,-1
 324 379 l 2,30,31
442 639 m 256,47,48
 447 634 447 634 450.5 621 c 128,-1,49
 454 608 454 608 454 537 c 0,50,51
 454 512 454 512 461 512 c 0,52,53
 466 512 466 512 467.5 520.5 c 128,-1,54
 469 529 469 529 469 541 c 0,55,56
 469 622 469 622 462 638 c 128,-1,57
 455 654 455 654 445 654 c 0,58,59
 443 654 443 654 440 652 c 128,-1,60
 437 650 437 650 437 648 c 0,61,62
 437 644 437 644 442 639 c 256,47,48
EndSplineSet
Substitution2: "'smcp' Lowercase to Small Capitals lookup 39 subtable" d.sc
Substitution2: "'aalt' Access All Alternates lookup 0 subtable" d.sc
EndChar

StartChar: e
Encoding: 101 101 71
Width: 600
GlyphClass: 2
Flags: W
LayerCount: 2
Fore
SplineSet
316.83984375 -10 m 0,0,1
 271.83984375 -10 271.83984375 -10 235.33984375 11.5 c 128,-1,2
 198.83984375 33 198.83984375 33 172.83984375 73 c 128,-1,3
 146.83984375 113 146.83984375 113 132.33984375 168.5 c 128,-1,4
 117.83984375 224 117.83984375 224 117.83984375 292 c 0,5,6
 117.83984375 364 117.83984375 364 133.83984375 424.5 c 128,-1,7
 149.83984375 485 149.83984375 485 178.33984375 529.5 c 128,-1,8
 206.83984375 574 206.83984375 574 246.33984375 598.5 c 128,-1,9
 285.83984375 623 285.83984375 623 331.83984375 623 c 0,10,11
 365.83984375 623 365.83984375 623 394.33984375 610 c 128,-1,12
 422.83984375 597 422.83984375 597 442.83984375 573.5 c 128,-1,13
 462.83984375 550 462.83984375 550 473.33984375 518.5 c 128,-1,14
 483.83984375 487 483.83984375 487 481.83984375 450 c 0,15,16
 479.83984375 407 479.83984375 407 461.83984375 366.5 c 128,-1,17
 443.83984375 326 443.83984375 326 413.83984375 295 c 128,-1,18
 383.83984375 264 383.83984375 264 344.33984375 245.5 c 128,-1,19
 304.83984375 227 304.83984375 227 259.83984375 227 c 0,20,21
 242.83984375 227 242.83984375 227 242.83984375 213 c 0,22,23
 242.83984375 149 242.83984375 149 265.33984375 118.5 c 128,-1,24
 287.83984375 88 287.83984375 88 322.83984375 88 c 0,25,26
 348.83984375 88 348.83984375 88 366.33984375 107 c 128,-1,27
 383.83984375 126 383.83984375 126 383.83984375 155 c 0,28,29
 383.83984375 179 383.83984375 179 396.83984375 193.5 c 128,-1,30
 409.83984375 208 409.83984375 208 429.83984375 208 c 0,31,32
 452.83984375 208 452.83984375 208 466.33984375 189.5 c 128,-1,33
 479.83984375 171 479.83984375 171 479.83984375 139 c 0,34,35
 479.83984375 109 479.83984375 109 466.83984375 81.5 c 128,-1,36
 453.83984375 54 453.83984375 54 431.83984375 34 c 128,-1,37
 409.83984375 14 409.83984375 14 379.83984375 2 c 128,-1,38
 349.83984375 -10 349.83984375 -10 316.83984375 -10 c 0,0,1
186.83984375 477 m 0,39,40
 189.83984375 477 189.83984375 477 199.33984375 491.5 c 128,-1,41
 208.83984375 506 208.83984375 506 221.83984375 523.5 c 128,-1,42
 234.83984375 541 234.83984375 541 249.83984375 556.5 c 128,-1,43
 264.83984375 572 264.83984375 572 279.83984375 573 c 0,44,45
 284.83984375 574 284.83984375 574 289.33984375 576.5 c 128,-1,46
 293.83984375 579 293.83984375 579 292.83984375 582 c 0,47,48
 292.83984375 592 292.83984375 592 279.83984375 590 c 0,49,50
 262.83984375 589 262.83984375 589 245.33984375 576 c 128,-1,51
 227.83984375 563 227.83984375 563 213.33984375 545.5 c 128,-1,52
 198.83984375 528 198.83984375 528 189.83984375 510 c 128,-1,53
 180.83984375 492 180.83984375 492 181.83984375 481 c 0,54,55
 183.83984375 474 183.83984375 474 186.83984375 477 c 0,39,40
239.83984375 315 m 0,56,57
 242.83984375 311 242.83984375 311 253.83984375 311 c 0,58,59
 279.83984375 311 279.83984375 311 303.83984375 324 c 128,-1,60
 327.83984375 337 327.83984375 337 345.83984375 357 c 128,-1,61
 363.83984375 377 363.83984375 377 374.83984375 403 c 128,-1,62
 385.83984375 429 385.83984375 429 385.83984375 454 c 0,63,64
 385.83984375 486 385.83984375 486 370.33984375 507 c 128,-1,65
 354.83984375 528 354.83984375 528 331.83984375 528 c 0,66,67
 314.83984375 528 314.83984375 528 300.33984375 513.5 c 128,-1,68
 285.83984375 499 285.83984375 499 274.33984375 477.5 c 128,-1,69
 262.83984375 456 262.83984375 456 254.83984375 429.5 c 128,-1,70
 246.83984375 403 246.83984375 403 242.33984375 379.5 c 128,-1,71
 237.83984375 356 237.83984375 356 236.83984375 338 c 128,-1,72
 235.83984375 320 235.83984375 320 239.83984375 315 c 0,56,57
173.83984375 467 m 0,73,74
 168.83984375 466 168.83984375 466 165.83984375 459.5 c 128,-1,75
 162.83984375 453 162.83984375 453 163.83984375 445 c 0,76,77
 165.83984375 436 165.83984375 436 167.83984375 437 c 0,78,79
 172.83984375 437 172.83984375 437 176.83984375 446 c 128,-1,80
 180.83984375 455 180.83984375 455 178.83984375 462 c 0,81,82
 176.83984375 468 176.83984375 468 173.83984375 467 c 0,73,74
EndSplineSet
Substitution2: "'smcp' Lowercase to Small Capitals lookup 39 subtable" e.sc
Substitution2: "'aalt' Access All Alternates lookup 0 subtable" e.sc
EndChar

StartChar: f
Encoding: 102 102 72
Width: 600
GlyphClass: 2
Flags: W
LayerCount: 2
Fore
SplineSet
248.5 0 m 2,0,1
 233.5 0 233.5 0 225.5 10 c 128,-1,2
 217.5 20 217.5 20 213 36.5 c 128,-1,3
 208.5 53 208.5 53 207.5 75 c 128,-1,4
 206.5 97 206.5 97 206.5 121 c 2,5,-1
 206.5 312 l 1,6,-1
 190.5 312 l 2,7,8
 179.5 312 179.5 312 172.5 326 c 128,-1,9
 165.5 340 165.5 340 165.5 362 c 256,10,11
 165.5 384 165.5 384 172.5 393 c 128,-1,12
 179.5 402 179.5 402 190.5 402 c 2,13,-1
 206.5 402 l 1,14,-1
 206.5 450 l 2,15,16
 206.5 631 206.5 631 346.5 631 c 0,17,18
 367.5 631 367.5 631 384 625 c 128,-1,19
 400.5 619 400.5 619 412 610 c 128,-1,20
 423.5 601 423.5 601 429 590 c 128,-1,21
 434.5 579 434.5 579 434.5 570 c 0,22,23
 434.5 552 434.5 552 422 533 c 128,-1,24
 409.5 514 409.5 514 392.5 514 c 0,25,26
 383.5 514 383.5 514 379.5 518.5 c 128,-1,27
 375.5 523 375.5 523 371.5 528 c 128,-1,28
 367.5 533 367.5 533 362.5 537.5 c 128,-1,29
 357.5 542 357.5 542 346.5 542 c 0,30,31
 340.5 542 340.5 542 334.5 539 c 128,-1,32
 328.5 536 328.5 536 324 526 c 128,-1,33
 319.5 516 319.5 516 317 497 c 128,-1,34
 314.5 478 314.5 478 314.5 445 c 2,35,-1
 314.5 402 l 1,36,-1
 376.5 402 l 2,37,38
 393.5 402 393.5 402 399 387.5 c 128,-1,39
 404.5 373 404.5 373 404.5 360 c 0,40,41
 404.5 346 404.5 346 398.5 329 c 128,-1,42
 392.5 312 392.5 312 375.5 312 c 2,43,-1
 315.5 312 l 1,44,-1
 315.5 109 l 2,45,46
 315.5 75 315.5 75 309.5 54 c 128,-1,47
 303.5 33 303.5 33 294.5 21 c 128,-1,48
 285.5 9 285.5 9 274 4.5 c 128,-1,49
 262.5 0 262.5 0 250.5 0 c 2,50,-1
 248.5 0 l 2,0,1
233.5 471 m 0,51,52
 236.5 471 236.5 471 238 475 c 128,-1,53
 239.5 479 239.5 479 240 484 c 128,-1,54
 240.5 489 240.5 489 241 494 c 128,-1,55
 241.5 499 241.5 499 241.5 500 c 0,56,57
 245.5 528 245.5 528 259.5 550.5 c 128,-1,58
 273.5 573 273.5 573 292.5 591 c 0,59,60
 294.5 593 294.5 593 293 596 c 128,-1,61
 291.5 599 291.5 599 289.5 599 c 0,62,63
 278.5 599 278.5 599 267.5 588 c 128,-1,64
 256.5 577 256.5 577 247.5 560.5 c 128,-1,65
 238.5 544 238.5 544 233 525.5 c 128,-1,66
 227.5 507 227.5 507 227.5 491 c 0,67,68
 227.5 486 227.5 486 228 478.5 c 128,-1,69
 228.5 471 228.5 471 233.5 471 c 0,51,52
246.5 29 m 0,70,71
 246.5 40 246.5 40 237.5 51 c 128,-1,72
 228.5 62 228.5 62 227.5 74 c 0,73,74
 227.5 77 227.5 77 227 86.5 c 128,-1,75
 226.5 96 226.5 96 221.5 96 c 256,76,77
 216.5 96 216.5 96 217 89.5 c 128,-1,78
 217.5 83 217.5 83 217.5 78 c 0,79,80
 217.5 74 217.5 74 219 63.5 c 128,-1,81
 220.5 53 220.5 53 223 42.5 c 128,-1,82
 225.5 32 225.5 32 229.5 23.5 c 128,-1,83
 233.5 15 233.5 15 238.5 16 c 0,84,85
 242.5 17 242.5 17 244.5 21.5 c 128,-1,86
 246.5 26 246.5 26 246.5 29 c 0,70,71
EndSplineSet
Substitution2: "'smcp' Lowercase to Small Capitals lookup 39 subtable" f.sc
Substitution2: "'aalt' Access All Alternates lookup 0 subtable" f.sc
EndChar

StartChar: g
Encoding: 103 103 73
Width: 600
GlyphClass: 2
Flags: W
LayerCount: 2
Fore
SplineSet
319.5 -5 m 0,0,1
 252.5 -5 252.5 -5 208.5 28 c 128,-1,2
 164.5 61 164.5 61 138.5 111 c 128,-1,3
 112.5 161 112.5 161 102.5 219 c 128,-1,4
 92.5 277 92.5 277 92.5 328 c 0,5,6
 92.5 384 92.5 384 104 437.5 c 128,-1,7
 115.5 491 115.5 491 142.5 532.5 c 128,-1,8
 169.5 574 169.5 574 213 599.5 c 128,-1,9
 256.5 625 256.5 625 320.5 625 c 0,10,11
 351.5 625 351.5 625 380 616.5 c 128,-1,12
 408.5 608 408.5 608 430.5 589.5 c 128,-1,13
 452.5 571 452.5 571 465.5 540.5 c 128,-1,14
 478.5 510 478.5 510 478.5 466 c 0,15,16
 478.5 450 478.5 450 472 440.5 c 128,-1,17
 465.5 431 465.5 431 456 425.5 c 128,-1,18
 446.5 420 446.5 420 436.5 418.5 c 128,-1,19
 426.5 417 426.5 417 420.5 417 c 0,20,21
 406.5 417 406.5 417 394 427 c 128,-1,22
 381.5 437 381.5 437 381.5 466 c 0,23,24
 381.5 511 381.5 511 361 529 c 128,-1,25
 340.5 547 340.5 547 311.5 547 c 0,26,27
 291.5 547 291.5 547 273 530.5 c 128,-1,28
 254.5 514 254.5 514 240.5 483.5 c 128,-1,29
 226.5 453 226.5 453 218.5 410 c 128,-1,30
 210.5 367 210.5 367 210.5 314 c 0,31,32
 210.5 285 210.5 285 214 245 c 128,-1,33
 217.5 205 217.5 205 229.5 169 c 128,-1,34
 241.5 133 241.5 133 263.5 107.5 c 128,-1,35
 285.5 82 285.5 82 321.5 82 c 0,36,37
 350.5 82 350.5 82 367 96.5 c 128,-1,38
 383.5 111 383.5 111 391 132 c 128,-1,39
 398.5 153 398.5 153 400 175.5 c 128,-1,40
 401.5 198 401.5 198 400.5 214 c 256,41,42
 399.5 230 399.5 230 387 231.5 c 128,-1,43
 374.5 233 374.5 233 351.5 233 c 2,44,-1
 300.5 233 l 2,45,46
 294.5 233 294.5 233 289.5 239 c 128,-1,47
 284.5 245 284.5 245 281.5 253.5 c 128,-1,48
 278.5 262 278.5 262 276.5 271 c 128,-1,49
 274.5 280 274.5 280 274.5 286 c 0,50,51
 274.5 302 274.5 302 285 314.5 c 128,-1,52
 295.5 327 295.5 327 318.5 327 c 2,53,-1
 426.5 326 l 2,54,55
 457.5 326 457.5 326 482.5 306 c 128,-1,56
 507.5 286 507.5 286 507.5 249 c 0,57,58
 507.5 206 507.5 206 498 161 c 128,-1,59
 488.5 116 488.5 116 466.5 79 c 128,-1,60
 444.5 42 444.5 42 408.5 18.5 c 128,-1,61
 372.5 -5 372.5 -5 319.5 -5 c 0,0,1
224.5 58 m 0,62,63
 224.5 62 224.5 62 204.5 84 c 0,64,65
 195.5 93 195.5 93 186.5 106.5 c 128,-1,66
 177.5 120 177.5 120 170 133 c 128,-1,67
 162.5 146 162.5 146 158 157.5 c 128,-1,68
 153.5 169 153.5 169 153.5 173 c 0,69,70
 153.5 178 153.5 178 150.5 179.5 c 128,-1,71
 147.5 181 147.5 181 146.5 181 c 0,72,73
 138.5 181 138.5 181 138.5 170 c 256,74,75
 138.5 159 138.5 159 147.5 139 c 128,-1,76
 156.5 119 156.5 119 169 99.5 c 128,-1,77
 181.5 80 181.5 80 195 66 c 128,-1,78
 208.5 52 208.5 52 218.5 52 c 0,79,80
 224.5 52 224.5 52 224.5 58 c 0,62,63
247.5 45 m 0,81,82
 247.5 52 247.5 52 240.5 52 c 0,83,84
 236.5 52 236.5 52 235 49 c 128,-1,85
 233.5 46 233.5 46 233.5 44 c 0,86,87
 233.5 39 233.5 39 236 38 c 128,-1,88
 238.5 37 238.5 37 240.5 37 c 0,89,90
 247.5 37 247.5 37 247.5 45 c 0,81,82
EndSplineSet
Substitution2: "'smcp' Lowercase to Small Capitals lookup 39 subtable" g.sc
Substitution2: "'aalt' Access All Alternates lookup 0 subtable" g.sc
EndChar

StartChar: h
Encoding: 104 104 74
Width: 600
GlyphClass: 2
Flags: W
LayerCount: 2
Fore
SplineSet
172.509765625 0 m 0,0,1
 147.509765625 0 147.509765625 0 137.509765625 14.5 c 128,-1,2
 127.509765625 29 127.509765625 29 127.509765625 65 c 2,3,-1
 127.509765625 343 l 2,4,5
 127.509765625 434 127.509765625 434 125.509765625 518 c 0,6,7
 124.509765625 616 124.509765625 616 175.509765625 616 c 0,8,9
 194.509765625 616 194.509765625 616 212.509765625 606.5 c 128,-1,10
 230.509765625 597 230.509765625 597 230.509765625 571 c 2,11,-1
 230.509765625 358 l 2,12,13
 230.509765625 318 230.509765625 318 234.509765625 318 c 256,14,15
 238.509765625 318 238.509765625 318 243.509765625 334 c 128,-1,16
 248.509765625 350 248.509765625 350 260.509765625 369.5 c 128,-1,17
 272.509765625 389 272.509765625 389 294.509765625 405 c 128,-1,18
 316.509765625 421 316.509765625 421 352.509765625 421 c 0,19,20
 416.509765625 421 416.509765625 421 445.509765625 358 c 128,-1,21
 474.509765625 295 474.509765625 295 474.509765625 157 c 2,22,-1
 474.509765625 31 l 2,23,24
 474.509765625 0 474.509765625 0 418.509765625 0 c 0,25,26
 391.509765625 0 391.509765625 0 379.509765625 11.5 c 128,-1,27
 367.509765625 23 367.509765625 23 367.509765625 34 c 2,28,-1
 367.509765625 148 l 2,29,30
 367.509765625 200 367.509765625 200 364.509765625 232 c 128,-1,31
 361.509765625 264 361.509765625 264 355.509765625 282 c 128,-1,32
 349.509765625 300 349.509765625 300 340.009765625 306.5 c 128,-1,33
 330.509765625 313 330.509765625 313 316.509765625 313 c 0,34,35
 295.509765625 313 295.509765625 313 280.009765625 293.5 c 128,-1,36
 264.509765625 274 264.509765625 274 254.509765625 241 c 128,-1,37
 244.509765625 208 244.509765625 208 240.009765625 163.5 c 0,38,39
 235.509765625 123 235.509765625 123 235.509765625 121 c 2,40,-1
 235.509765625 45 l 2,41,42
 235.509765625 30 235.509765625 30 228.009765625 21 c 128,-1,43
 220.509765625 12 220.509765625 12 210.509765625 7.5 c 128,-1,44
 200.509765625 3 200.509765625 3 190.009765625 1.5 c 128,-1,45
 179.509765625 0 179.509765625 0 172.509765625 0 c 0,0,1
147.509765625 316 m 0,46,47
 150.509765625 316 150.509765625 316 152.509765625 328 c 128,-1,48
 154.509765625 340 154.509765625 340 156.509765625 355 c 128,-1,49
 158.509765625 370 158.509765625 370 159.509765625 482 c 128,-1,50
 160.509765625 594 160.509765625 594 160.509765625 595 c 0,51,52
 160.509765625 597 160.509765625 597 160.009765625 600 c 128,-1,53
 159.509765625 603 159.509765625 603 157.509765625 603 c 0,54,55
 152.509765625 603 152.509765625 603 149.009765625 595.5 c 128,-1,56
 145.509765625 588 145.509765625 588 143.509765625 479 c 128,-1,57
 141.509765625 370 141.509765625 370 140.509765625 360.5 c 128,-1,58
 139.509765625 351 139.509765625 351 139.509765625 348 c 0,59,60
 139.509765625 340 139.509765625 340 141.509765625 328 c 128,-1,61
 143.509765625 316 143.509765625 316 147.509765625 316 c 0,46,47
404.509765625 29 m 0,62,63
 404.509765625 35 404.509765625 35 402.509765625 38 c 128,-1,64
 400.509765625 41 400.509765625 41 398.009765625 43 c 128,-1,65
 395.509765625 45 395.509765625 45 393.509765625 49 c 128,-1,66
 391.509765625 53 391.509765625 53 391.509765625 60 c 0,67,68
 391.509765625 76 391.509765625 76 390.009765625 80 c 128,-1,69
 388.509765625 84 388.509765625 84 383.509765625 84 c 256,70,71
 378.509765625 84 378.509765625 84 377.009765625 76.5 c 128,-1,72
 375.509765625 69 375.509765625 69 375.509765625 59 c 0,73,74
 375.509765625 39 375.509765625 39 381.509765625 27 c 128,-1,75
 387.509765625 15 387.509765625 15 395.509765625 15 c 0,76,77
 398.509765625 15 398.509765625 15 401.509765625 18.5 c 128,-1,78
 404.509765625 22 404.509765625 22 404.509765625 29 c 0,62,63
171.509765625 26 m 0,79,80
 171.509765625 31 171.509765625 31 169.009765625 33.5 c 128,-1,81
 166.509765625 36 166.509765625 36 163.509765625 38.5 c 128,-1,82
 160.509765625 41 160.509765625 41 158.009765625 45 c 128,-1,83
 155.509765625 49 155.509765625 49 155.509765625 56 c 0,84,85
 155.509765625 77 155.509765625 77 148.509765625 77 c 0,86,87
 146.509765625 77 146.509765625 77 144.509765625 69.5 c 128,-1,88
 142.509765625 62 142.509765625 62 142.509765625 51 c 0,89,90
 142.509765625 36 142.509765625 36 149.009765625 24 c 128,-1,91
 155.509765625 12 155.509765625 12 163.509765625 12 c 0,92,93
 165.509765625 12 165.509765625 12 168.509765625 16 c 128,-1,94
 171.509765625 20 171.509765625 20 171.509765625 26 c 0,79,80
EndSplineSet
Substitution2: "'smcp' Lowercase to Small Capitals lookup 39 subtable" h.sc
Substitution2: "'sinf' Scientific Inferiors lookup 24 subtable" uni2095
Substitution2: "'subs' Subscript lookup 23 subtable" uni2095
AlternateSubs2: "'aalt' Access All Alternates lookup 1 subtable" h.sc uni2095
EndChar

